<?xml version="1.0" encoding="UTF-8"?>
<svg id="Layer_2" data-name="Layer 2" xmlns="http://www.w3.org/2000/svg" viewBox="0 0 66.1 46.66">
  <defs>
    <style>
      .cls-1 {
        fill: #472b15;
      }

      .cls-2 {
        fill: #a76e41;
        stroke: #472b15;
        stroke-miterlimit: 10;
        stroke-width: 2.15px;
      }
    </style>
  </defs>
  <g id="mute">
    <g>
      <path class="cls-1" d="M66.1,7.25l-10.8,16.27,10.61,15.89h-6l-6.31-10.43c-.21-.33-.43-.7-.66-1.1-.23-.4-.48-.85-.75-1.35h-.13c-.06.08-.22.34-.46.75-.24.42-.58.99-1.02,1.7l-6.44,10.43h-5.93l10.96-15.76-10.49-16.39h6l6.22,10.99c.23.42.46.84.68,1.26.22.42.44.84.68,1.26h.13c.25-.42.5-.84.75-1.26.25-.42.5-.84.75-1.26l6.53-10.99h5.68Z"/>
      <g>
        <rect class="cls-2" x="1.08" y="10.68" width="14.85" height="23.59" rx="3.49" ry="3.49"/>
        <path class="cls-2" d="M16.64,12.23L29.15,1.51c1.21-1.04,2.98-.08,2.98,1.61v40.41c0,1.71-1.79,2.66-3,1.59l-12.51-11.07c-.44-.39-.69-.97-.69-1.59V13.84c0-.63.26-1.23.72-1.61Z"/>
      </g>
    </g>
  </g>
</svg>