<?xml version="1.0" encoding="UTF-8"?>
<svg id="Layer_2" data-name="Layer 2" xmlns="http://www.w3.org/2000/svg" viewBox="0 0 63.16 46.66">
  <defs>
    <style>
      .cls-1 {
        fill: #472b15;
      }

      .cls-2 {
        fill: #a76e41;
        stroke: #472b15;
        stroke-miterlimit: 10;
        stroke-width: 2.15px;
      }
    </style>
  </defs>
  <g id="sound">
    <g>
      <path class="cls-1" d="M42.17,14.46s4.95,1.91,5.74,7.19-2.57,9.43-5.74,10.15c0,0-2.11.4-1.85-2.7,1.91-.79,3.46-2.9,3.84-4.22s-.05-3.82-2.06-6.53c-2.51-1.58-1.8-3.03-1.8-3.03,0,0,.94-1.32,1.87-.86Z"/>
      <g>
        <rect class="cls-2" x="1.08" y="10.68" width="14.85" height="23.59" rx="3.49" ry="3.49"/>
        <path class="cls-2" d="M16.64,12.23L29.15,1.51c1.21-1.04,2.98-.08,2.98,1.61v40.41c0,1.71-1.79,2.66-3,1.59l-12.51-11.07c-.44-.39-.69-.97-.69-1.59V13.84c0-.63.26-1.23.72-1.61Z"/>
      </g>
      <path class="cls-1" d="M48.2,8.5c1.45,1.64,5.49,4.36,7.22,11.3,1.98,7.91-3.85,15.46-6.59,17.01,0,0-4.44,2.46-3.98-2.97,3.35-1.39,6-5.09,6.72-7.39,1.19-3.8.26-7.44-2.35-11.41-3.36-2.64-3.66-3.95-3.66-3.95,0,0-1.09-2.72,2.64-2.6Z"/>
      <path class="cls-1" d="M54.32,3.92c1.68,1.9,6.36,5.05,8.37,13.09,2.29,9.17-4.42,22.35-7.6,24.15,0,0-4.69,4.51-4.15-1.78,3.88-1.6,6.99-11.87,7.29-14.66.5-4.59.3-8.62-2.72-13.21-2.79-3.78-4.62-6.02-4.62-6.02,0,0-.07-3.16,3.43-1.57Z"/>
    </g>
  </g>
</svg>