<?xml version="1.0" encoding="UTF-8"?>
<svg id="Layer_2" data-name="Layer 2" xmlns="http://www.w3.org/2000/svg" viewBox="0 0 82.48 82.58">
  <defs>
    <style>
      .cls-1 {
        fill: #875729;
      }

      .cls-2 {
        fill: #533a27;
      }

      .cls-3 {
        fill: #b47d3b;
        stroke: #533a27;
        stroke-miterlimit: 10;
        stroke-width: 3.05px;
      }
    </style>
  </defs>
  <g id="settings">
    <g>
      <path class="cls-3" d="M73.3,40.64l-4.62-.68c-.75-.11-1.31-.76-1.31-1.52,0-.88-.74-1.58-1.62-1.53l-20.78,1.22c3.29,1.75,5.53,5.22,5.53,9.2,0,5.76-4.67,10.43-10.43,10.43s-10.43-4.67-10.43-10.43c0-3.55,1.78-6.69,4.49-8.57l-20.17,1.18c-.81.05-1.44.72-1.44,1.53v1.46c0,.67-.43,1.26-1.07,1.46l-4.86,1.56c-.69.22-1.13.89-1.06,1.61l.83,8.56c.07.76.7,1.36,1.47,1.39l4.9.19c.54.02,1.02.32,1.28.79l3.2,5.75c.25.46.26,1.01.01,1.47l-2.08,3.88c-.35.66-.18,1.48.42,1.94l7.15,5.49c.61.47,1.47.41,2.02-.13l3.45-3.45c.43-.43,1.06-.56,1.62-.35l4.65,1.75c.53.2.91.67.98,1.23l.5,3.67c.1.76.75,1.33,1.52,1.33h8.79c.85,0,1.53-.69,1.53-1.53v-4.62c0-.59.33-1.12.86-1.38l4.64-2.27c.5-.24,1.09-.2,1.54.11l4.62,3.18c.62.43,1.46.34,1.98-.21l6.18-6.49c.49-.51.56-1.29.18-1.89l-3.06-4.74c-.28-.43-.32-.96-.12-1.43l2.44-5.72c.21-.48.64-.83,1.16-.91l5.13-.85c.74-.12,1.28-.76,1.28-1.51v-8.64c0-.76-.56-1.41-1.31-1.52Z"/>
      <path class="cls-1" d="M64.37,18.58c-1.21-5.4-1.61-10.25-6.23-13.99s-12.52-1.7-18.19-1.44c-5.06.23-10.62-1.16-14.26,3.21s-4.37,10.75-4.09,16.06c.13,2.48,2.2,5.29,5,5,5.46-.57,10.93-1.22,16.4-1.7,4.38-.39,9.11.3,13.4-.54,1.72-.34,2.99-1.91,3.49-3.49,1.67-5.27-1.39-10.25-6.39-11.87-2.55-.82-5.32-1.58-8-1.36-3.59.29-6.98,3.04-10.55,1.84-6.11-2.05-8.74,7.6-2.66,9.64,3.69,1.24,7.13.65,10.77-.51,1.68-.53,2.84-.97,4.53-.85,1.08.29,2.17.58,3.25.88-.49-1.05-.69-1.2-.6-.44l3.49-3.49c-1.55.31-3.8-.19-5.43-.15-2.36.06-4.72.28-7.07.51-4.88.48-9.76,1.02-14.63,1.53l5,5c-.13-2.61-.29-7.41,1.67-9.55-.82.21-.82.31-.01.3.72.09,1.44.13,2.16.13,1.83.04,3.7-.11,5.53-.2,1.99-.1,3.97-.22,5.95-.35,1.35-.09,3.92-.88,5.08-.29,2.47,1.26,2.26,6.58,2.76,8.78,1.41,6.28,11.05,3.62,9.64-2.66h0Z"/>
      <path class="cls-1" d="M18.49,21.45c-3.5-1.54-7.16-2.82-10.88-1.17-3.3,1.47-5.29,4.77-4.85,8.39,1.1,9.08,12.66,10.56,19.88,11.57,4.52.63,8.7-.62,13.11-1.48,5.02-.98,10.08-1.12,15.15-1.72,4.31-.51,8.83-1.31,12.62-3.56,3.42-2.02,6.21-6.09,10.85-4.58l-3.49-3.49c-.47-2.11-1.17-.94-3.05-.23-1.66.62-3.38,1.15-5.08,1.65-3.14.91-6.33,1.64-9.55,2.18-6.9,1.15-13.9,1.25-20.86.68-6.41-.52-6.38,9.48,0,10,12.28,1,24.77-.35,36.47-4.27,4.3-1.44,9.37-3.1,11.32-7.62s-.41-8.35-5.06-8.92-9.9.56-13.64,3.51c-4.88,3.85-9.5,4.65-15.69,5.13s-11.88,1.64-17.88,2.7c-3.33.59-6.59-.31-9.85-.99-1.35-.28-2.9-.92-4.24-1.11l-1.17-.81c-1.38,1.73-1.09,2.66.87,2.78,5.83,2.57,10.93-6.04,5.05-8.63h0Z"/>
      <g>
        <path class="cls-2" d="M19.12,18.62c-5.54-1.68-14.14-2.91-17.27,3.42-1.29,2.62-1.48,5.66-.88,8.49.31,1.44.84,3.08,1.73,4.27s2.22,2.21,3.43,3.11c10.02,7.41,23.97,4.31,34.46-.29,5.54-2.43,10.1-6.19,14.87-9.84s9.55-6.95,15.39-7.52c2.57-.25,5.47-.4,7.1,1.96,1.28,1.85,1.46,4.36.98,6.51-.6,2.66-2.2,4.77-4.75,5.86-1.61.69-3.4.97-5.11,1.3-1.93.37-3.79.92-5.68,1.43-16.06,4.32-32.97,4.88-49.31,1.9-2-.36-3.98-.78-5.96-1.24s-2.68,2.46-.8,2.89c16.01,3.69,32.61,4.29,48.78,1.2,4.19-.8,8.23-2.13,12.38-3.01,3.33-.71,6.77-1.12,9.53-3.3,4-3.16,5.26-9.31,3.17-13.91-1.08-2.37-3.24-4.23-5.86-4.54-3-.35-6.07-.06-8.96.82-5.68,1.73-10.4,5.47-15.02,9.07-2.33,1.81-4.67,3.62-7.17,5.19s-5.19,2.75-7.94,3.78c-5.67,2.13-11.77,3.54-17.86,3.04-2.82-.23-5.65-.96-8.16-2.28s-5.21-3.25-6.09-6.19c-.77-2.58-.77-5.78.82-8.07,1.78-2.56,5.64-2.63,8.42-2.29,1.68.21,3.33.65,4.95,1.14,1.85.56,2.64-2.33.8-2.89h0Z"/>
        <path class="cls-2" d="M64.86,18.59c.23-2.59-.12-5.2-.88-7.69s-1.76-4.96-3.27-6.99c-2.56-3.45-7.23-4.62-11.28-3.49-2.48.69-4.52,2.13-7.17,2.28s-4.64-.69-6.96-1.59c-4-1.57-8.8-.3-10.84,3.71-.62,1.22-.9,2.56-1.2,3.89s-.75,2.73-1.24,4.07c-1.12,3.02-2.29,6.02-3.43,9.03-.69,1.81,2.21,2.59,2.89.8,1.69-4.44,3.74-8.88,4.77-13.53.43-1.92.93-3.71,2.67-4.83,1.64-1.05,3.41-1.05,5.19-.4,2.02.74,3.84,1.57,6,1.79s4.31-.04,6.3-.77,3.72-1.83,5.89-1.87c1.74-.04,3.53.42,4.9,1.53,1.84,1.48,2.84,4.14,3.6,6.31.87,2.52,1.29,5.09,1.05,7.75-.17,1.92,2.83,1.91,3,0h0Z"/>
        <path class="cls-2" d="M18.51,21.16c-.3,1.9-1.03,3.68-1.33,5.58-.24,1.52-.34,3.69.87,4.86s3.74,1.27,5.38,1.49c1.94.27,3.89.42,5.84.47,4.05.1,8.11-.15,12.14-.52s7.93-1.37,11.88-2.4c1.87-.48,1.08-3.38-.8-2.89-3.35.87-6.68,1.83-10.13,2.2s-6.82.57-10.22.62-6.88-.1-10.25-.75c-.53-.1-1.47-.17-1.74-.53-.4-.53-.03-2.02.09-2.61.34-1.59.92-3.11,1.17-4.73.29-1.89-2.6-2.7-2.89-.8h0Z"/>
        <path class="cls-2" d="M20.88,24.68c6.98,2.41,14.26,2.24,21.53,1.84,3.69-.2,7.38-.43,11.04-.9,1.86-.24,3.78-.43,5.58-.98,1.65-.5,3.12-1.4,4.56-2.33,1.62-1.04.11-3.64-1.51-2.59-1.36.88-2.72,1.75-4.3,2.16-1.72.45-3.52.65-5.28.86-3.51.41-7.04.62-10.57.81-6.86.37-13.66.51-20.25-1.76-1.83-.63-2.61,2.27-.8,2.89h0Z"/>
        <path class="cls-2" d="M51.49,24.6c-3.77.94-7.6,1.46-11.48,1.57-1.62.05-2.12,2.61-.4,2.95s3.44.55,5.19.55c1.62,0,3.45-.52,5.03-.17v-2.89c-2.84.53-5.67,1.07-8.51,1.6s-5.35,1.05-8.12,1.12-5.57-.04-8.34-.36c-.66-.08-1.31-.17-1.96-.27-.79-.13-1.21-.02-1.47-.78-.13-.39-.37-1.08-.11-1.23s1.65.33,1.95.38c2.73.48,5.49.78,8.26.86,1.45.04,2.89-.03,4.34,0,.21,0,1.92.26,2,.17l-.16-.56c.05-.52-.1-.68-.45-.47-.36-.06-.96.06-1.33.06-2.7-.04-5.37.43-8.07.24-.71-.05-1.42-.11-2.13-.17-.5-.04-1.52.07-1.96-.16-.33-.18-.51-.59-.81-.84-.45-.37-1.04-.64-1.63-.61-1.28.06-2.12,1.22-1.92,2.45.22,1.33,1.39,1.84,2.52,2.29,2.9,1.14,5.93,1.81,9.02,2.17,1.91.22,1.9-2.78,0-3-1.57-.18-3.13-.48-4.66-.89-.75-.2-1.5-.43-2.24-.68-.29-.1-.59-.21-.88-.32-.28-.1-.56-.22-.84-.33-1.26.44-1.62.92-1.1,1.44.53,1.14,1.97,1.27,3.03,1.37,1.72.16,3.47.35,5.2.37,1.53.01,3.04-.28,4.56-.34,1.43-.06,2.93.23,4.33-.22,1.09-.35,2-1.21,2.1-2.39.14-1.65-1.29-2.24-2.66-2.42-3.17-.42-6.42-.06-9.61-.35-1.62-.15-3.22-.38-4.82-.68-1.25-.24-2.58-.67-3.75.07-2.21,1.4-1.65,5.65.44,6.92,1.06.64,2.67.65,3.86.81,1.73.23,3.48.38,5.22.45,3.59.15,7.08-.08,10.61-.75s7.25-1.37,10.87-2.05c1.46-.27,1.41-2.58,0-2.89-1.65-.36-3.25,0-4.91.05-1.79.06-3.56-.08-5.31-.43l-.4,2.95c4.14-.12,8.26-.68,12.28-1.68,1.87-.47,1.08-3.36-.8-2.89h0Z"/>
        <path class="cls-2" d="M41.6,42.51c3.56-1.07,7.33-.4,10.86-1.71s7.34-1.59,11.02-2.37,7.21-1.77,10.71-2.99c1.55-.54,3.48-1,4.76-2.07,1.2-1,1.45-2.5,2.19-3.8.96-1.68-1.63-3.19-2.59-1.51-.67,1.17-.81,2.76-2.13,3.36-1.6.73-3.33,1.25-5,1.79-3.31,1.07-6.68,1.94-10.1,2.6s-6.76,1.05-10.04,2.24-7.05.53-10.48,1.57c-1.84.56-1.06,3.45.8,2.89h0Z"/>
        <path class="cls-2" d="M78,26.98c-.94,3.86-4.64,5.85-8.12,7.06-4.06,1.41-8.24,2.53-12.43,3.5-8.57,1.98-17.37,2.95-26.14,1.99-1.92-.21-1.9,2.79,0,3,9.5,1.04,19.08-.18,28.33-2.43,4.45-1.08,9.06-2.23,13.28-4.04,3.66-1.57,6.99-4.26,7.97-8.29.46-1.88-2.43-2.68-2.89-.8h0Z"/>
        <path class="cls-2" d="M78,24.53c.16,1.08.21,2.09-.39,3.03-.47.73-1.13,1.36-1.74,1.99-1.5,1.56-3.11,2.31-5.15,2.96-3.94,1.27-7.94,2.38-11.97,3.32-8.26,1.93-16.65,3.16-25.11,3.69-1.92.12-1.93,3.12,0,3,9.52-.6,18.98-2.04,28.23-4.36,2.32-.58,4.62-1.22,6.91-1.91,2.13-.64,4.42-1.19,6.37-2.28,1.8-1.01,3.34-2.66,4.59-4.28,1.4-1.82,1.47-3.75,1.15-5.95-.28-1.9-3.17-1.09-2.89.8h0Z"/>
        <path class="cls-2" d="M63.89,19.68c-5.92,1.61-10.63,6.04-15.5,9.55-2.68,1.94-5.4,3.82-8.16,5.66s-5.42,3.6-8.53,4.59c-1.83.58-1.05,3.48.8,2.89,2.99-.95,5.67-2.53,8.27-4.24,2.82-1.86,5.6-3.78,8.35-5.74,2.57-1.84,5.06-3.77,7.61-5.62s5.01-3.4,7.95-4.2c1.86-.5,1.07-3.4-.8-2.89h0Z"/>
        <path class="cls-2" d="M59.91,23.92c2.59-2.05,5.6-3.91,8.95-4.3,2.88-.33,6.32-.12,8.83,1.45.52.33,1.14.74,1.43,1.29.38.71.32,1.68.33,2.47.02,1.58.22,3.74-.66,5.13-.8,1.26-2.21,2.31-3.42,3.15-1.39.96-2.89,1.75-4.48,2.34-1.8.66-1.02,3.56.8,2.89,2.99-1.11,5.73-2.74,8.04-4.94,1.19-1.13,2.17-2.4,2.47-4.05s.34-3.61.24-5.36c-.1-1.63-.4-3.08-1.6-4.26-1.06-1.04-2.41-1.77-3.8-2.28-2.94-1.07-6.45-1.18-9.51-.64-3.66.65-6.86,2.72-9.72,4.99-.64.51-.52,1.59,0,2.12.62.63,1.49.5,2.12,0h0Z"/>
        <path class="cls-2" d="M51.96,30.12c5.07-1.87,8.41-6.55,13.7-7.97,2.86-.76,6.08-1.21,9.04-1.05,1.35.07,2.88.25,3.36,1.68.52,1.55.84,3.19,1.19,4.78.4,1.89,3.3,1.09,2.89-.8-.66-3.06-.99-6.89-4.34-8.12s-7.08-.46-10.34.06-6.16,1.63-8.81,3.55c-2.41,1.74-4.65,3.91-7.48,4.96-1.8.66-1.02,3.56.8,2.89h0Z"/>
      </g>
      <g>
        <path class="cls-1" d="M55.52,28.82c-.71.03-1.29.32-1.79.81-.13.12-.24.26-.36.38-.04.04-.24.19-.24.23.18-.14.21-.16.08-.07-.04.03-.08.05-.12.08-.81.53-1.66,1.02-2.53,1.45l1.51,2.59c.68-.46,1.35-.91,2.03-1.37.73-.49,1.47-.97,2.14-1.54.27-.23.45-.72.44-1.06s-.11-.64-.32-.91c-.42-.54-1.33-.83-1.94-.39-1.64,1.2-3.27,2.4-4.91,3.61-.32.24-.58.49-.69.9-.1.36-.05.84.15,1.16.4.62,1.38,1.03,2.05.54,1.64-1.2,3.27-2.4,4.91-3.61l-1.82-2.36c-.07.06-.16.12-.23.19.29-.27.07-.06,0,0-.13.1-.27.19-.4.28-.33.22-.66.44-.98.66-.65.44-1.3.87-1.94,1.31s-1,1.34-.54,2.05,1.3.91,2.05.54c.82-.4,1.6-.87,2.37-1.35.42-.26.81-.55,1.15-.91.11-.12.27-.24.37-.38-.2.15-.26.19-.16.12.03-.02.06-.04.09-.06.14-.07.08-.05-.17.07.04-.01.09-.02.14-.02l-.4.05h.07c.78-.03,1.54-.67,1.5-1.5-.04-.79-.66-1.53-1.5-1.5h0Z"/>
        <path class="cls-1" d="M75.32,23.41v1.2c0,.37.03.75-.01,1.12l.05-.4c-.01.08-.03.14-.06.22l.15-.36c-.15.34-.39.65-.6.95-.22.32-.44.65-.66.97s-.25.81-.15,1.16.36.73.69.9c.76.4,1.58.16,2.05-.54.24-.36.49-.72.73-1.08.28-.41.59-.82.71-1.31s.09-1,.09-1.49v-1.33c0-.78-.69-1.54-1.5-1.5s-1.5.66-1.5,1.5h0Z"/>
      </g>
      <path class="cls-2" d="M7.74,37.92c-1.09-.75-1.83-1.99-2.56-3.08s-1.39-2.22-1.65-3.52c-.54-2.61-.94-5.99.07-8.52.46-1.17,1.24-1.83,2.38-2.3,1.4-.57,2.82-1.09,4.34-1.14,3.12-.1,6.28.94,9.29,1.63,1.88.43,2.68-2.46.8-2.89-3.69-.85-7.62-2.15-11.45-1.61-3.29.47-6.79,1.92-8.11,5.15s-.89,7.19-.21,10.48c.34,1.66,1.22,3.15,2.16,4.54s1.97,2.85,3.43,3.85c1.59,1.1,3.1-1.5,1.51-2.59h0Z"/>
    </g>
  </g>
</svg>