<?xml version="1.0" encoding="UTF-8"?>
<svg id="Layer_2" data-name="Layer 2" xmlns="http://www.w3.org/2000/svg" viewBox="0 0 79.66 79.66">
  <defs>
    <style>
      .cls-1 {
        fill: #d17ca0;
      }

      .cls-1, .cls-2, .cls-3, .cls-4, .cls-5, .cls-6, .cls-7, .cls-8, .cls-9, .cls-10, .cls-11, .cls-12, .cls-13, .cls-14, .cls-15, .cls-16, .cls-17, .cls-18, .cls-19, .cls-20, .cls-21, .cls-22, .cls-23, .cls-24, .cls-25, .cls-26, .cls-27, .cls-28, .cls-29, .cls-30, .cls-31, .cls-32, .cls-33, .cls-34, .cls-35, .cls-36, .cls-37, .cls-38, .cls-39, .cls-40, .cls-41, .cls-42, .cls-43, .cls-44, .cls-45, .cls-46, .cls-47, .cls-48, .cls-49, .cls-50, .cls-51, .cls-52, .cls-53, .cls-54, .cls-55, .cls-56, .cls-57, .cls-58, .cls-59, .cls-60, .cls-61, .cls-62, .cls-63, .cls-64, .cls-65, .cls-66, .cls-67, .cls-68, .cls-69, .cls-70, .cls-71, .cls-72, .cls-73, .cls-74, .cls-75, .cls-76, .cls-77, .cls-78, .cls-79, .cls-80, .cls-81, .cls-82, .cls-83, .cls-84, .cls-85, .cls-86, .cls-87, .cls-88, .cls-89, .cls-90, .cls-91, .cls-92, .cls-93, .cls-94, .cls-95, .cls-96, .cls-97, .cls-98, .cls-99, .cls-100, .cls-101, .cls-102, .cls-103, .cls-104, .cls-105, .cls-106, .cls-107, .cls-108, .cls-109, .cls-110, .cls-111, .cls-112, .cls-113, .cls-114, .cls-115, .cls-116, .cls-117, .cls-118, .cls-119, .cls-120, .cls-121, .cls-122, .cls-123, .cls-124, .cls-125, .cls-126, .cls-127, .cls-128, .cls-129, .cls-130, .cls-131, .cls-132, .cls-133, .cls-134, .cls-135, .cls-136, .cls-137, .cls-138, .cls-139, .cls-140, .cls-141, .cls-142, .cls-143, .cls-144, .cls-145, .cls-146, .cls-147, .cls-148, .cls-149, .cls-150, .cls-151, .cls-152, .cls-153, .cls-154, .cls-155, .cls-156, .cls-157, .cls-158, .cls-159, .cls-160, .cls-161, .cls-162, .cls-163, .cls-164, .cls-165, .cls-166, .cls-167, .cls-168, .cls-169 {
        fill-rule: evenodd;
      }

      .cls-1, .cls-44, .cls-47, .cls-67, .cls-75, .cls-117, .cls-125, .cls-134, .cls-136, .cls-137, .cls-140, .cls-144 {
        isolation: isolate;
      }

      .cls-1, .cls-44, .cls-47, .cls-67, .cls-136, .cls-144 {
        opacity: 1;
      }

      .cls-2 {
        fill: #ecadc8;
      }

      .cls-3 {
        fill: #ebb3cb;
      }

      .cls-4 {
        fill: #e89fbf;
      }

      .cls-5 {
        fill: #f2c3d7;
      }

      .cls-6 {
        fill: #e68eb4;
      }

      .cls-7 {
        fill: #db5a91;
      }

      .cls-8 {
        fill: #f3a3c4;
      }

      .cls-9 {
        fill: #f48eb9;
      }

      .cls-10 {
        fill: #f8e2ec;
      }

      .cls-11 {
        fill: #f3abca;
      }

      .cls-12 {
        fill: #efb5ce;
      }

      .cls-13 {
        fill: #e074a1;
      }

      .cls-14 {
        fill: #f8e0ea;
      }

      .cls-15 {
        fill: #f9e4ed;
      }

      .cls-16 {
        fill: #e792b6;
      }

      .cls-17 {
        fill: #d36f99;
      }

      .cls-18 {
        fill: #da578f;
      }

      .cls-19 {
        fill: #d37099;
      }

      .cls-20 {
        fill: #f5d1e0;
      }

      .cls-21 {
        fill: #ebb4cc;
      }

      .cls-22 {
        fill: #f4cddd;
      }

      .cls-23 {
        fill: #eca5c3;
      }

      .cls-24 {
        fill: #f5adcb;
      }

      .cls-25 {
        fill: #eeafc9;
      }

      .cls-26 {
        fill: #faeaf0;
      }

      .cls-27 {
        fill: #e899ba;
      }

      .cls-28 {
        fill: #ea9ebe;
      }

      .cls-29 {
        fill: #f498bf;
      }

      .cls-30 {
        fill: #e8aac5;
      }

      .cls-31 {
        fill: #e48db2;
      }

      .cls-32 {
        fill: #f6d7e4;
      }

      .cls-33 {
        fill: #f4cdde;
      }

      .cls-34 {
        fill: #e489b0;
      }

      .cls-35 {
        fill: #f3cadb;
      }

      .cls-36 {
        fill: #edaac6;
      }

      .cls-37 {
        fill: #f6d5e3;
      }

      .cls-38 {
        fill: #f4a2c5;
      }

      .cls-39 {
        fill: #e68cb2;
      }

      .cls-40 {
        fill: #f1c0d5;
      }

      .cls-41 {
        fill: #eba2c1;
      }

      .cls-42 {
        fill: #ecb7ce;
      }

      .cls-43 {
        fill: #e9aac4;
      }

      .cls-44 {
        fill: #d46996;
      }

      .cls-45 {
        fill: #f3a2c4;
      }

      .cls-46 {
        fill: #caa5b4;
      }

      .cls-47 {
        fill: #d17b9f;
      }

      .cls-48 {
        fill: #eaa1c1;
      }

      .cls-49 {
        fill: #e48eb3;
      }

      .cls-50 {
        fill: #f376ab;
      }

      .cls-51 {
        fill: #f5d2e1;
      }

      .cls-52 {
        fill: #e9acc6;
      }

      .cls-53 {
        fill: #e076a3;
      }

      .cls-54 {
        fill: #f4a5c6;
      }

      .cls-55 {
        fill: #de6f9e;
      }

      .cls-56, .cls-137 {
        fill: #d94b88;
      }

      .cls-57 {
        fill: #d2759c;
      }

      .cls-58 {
        fill: #dc6397;
      }

      .cls-59 {
        fill: #fefdfd;
      }

      .cls-60 {
        fill: #e59bbb;
      }

      .cls-61 {
        fill: #de6a9b;
      }

      .cls-62 {
        fill: #dd6a9b;
      }

      .cls-63 {
        fill: #faebf1;
      }

      .cls-64 {
        fill: #f381b1;
      }

      .cls-65 {
        fill: #eca9c6;
      }

      .cls-66 {
        fill: #e384ac;
      }

      .cls-67, .cls-72 {
        fill: #e27da8;
      }

      .cls-68 {
        fill: #d07fa2;
      }

      .cls-69 {
        fill: #f3cbdc;
      }

      .cls-70 {
        fill: #f6d9e6;
      }

      .cls-71 {
        fill: #f498be;
      }

      .cls-73 {
        fill: #f6d8e5;
      }

      .cls-74 {
        fill: #e598b9;
      }

      .cls-75 {
        fill: #d94c89;
        opacity: .76;
      }

      .cls-76 {
        fill: #f263a0;
      }

      .cls-77 {
        fill: #eeaec9;
      }

      .cls-78 {
        fill: #e589b0;
      }

      .cls-79 {
        fill: #f6dae6;
      }

      .cls-80 {
        fill: #f5a5c6;
      }

      .cls-81 {
        fill: #eba3c1;
      }

      .cls-82 {
        fill: #eec2d5;
      }

      .cls-83 {
        fill: #cf88a6;
      }

      .cls-84 {
        fill: #e68cb3;
      }

      .cls-85 {
        fill: #f7dde8;
      }

      .cls-86 {
        fill: #e380aa;
      }

      .cls-87 {
        fill: #ebbed1;
      }

      .cls-88 {
        fill: #f5acca;
      }

      .cls-89 {
        fill: #e999bb;
      }

      .cls-90 {
        fill: #e89abb;
      }

      .cls-91 {
        fill: #e68bb1;
      }

      .cls-92 {
        fill: #e5e5e5;
      }

      .cls-93 {
        fill: #f172a8;
      }

      .cls-94 {
        fill: #e690b4;
      }

      .cls-95 {
        fill: #f8dee9;
      }

      .cls-96 {
        fill: #e279a5;
      }

      .cls-97 {
        fill: #eaadc7;
      }

      .cls-98 {
        fill: #e8adc6;
      }

      .cls-99 {
        fill: #f9e6ee;
      }

      .cls-100 {
        fill: #eba5c3;
      }

      .cls-101 {
        fill: #e9a8c4;
      }

      .cls-102 {
        fill: #f2c1d5;
      }

      .cls-103 {
        fill: #e075a2;
      }

      .cls-104 {
        fill: #de6c9d;
      }

      .cls-105 {
        fill: #f37daf;
      }

      .cls-106 {
        fill: #f0bad1;
      }

      .cls-107 {
        fill: #df6f9e;
      }

      .cls-108 {
        fill: #cf83a4;
      }

      .cls-109 {
        fill: #f382b2;
      }

      .cls-110 {
        fill: #f39ec2;
      }

      .cls-111 {
        fill: #f4cbdc;
      }

      .cls-112 {
        fill: #f6dde8;
      }

      .cls-113 {
        fill: #caa8b6;
      }

      .cls-114 {
        fill: #f081b0;
      }

      .cls-115 {
        fill: #f9e5ee;
      }

      .cls-116 {
        fill: #eaaac6;
      }

      .cls-117 {
        fill: #d94c88;
        opacity: .84;
      }

      .cls-118 {
        fill: #fae9f0;
      }

      .cls-119 {
        fill: #f494bc;
      }

      .cls-120 {
        fill: #f3dae4;
      }

      .cls-121 {
        fill: #f4b2ce;
      }

      .cls-122 {
        fill: #e587af;
      }

      .cls-123 {
        fill: #f48fba;
      }

      .cls-124 {
        fill: #eaa0bf;
      }

      .cls-125 {
        fill: #eeefee;
        opacity: 0;
      }

      .cls-126 {
        fill: #db5b92;
      }

      .cls-127 {
        fill: #d17a9f;
      }

      .cls-128 {
        fill: #f4acca;
      }

      .cls-129 {
        fill: #cc95ad;
      }

      .cls-130 {
        fill: #edb6ce;
      }

      .cls-131 {
        fill: #fafafa;
      }

      .cls-132 {
        fill: #e8a3c0;
      }

      .cls-133 {
        fill: #e25491;
      }

      .cls-134 {
        fill: #f0f0f0;
        opacity: .12;
      }

      .cls-135 {
        fill: #f3b5cf;
      }

      .cls-136 {
        fill: #cc98ae;
      }

      .cls-137 {
        opacity: .9;
      }

      .cls-138 {
        fill: #f7f7f7;
      }

      .cls-139 {
        fill: #efbcd2;
      }

      .cls-140 {
        fill: #c5c5c5;
        opacity: .87;
      }

      .cls-141 {
        fill: #e179a6;
      }

      .cls-142 {
        fill: #cc97ae;
      }

      .cls-143 {
        fill: #f5bad3;
      }

      .cls-144 {
        fill: #d180a1;
      }

      .cls-145 {
        fill: #fefdfe;
      }

      .cls-146 {
        fill: #df75a2;
      }

      .cls-147 {
        fill: #f392ba;
      }

      .cls-148 {
        fill: #eca7c4;
      }

      .cls-149 {
        fill: #e790b5;
      }

      .cls-150 {
        fill: #f38eb8;
      }

      .cls-151 {
        fill: #d1779d;
      }

      .cls-152 {
        fill: #eab9ce;
      }

      .cls-170 {
        fill: #f9a0c4;
      }

      .cls-153 {
        fill: #f36da5;
      }

      .cls-154 {
        fill: #f9e7ef;
      }

      .cls-155 {
        fill: #cd97ae;
      }

      .cls-156 {
        fill: #f5afcc;
      }

      .cls-157 {
        fill: #d07ea1;
      }

      .cls-158 {
        fill: #eba4c2;
      }

      .cls-159 {
        fill: #f4a7c7;
      }

      .cls-160 {
        fill: #f195bb;
      }

      .cls-161 {
        fill: #e382ab;
      }

      .cls-162 {
        fill: #f4e0e9;
      }

      .cls-163 {
        fill: #fae8ef;
      }

      .cls-164 {
        fill: #e693b7;
      }

      .cls-165 {
        fill: #ea9dbe;
      }

      .cls-166 {
        fill: #f1bfd4;
      }

      .cls-167 {
        fill: #cd91ab;
      }

      .cls-168 {
        fill: #cc9cb0;
      }

      .cls-169 {
        fill: #e8adc7;
      }
    </style>
  </defs>
  <g id="effect">
    <g id="effect-2" data-name="effect">
      <circle id="Effect_1st_space" data-name="Effect 1st space" class="cls-170" cx="39.83" cy="39.83" r="39.83"/>
      <g>
        <path class="cls-75" d="M13.4,12.46c.67,0,1.08.35,1.23,1.04.13.44.05.84-.23,1.2-.37.15-.74.24-1.12.26-.07-.01-.12-.05-.16-.1-.02.02-.05.04-.08.05-.47-.25-.73-.62-.78-1.12.07-.22.15-.44.23-.65.11-.09.19-.19.26-.31.2-.17.42-.29.65-.37Z"/>
        <path class="cls-67" d="M13.51,13.03c-.08-.02-.15-.08-.18-.16-.07.09-.17.12-.29.1.13-.12.28-.18.47-.16v.21Z"/>
        <path class="cls-130" d="M13.51,13.03s.05.1.05.16c.02.25-.06.44-.26.57-.05.04-.06.1-.05.16-.12-.05-.23-.05-.34,0-.23-.05-.34-.2-.34-.44.05-.09.06-.18.05-.29.1-.14.24-.21.42-.21.12.02.21-.02.29-.1.04.08.1.13.18.16Z"/>
        <path class="cls-94" d="M12.62,13.19c.01.1,0,.2-.05.29,0,.24.11.39.34.44.11-.05.22-.05.34,0-.01-.06,0-.11.05-.16.2-.14.28-.33.26-.57.07.07.1.17.1.29.02.18-.03.34-.16.47-.3.14-.62.19-.94.13-.03-.16-.07-.31-.1-.47.01-.16.06-.3.16-.42Z"/>
        <path class="cls-117" d="M19.56,15.07c.53.05.98.26,1.36.63-.03.04-.06.06-.1.08.12.06.19.16.23.29.1.19.16.38.18.57-.01.22-.05.44-.1.68.01.03.03.06.05.08-.23.38-.52.72-.86,1.02-.02-.02-.03-.03-.05-.05-.22.11-.46.18-.7.21-.34-.08-.69-.19-1.04-.34-.17-.23-.35-.45-.52-.68.02-.16-.01-.32-.1-.47.04-.14.07-.28.1-.42-.02-.23.06-.42.26-.57-.02-.02-.03-.03-.05-.05.19-.24.42-.45.68-.63.22-.17.45-.28.68-.34Z"/>
        <path class="cls-140" d="M33.23,15.22c.08.04.12.11.13.21.07-.07.14-.14.21-.21.06.22.14.43.26.63.07,0,.13.02.18.08-.1.13-.14.27-.1.42-.08.28-.2.5-.37.68.05.03.1.03.16.03v.16c-.15,0-.2.06-.16.18-.32.34-.51.75-.55,1.23-.07.5-.06,1.01.03,1.51-.01.03-.03.06-.05.08.07.26.12.52.16.78-.02.05-.06.08-.1.1.07.12.07.24,0,.37.1.15.18.32.23.5.04.13.03.25-.03.37.09.04.16.1.21.18-.02.02-.03.03-.05.05.19.39.37.78.55,1.17.15.17.3.33.44.5.05.03.1.03.16.03-.02.15.03.21.16.16.27.14.53.27.78.37.3-.03.59-.03.86,0,.14-.18.32-.28.55-.31,0,.05,0,.11.03.16.26-.2.54-.23.84-.1.08-.29.16-.31.26-.05.09-.07.17-.14.26-.21.05.07.09.14.13.21.15-.05.29-.15.42-.31.04.06.07.13.08.21.09-.04.19-.07.29-.08-.02-.02-.04-.05-.05-.08.16-.1.32-.12.5-.05.19-.14.38-.14.57,0,.26-.09.53-.16.81-.23.22-.24.42-.21.6.08.14-.12.29-.22.44-.31.2.07.4.07.6,0,.11,0,.18.04.21.16.05-.06.11-.11.18-.16.13.08.25.17.37.26.1,0,.12-.03.05-.08.13-.23.28-.24.44-.03.07-.16.19-.25.37-.26.24,0,.43.08.57.26.06-.07.12-.13.21-.16.13.08.23.18.31.31.2-.14.39-.12.57.05.21-.06.42-.13.63-.21.11.04.22.09.31.16.11-.04.22-.09.31-.16.08.05.16.1.23.16.07-.04.13-.04.18,0,.05-.03.1-.07.16-.1.08.15.16.17.26.05.11.11.23.13.37.05.07.03.14.07.21.1.1,0,.21-.03.31-.05.26.03.52.1.76.21.03-.02.07-.03.1-.05.36.14.72.19,1.1.16.12.06.23.13.34.21.18-.05.36-.06.55-.03.15.07.29.15.42.26.34-.02.67.03.99.16.04.09.05.16.05.23.07-.06.15-.11.23-.16.05.07.1.15.13.23.22.12.46.2.7.23.11-.1.23-.19.37-.26.37.15.74.3,1.12.44.09.16.19.31.31.44.11-.15.24-.27.39-.37.16.03.26.12.29.29-.06.16-.11.33-.16.5.25.03.47.08.68.16.08-.09.16-.16.26-.23.24-.09.38,0,.42.23-.04.15-.1.28-.21.39.04.05.1.1.16.13.18-.21.41-.31.68-.29.1.11.13.24.08.39-.1.13-.2.26-.29.39.12.11.25.2.39.29.04.2.12.38.23.55.05.03.1.03.16,0,.22-.23.48-.41.76-.55.19.02.27.13.23.31.24,0,.34.12.29.37-.02.07-.07.14-.13.18.11.17.15.36.13.55.41.18.79.41,1.12.7.16.04.32.1.47.16.05.07.06.15.05.23.31.05.38.21.21.47.08.1.17.19.29.26.07.19.13.38.16.57.19.02.37.08.55.16.09.22.02.36-.21.44.2.06.33.19.37.39.26.29.53.57.81.84.12.17.09.32-.08.44-.07.04-.13.03-.18-.03-.02.15.03.27.16.37.26-.35.5-.34.7.05-.02.03-.03.07-.05.1.13.18.19.37.16.57.27.16.27.31,0,.44.15.24.35.42.6.55.13.19.24.4.31.63.22.15.29.36.21.63-.11.11-.24.19-.39.23.2.19.42.35.65.5.15.33.29.66.42.99.04.1.03.2-.03.29.11.04.13.1.05.18.1.13.17.28.21.44,0,.06-.03.1-.08.13-.05-.06-.09-.06-.13,0,.03.08.07.15.13.21.02-.02.05-.04.08-.05.14.19.18.4.1.63.05.06.1.12.16.18-.01.07-.05.12-.1.16.25.06.27.15.05.29.09.16.14.33.16.52-.06-.01-.11,0-.16.05.23.27.25.55.05.86.06.06.06.13,0,.18.21.17.19.32-.05.44.11.07.13.16.05.26.03.05.06.09.1.13-.06.06-.06.12,0,.18-.08.1-.13.21-.13.34-.05.06-.11.11-.18.13.08.02.17.05.26.1-.03.07-.09.12-.16.16.06.24.11.47.16.7-.08.58-.17,1.16-.26,1.72.11.07.2.17.26.29-.04.14-.11.26-.21.37.15.19.13.36-.05.52.14.17.17.36.08.55-.1.08-.21.11-.34.1.04.24-.03.43-.21.57.2.13.34.3.42.52-.01.08-.04.14-.08.21-.09.04-.17.1-.23.18.07.2,0,.32-.21.37.1.05.15.13.16.23-.18.41-.37.82-.57,1.23.1.18.12.36.05.55-.17.07-.3.02-.39-.16-.09.16-.14.33-.13.52.03.19.1.36.21.52-.05.17-.14.31-.26.44.07.23,0,.39-.23.5-.1.14-.18.3-.23.47-.14.11-.3.14-.47.08.05.07.06.15.03.23-.09.18-.21.35-.34.5.13.3.04.48-.26.55-.04.26-.11.52-.18.78-.06.07-.14.12-.23.13-.11.1-.15.21-.1.34-.12.13-.18.29-.18.47-.11.12-.23.23-.37.31-.02.1-.03.21-.05.31-.18.11-.37.22-.55.34-.21.23-.4.47-.57.73-.24.03-.49.06-.73.08-.02.28-.06.56-.13.84-.21.12-.4.26-.57.42-.15.21-.28.42-.39.65-.08.09-.17.1-.26.05-.21.28-.48.48-.81.6-.06-.04-.12-.04-.18-.03-.13.13-.26.27-.37.42-.08.04-.16.03-.23-.03-.09.19-.23.24-.42.16-.02.23-.14.35-.37.37-.1-.03-.19-.04-.29-.03-.18.22-.41.34-.68.37.07.13.07.26,0,.39-.27.11-.49.28-.68.5-.09.08-.19.09-.29.03-.13.13-.29.22-.47.26-.16-.06-.31-.13-.47-.21-.19.04-.37.1-.55.18.17.09.22.22.16.39-.21.04-.42.04-.63.03-.32.19-.65.36-.99.52-.17.05-.3.01-.39-.13-.02.25-.14.32-.37.21-.1.3-.3.39-.6.26-.11-.11-.2-.24-.29-.37-.11.25-.3.34-.55.26-.06.42-.28.52-.65.31-.17.19-.36.21-.57.05-.05.13-.15.2-.29.21-.13-.04-.25-.11-.34-.21-.56.11-1.12.21-1.7.31-.1-.03-.19-.06-.29-.1-.13.07-.26.07-.39,0-.08.05-.17.09-.26.1,0-.22-.05-.25-.16-.08-.3.14-.61.16-.91.08-.07.07-.16.13-.26.16-.09-.02-.14-.07-.16-.16-.08.06-.17.06-.26,0-.28.2-.56.2-.84,0-.01.09-.05.16-.13.21-.13-.03-.27-.08-.42-.16-.07.08-.16.11-.26.1-.01-.19-.08-.2-.21-.05-.05-.08-.11-.15-.18-.21-.05.06-.12.09-.21.1-.15-.03-.29-.04-.44-.05,0-.08.03-.15.1-.18-.1-.01-.17-.06-.23-.13l-.08.08c.06.06.06.12,0,.18-.19-.02-.35-.11-.47-.26-.1.08-.18.07-.23-.05-.07.1-.17.12-.29.08-.32-.13-.64-.26-.97-.39-.13-.24-.31-.45-.52-.63-.05.13-.11.25-.18.37-.15.06-.31.06-.47.03-.28-.2-.58-.37-.89-.52-.04-.06-.06-.12-.08-.18-.14-.1-.28-.21-.42-.31-.18.28-.34.27-.47-.05-.04.04-.08.08-.13.1-.16-.07-.31-.14-.47-.21-.16.06-.27,0-.34-.16-.03-.09-.03-.17,0-.26.17-.16.15-.29-.08-.39-.12-.01-.13.03-.05.13-.07.2-.21.26-.42.18-.34-.36-.72-.65-1.15-.89-.07-.07-.13-.15-.18-.23-.09.19-.24.25-.44.18-.09-.17-.13-.35-.1-.55-.19,0-.39-.03-.57-.08-.11-.09-.21-.18-.31-.29-.29.13-.45.04-.5-.26-.08.07-.16.07-.23,0-.07-.14-.12-.29-.16-.44-.3-.33-.54-.69-.73-1.1-.2,0-.39-.05-.57-.13-.08.07-.18.12-.29.16-.18-.11-.36-.23-.52-.37-.09-.12-.09-.24,0-.37.16-.22.32-.44.5-.65-.18-.16-.39-.26-.63-.31-.07-.13-.17-.25-.29-.34-.19.18-.41.27-.65.29-.13-.08-.18-.19-.13-.34.07-.18.19-.33.34-.44-.07-.02-.14-.07-.18-.13-.27.29-.51.28-.7-.05.09-.14.17-.28.26-.42-.07-.19-.11-.38-.13-.57-.04-.03-.08-.05-.13-.05-.12.05-.24.08-.37.1-.27-.06-.33-.22-.18-.47.07-.07.15-.13.23-.18-.12-.12-.25-.2-.42-.23-.18-.25-.29-.53-.34-.84-.08-.1-.14-.21-.18-.34.05-.14.12-.26.21-.37,0-.28-.09-.52-.26-.73-.05-.03-.1-.03-.16-.03,0-.11.03-.2.1-.29-.12,0-.21-.05-.29-.13-.02-.2-.09-.39-.18-.57.05-.12.06-.24.03-.37-.16-.22-.27-.47-.34-.73.03-.08.06-.16.1-.23l-.18-.18c-.03-.51-.13-.99-.31-1.46-.02-.39-.08-.77-.18-1.15.02-.04.04-.08.05-.13l-.16-.47c.03-.11.06-.21.1-.31-.06-.09-.13-.17-.21-.23.05-.1.1-.2.16-.29-.05-.12-.11-.24-.16-.37.03-.2.08-.41.16-.63-.11-.17-.15-.35-.1-.55-.05-.1-.13-.17-.23-.21-.04-.15,0-.26.13-.34-.12-.05-.21-.14-.26-.26l.05-.05c-.17-.26-.12-.46.16-.6-.27-.21-.24-.36.1-.44-.07-.03-.07-.07,0-.1-.12-.09-.21-.21-.26-.34,0-.1.06-.16.16-.18-.07-.02-.13-.04-.18-.08.03-.24.02-.47-.03-.7.05-.17.13-.3.26-.42-.1-.11-.17-.24-.21-.39.16-.34.26-.69.31-1.04,0-.08-.04-.14-.1-.18,0-.14.05-.27.16-.39-.15-.24-.11-.45.1-.63-.06-.05-.06-.09,0-.13-.06-.01-.11-.04-.16-.08.14-.15.21-.33.23-.52-.05.06-.09.06-.13,0l.16-.31c-.07,0-.14-.03-.21-.1.04-.08.11-.12.21-.1-.09-.31-.04-.6.16-.86-.26-.06-.27-.17-.05-.31-.05-.04-.06-.08-.03-.13.07-.04.13-.08.18-.13-.05-.3-.05-.6,0-.89-.05-.08-.11-.16-.16-.23-.08-.21-.18-.42-.29-.63-.06-.03-.12-.06-.18-.1.01-.03.03-.06.05-.08-.17-.03-.25-.13-.26-.29-.13,0-.24-.06-.31-.18-.21-.02-.4-.1-.55-.23-.27-.08-.54-.15-.81-.21,0-.07,0-.14-.03-.21-.09.1-.2.14-.31.1-.14-.07-.28-.14-.42-.21-.07.07-.12.05-.16-.05-.11.07-.23.08-.34.05-.16.04-.33.07-.5.1-.05-.02-.08-.06-.1-.1-.03.05-.07.09-.13.1-.09-.04-.16-.11-.21-.21-.06.09-.06.19,0,.29-.19,0-.34.06-.47.18-.1-.13-.19-.11-.26.05-.08.05-.17.07-.26.05.01.06,0,.11-.05.16-.07-.14-.19-.22-.34-.26-.07.06-.13.06-.21,0-.05.03-.09.06-.13.1-.09-.06-.18-.09-.29-.1-.23.1-.45.18-.68.26-.07-.05-.15-.06-.23-.05v.21c-.11,0-.19-.06-.23-.16-.2.23-.45.37-.76.42-.05,0-.09-.02-.13-.05-.19.22-.29.21-.29-.05-.17-.11-.35-.17-.55-.21,0-.12.06-.2.18-.23-.07-.03-.14-.03-.21-.03-.07-.08-.13-.21-.16-.39.04-.1.09-.2.16-.29-.11-.27-.06-.51.16-.73-.18-.28-.13-.51.16-.68.04.06.07.13.08.21.07-.08.08-.16.03-.23.1-.1.23-.17.37-.21.2-.29.42-.56.65-.81.08-.09.17-.14.29-.16.02-.12.08-.22.16-.31.28-.18.54-.38.78-.6.11-.17.22-.34.34-.5.07-.04.15-.06.23-.08-.05-.04-.06-.08-.03-.13.22-.17.44-.34.65-.52.09-.07.12-.15.1-.23.23-.09.4-.23.52-.44.06-.04.13-.07.21-.08-.04-.05-.06-.11-.05-.18h.21c0-.07.01-.14.05-.21.13-.07.25-.16.37-.26.05-.04.06-.1.05-.16.06.01.11,0,.16-.05,1.9-2.23,3.92-4.3,6.05-6.21.15-.31.37-.55.68-.7-.04-.06-.03-.12.03-.18.18-.11.31-.27.39-.47.09-.04.18-.09.26-.16.17-.23.35-.45.52-.68.06.07.11.06.16-.03-.05-.04-.06-.08-.03-.13.16-.15.34-.29.52-.42.22-.24.42-.5.6-.78.08-.1.19-.15.31-.16v-.16c.13.02.16-.01.1-.1.38-.39.79-.76,1.23-1.1.03.03.06.04.1.05.2-.06.4-.11.6-.13.09-.14.2-.27.31-.39.08.04.17.06.26.05v-.16c.17-.02.32,0,.47.05ZM33.23,15.22c0,.08-.04.11-.1.08.03-.04.06-.06.1-.08ZM66.27,50.87c.21.1.2.17-.03.21,0-.07,0-.14.03-.21ZM52.02,65.69c.05.06.04.13-.03.21-.1-.08-.09-.15.03-.21Z"/>
        <path class="cls-90" d="M19.41,17.15c.07-.15.12-.31.16-.47-.07-.19-.15-.37-.26-.55.06-.06.12-.13.16-.21-.13-.07-.27-.11-.42-.13.12-.09.26-.11.42-.08.07.18.16.34.29.5.03.07.03.14,0,.21-.02-.02-.03-.03-.05-.05-.01.08-.04.16-.08.23.1.08.12.17.08.29-.09.1-.19.19-.29.26Z"/>
        <path class="cls-139" d="M18.47,16.53c.02-.17.09-.31.21-.42.1-.03.19-.07.29-.1.06.08.13.14.23.16.1.2.19.41.26.63-.07.21-.21.35-.42.42-.06-.02-.06-.04,0-.08-.1-.01-.18-.05-.23-.13-.18.15-.29.11-.34-.13.06-.11.06-.22,0-.34Z"/>
        <path class="cls-2" d="M19.04,15.8c.15.02.29.06.42.13-.04.08-.09.15-.16.21.11.17.2.36.26.55-.04.16-.09.32-.16.47l-.16.16c-.05,0-.1-.01-.13-.05-.09.06-.19.12-.29.16-.08-.08-.21-.15-.37-.21-.11-.22-.11-.44,0-.68.06.12.06.23,0,.34.05.24.16.28.34.13.06.08.14.12.23.13-.06.03-.06.06,0,.08.21-.07.35-.21.42-.42-.07-.22-.16-.42-.26-.63-.1-.02-.18-.07-.23-.16-.09.04-.19.07-.29.1.07-.16.19-.27.37-.31Z"/>
        <path class="cls-134" d="M33.76,17.21s0-.07.03-.1c.04.05.03.08-.03.1Z"/>
        <path class="cls-125" d="M33.7,17.21h.05s-.03.03-.05,0Z"/>
        <path class="cls-131" d="M49.62,25.66c.13.05.27.09.42.13.04.06.08.12.1.18-.07.17-.14.33-.21.5-.15.02-.29.08-.39.18-.09-.06-.19-.12-.29-.16-.12.05-.22.12-.31.21-.07-.06-.13-.13-.18-.21-.16.12-.29.27-.39.44-.07.03-.14.03-.21.03.01.08,0,.15-.05.21-.48.22-.97.43-1.46.63-.13-.07-.22-.03-.26.13-.2.07-.37.17-.52.31-.14.03-.28.03-.42.03,0,.11,0,.21-.03.31-.02.02-.05.04-.08.05-.21-.16-.42-.33-.63-.5-.05-.03-.1-.03-.16,0-.1.08-.14.16-.1.26-.25.05-.48.13-.7.23-.02.08,0,.15.08.21-.09.19-.16.38-.23.57-.07.02-.15.02-.23,0,.04.26-.07.41-.31.47-.06.07-.11.15-.16.23-.15.02-.3.04-.44.08-.15-.07-.29-.15-.42-.26-.07,0-.11.04-.13.1-.1.05-.2.07-.31.05v-.16c-.17.01-.34,0-.5-.05-.15.23-.27.47-.37.73-.09.04-.17.1-.23.18-.04.19-.09.37-.16.55,0,.06.03.11.05.16-.11.27-.25.53-.42.76-.24.04-.46.13-.65.29-.2-.1-.4-.08-.6.05-.04.19-.14.35-.31.5-.11.06-.22.09-.31.1.08.09.15.19.21.29-.07.09-.14.17-.21.26.07.08.07.16,0,.23-.12.02-.22.08-.31.16-.29-.02-.53.07-.73.26-.12.04-.24.08-.37.1-.07.24-.18.46-.34.65-.24.02-.47.02-.7,0-.06.05-.06.09,0,.13l-.1.1c.1,0,.2-.02.31-.03-.04.18-.04.38,0,.57-.07,0-.14-.01-.21-.05l-.05.05c.07.06.1.13.08.21-.21.15-.37.34-.47.57-.24.16-.47.33-.68.52-.12.14-.14.28-.08.44-.02.06-.04.12-.08.18-.13.04-.26.08-.39.13-.21.2-.36.43-.47.7-.21.08-.42.15-.63.21.22.27.16.44-.18.52l-.05-.05c-.08.11-.14.23-.18.37-.27.15-.55.22-.84.21.08-.18.07-.37-.03-.57-.04.05-.09.1-.13.16-.14-.27-.26-.55-.37-.84-.17-.04-.34-.09-.5-.16-.07.01-.12.05-.16.1-.08-.14-.19-.26-.31-.37-.03-.05-.03-.1-.03-.16.26-.04.52-.08.78-.1,0-.07,0-.13-.05-.18-.1-.05-.2-.09-.31-.1-.24-.23-.5-.43-.78-.6-.1.03-.17.1-.21.21-.11.04-.23.07-.34.1-.01.09.01.17.08.23-.02,0-.03.02-.05.03-.2-.35-.47-.65-.81-.89-.3.07-.61.07-.91,0-.11.12-.24.21-.39.26-.08.17-.14.34-.18.52-.16-.03-.29.04-.37.21.2.06.35.18.47.34-.04.05-.1.08-.16.1-.21.03-.42.03-.63.03.12.37-.02.53-.42.5-.02-.32-.02-.64,0-.97.25-.01.3-.12.16-.31-.03,0-.05.02-.05.05-.1.01-.17-.02-.21-.1.1-.09.18-.2.23-.31.05-.38.02-.75-.08-1.12.08-.43.05-.86-.08-1.28-.06-.03-.12-.06-.18-.1-.02-.12-.08-.22-.16-.31.01-.03.03-.06.05-.08-.08-.01-.14-.04-.21-.08-.09-.14-.18-.29-.26-.44-.83-.38-1.68-.71-2.56-.99-.88-.05-1.76-.02-2.64.08-.03-.03-.06-.04-.1-.05-.95.11-1.91.28-2.9.52-.11-.01-.21-.04-.31-.08.09-.02.14-.07.16-.16-.18-.13-.19-.28-.05-.44.19-.08.37-.19.52-.34.58-.56,1.17-1.1,1.77-1.64.06-.08.09-.17.1-.26,1.39-1.4,2.81-2.78,4.25-4.12.94-1.13,1.92-2.19,2.92-3.18.45-.45.94-.9,1.46-1.36,1.28-1.48,2.54-2.92,3.78-4.33.1-.07.21-.14.31-.21.13.07.25.16.37.26-.07.58-.16,1.16-.29,1.72-.13.07-.14.13-.03.18-.06.04-.06.08,0,.13-.04.17-.09.34-.16.52.01.5.01,1,0,1.49.03.04.06.08.08.13.01.47.1.92.26,1.36.25.48.56.92.94,1.3.46.41.94.8,1.44,1.17.7.39,1.44.53,2.22.44.51-.05,1.01-.16,1.51-.31.13.07.26.07.39,0,.04.09.1.13.18.1.12-.05.22-.12.31-.21.09,0,.1.04.03.1.18.09.28.03.31-.16.14,0,.28.01.42.05.17-.12.35-.13.55-.05.25-.05.5-.09.76-.1,0-.14.07-.21.21-.21.12.04.21.11.29.21.13-.06.24-.14.34-.23.21-.01.42-.04.63-.08.1.04.17.11.21.21.12-.21.24-.21.37,0,.08.05.17.07.26.05,0-.19.08-.25.26-.18.03.05.06.09.1.13.07-.12.17-.2.29-.26.23,0,.42.08.55.26.06-.07.13-.12.21-.16.13.01.18.08.16.21.23-.02.45.01.65.1.39-.08.78-.13,1.17-.16.15.12.32.14.5.05.66.1,1.33.2,2.01.29.12.06.24.1.37.13Z"/>
        <path class="cls-161" d="M18.47,17.21c.16.06.28.13.37.21.1-.04.2-.09.29-.16.04.04.08.06.13.05-.31.37-.57.33-.78-.1Z"/>
        <path class="cls-137" d="M16.53,20.02c.05.04.11.08.18.1.32-.11.61-.06.89.16.03-.03.06-.04.1-.05l.86.47c.11.21.26.38.44.52.07.18.16.36.26.52,0,.19.06.36.18.5-.06.14-.04.28.05.42-.03.24-.08.47-.13.7-.13.26-.29.5-.47.73-.06-.04-.12-.03-.18.03-.25.29-.56.47-.94.52-.12.16-.27.22-.44.18-.17.1-.34.19-.52.26-.24-.06-.49-.11-.73-.16-.08.04-.13,0-.16-.1-.02.02-.03.03-.05.05-.34-.2-.66-.45-.94-.73-.09-.24-.22-.46-.39-.65,0-.23-.07-.46-.21-.68.03-.31.09-.67.18-1.07.14-.39.33-.75.55-1.1.26-.19.54-.34.84-.44.23-.03.43-.09.63-.18Z"/>
        <path class="cls-34" d="M16.64,20.55c.11.09.23.15.37.18.03.04.06.08.08.13.04.23.03.45-.03.68-.05.15-.14.27-.26.37.02-.14.07-.28.16-.39-.08-.25-.14-.5-.21-.76-.09,0-.16-.03-.21-.1-.04.05-.07.1-.08.16-.08-.07-.16-.07-.23,0-.04.03-.09.03-.16,0,.18-.11.37-.19.57-.26Z"/>
        <path class="cls-116" d="M15.28,21.75c.03-.1.1-.17.21-.21.06-.16.16-.29.31-.39.05-.03.09-.02.13.03.02-.05.03-.1.05-.16.09.03.18.03.29,0,.04.23.01.45-.08.68-.05.04-.11.06-.18.05-.04.17-.11.32-.21.47-.04.08-.1.13-.18.16-.1-.08-.21-.14-.34-.18.01-.14.01-.28,0-.44Z"/>
        <path class="cls-4" d="M16.07,20.81c.07.03.12.03.16,0,.12.04.24.05.37.05.02.26.04.52.08.78-.11.16-.21.33-.29.52-.12.06-.22.15-.29.26-.02-.02-.03-.03-.05-.05-.04.05-.09.1-.13.16-.12-.14-.23-.14-.34,0-.08-.13-.15-.13-.21,0-.15-.13-.23-.29-.23-.5.01-.13.06-.22.16-.29.01.16.01.31,0,.44.13.04.24.1.34.18.08-.03.14-.08.18-.16.1-.15.17-.3.21-.47.07,0,.13,0,.18-.05.09-.22.12-.45.08-.68-.1.03-.2.03-.29,0-.02.05-.03.1-.05.16-.04-.05-.08-.06-.13-.03-.15.1-.26.23-.31.39-.01-.15.04-.28.16-.37.07-.19.21-.32.42-.37Z"/>
        <path class="cls-104" d="M16.64,20.55c.35-.11.59.02.73.39-.11.07-.13.16-.05.26-.25.59-.58,1.13-.99,1.62-.09.09-.19.13-.31.13.14-.16.29-.32.44-.47.11-.19.23-.38.34-.57.12-.09.21-.21.26-.37.06-.22.07-.45.03-.68-.02-.05-.05-.09-.08-.13-.14-.03-.26-.09-.37-.18Z"/>
        <path class="cls-164" d="M16.8,21.9c-.11.19-.23.38-.34.57-.16.15-.31.31-.44.47-.14.07-.27.1-.39.1-.06-.06-.09-.13-.08-.21-.25.01-.37-.11-.37-.37h-.16c-.04-.48.1-.89.42-1.23.06-.04.13-.07.21-.08-.12.09-.17.21-.16.37-.1.03-.17.1-.21.21-.09.06-.15.16-.16.29,0,.2.09.37.23.5.06-.13.13-.13.21,0,.11-.14.22-.14.34,0,.04-.05.09-.1.13-.16.02.02.03.03.05.05.07-.11.17-.2.29-.26.08-.19.18-.36.29-.52-.04-.27-.06-.53-.08-.78-.13,0-.25-.01-.37-.05.07-.07.15-.07.23,0,.01-.06.04-.11.08-.16.05.07.12.11.21.1.06.25.13.51.21.76-.09.12-.14.25-.16.39Z"/>
        <path class="cls-141" d="M15.02,22.48h.16c0,.25.12.38.37.37,0,.08.02.15.08.21.13,0,.26-.04.39-.1-.06.2-.2.28-.42.23-.14-.19-.31-.29-.52-.29-.05-.13-.06-.27-.05-.42Z"/>
        <path class="cls-138" d="M49.62,25.66c.21,0,.42,0,.63.03.03.07.08.11.16.13.17-.05.35-.06.52-.03.2.23.44.31.73.23.15.05.31.1.47.13.08.09.12.18.13.29.09-.03.17-.07.26-.1.23.23.5.35.84.37.1-.06.2-.13.29-.21.13.02.23.08.31.18.17.05.35.08.52.1.15.2.31.38.5.55.1-.09.2-.18.29-.29.15-.03.24.03.26.18-.03.09-.07.17-.1.26.03.08.08.14.16.18.19.05.37.11.55.18.13-.04.24-.11.34-.21.04.17.07.35.08.52.55.35,1.07.75,1.54,1.2.13-.13.27-.23.42-.31.15.03.22.11.21.26.1-.01.18.02.23.1.03.13,0,.26-.08.37.08.18.13.37.16.57.38.18.72.4,1.04.65.14.03.28.06.42.08v.21c-.09-.01-.18,0-.26.05.17.05.34.07.52.05.01.13,0,.25-.05.37.08.1.17.19.29.26.05.17.08.35.1.52.14.04.29.07.44.08l.08.08c.01.16-.02.3-.1.42.17.06.26.19.26.37.31.28.58.58.81.91-.02.07-.05.13-.1.18.07.19.19.24.37.16.08.03.14.08.18.16.05.2.11.39.18.57,0,.06-.03.11-.05.16.09.05.16.12.21.21-.05.07-.06.14-.03.21.32.37.59.77.84,1.2.03.16.03.31,0,.47-.13.03-.25.09-.34.18.18.18.38.33.6.44.16.34.3.68.44,1.02.04.14.04.29,0,.44-.03-.07-.07-.14-.1-.21.06-.25-.03-.4-.26-.47,0-.03.02-.06.05-.08-.04-.11-.07-.22-.08-.34-.04-.07-.1-.1-.18-.1-.04-.06-.08-.13-.1-.21-.19,0-.29-.11-.29-.31-.08-.05-.16-.1-.23-.16h-.05c0-.13-.03-.25-.08-.37-.14.22-.23.2-.26-.05-.03-.04-.08-.06-.13-.05-.12-.05-.17-.13-.16-.26-.07.01-.12,0-.16-.05.01-.06,0-.11-.05-.16-.13-.08-.26-.16-.37-.26,0-.04,0-.07-.03-.1-.05.05-.12.06-.18.03-.08-.09-.17-.17-.26-.23-.07.07-.14.07-.21,0-.04.03-.06.06-.08.1-.09-.08-.19-.15-.29-.21h-.05s-.06-.06-.1-.08c-.3-.03-.59-.03-.89-.03.01.23-.06.26-.21.1-.08-.04-.16-.08-.26-.1-.24.06-.47.15-.68.26-.05,0-.09,0-.1.05-.07,0-.14,0-.21.03-.16.13-.33.23-.52.29.01.07,0,.12-.05.16-.05.06-.09.06-.13,0-.09.14-.2.25-.34.34-.17,0-.29.08-.37.26-.07.02-.13.04-.18.08-.02.1-.06.19-.13.26-.03,0-.05.02-.05.05-.08,0-.14.04-.18.1-.04.16-.09.31-.13.47-.14.03-.28.07-.42.1v.16c-.03.07-.09.12-.16.16-.09.06-.12.15-.1.26h-.21c0,.08-.01.15-.05.21-.05,0-.09,0-.1.05-.17.02-.29.12-.37.29-.3.11-.49.32-.57.63-.07.03-.14.03-.21.03-.11.16-.25.28-.42.37-.12.02-.19.09-.21.21-.12.04-.17.13-.16.26-.1-.02-.17.02-.21.1-.12.03-.21.1-.26.21-.15.05-.22.16-.21.31-.13.06-.27.1-.42.13-.08.05-.15.11-.21.18-.13.01-.18.08-.16.21-.26-.03-.31.05-.16.23-.16.04-.32.03-.47-.03-.07.06-.13.13-.16.21-.18-.02-.32.03-.42.16-.19.02-.34.08-.47.21h-.05c-.22,0-.36.11-.42.31h-.16c-.1-.09-.23-.15-.39-.16-.07.02-.13.06-.18.1,0-.05-.01-.1-.05-.13-.22-.02-.43-.08-.63-.18-.03,0-.05.02-.05.05-.07.05-.14.1-.21.16.02-.1.07-.18.16-.23-.09-.03-.17-.03-.26-.03-.12-.04-.23-.09-.34-.16-.07,0-.11.04-.13.1-.15.02-.27-.02-.37-.13.02-.02.04-.05.05-.08-.06-.05-.13-.07-.21-.05-.11-.05-.23-.05-.37,0v-.16c-.31-.04-.61-.13-.89-.26-.16-.03-.31-.07-.47-.1-.17-.06-.32-.15-.47-.26-.15.08-.28.06-.39-.05-.03.05-.03.1-.03.16-.1-.08-.18-.17-.26-.26h-.05s-.02-.06-.05-.08c-.18-.08-.38-.12-.57-.13-.09-.04-.2-.07-.31-.08-.09-.13-.19-.15-.31-.08-.23-.03-.46-.08-.68-.16-.14-.08-.3-.12-.47-.1,0-.03-.02-.06-.05-.08-.1-.03-.21-.03-.31-.03h-.05c-.35-.1-.72-.16-1.1-.16-.44-.08-.9-.13-1.36-.16-.36-.04-.72-.07-1.1-.1-.07.02-.14.04-.21.05-.06-.04-.13-.06-.21-.05-.52-.04-1.04-.06-1.57-.05.01.06,0,.11-.05.16-.17-.09-.35-.14-.55-.16-.06,0-.1.02-.13.05h-.1c-.36-.03-.71,0-1.04.1-.17-.02-.32,0-.47.05-.14,0-.28.01-.42.05h-.16c-.24-.02-.47.02-.68.1-.14-.02-.26.02-.37.1-.16-.01-.3.02-.42.1-.09.08-.15.06-.18-.05-.08.09-.17.12-.29.1v.16c-.08,0-.16-.02-.23-.05-.22,0-.31.1-.29.31-.18-.03-.36-.03-.52,0-.19.13-.4.24-.63.31-.26.12-.5.26-.73.42v.05c-.07.03-.12.08-.16.16-.04-.05-.07-.1-.08-.16-.02.05-.05.09-.08.13-.13.02-.24.08-.31.18h-.05c-.08.03-.15.08-.21.16-.12.04-.23.11-.31.21-.15.03-.22.11-.21.26-.12.04-.24.09-.37.13-.04.06-.08.12-.1.18-.07.02-.11.08-.1.16-.23.06-.4.2-.52.42-.11.05-.21.11-.31.18-.1.16-.22.29-.37.39-.08.12-.19.24-.31.34.05.03.11.05.16.08v.1c-.27-.08-.32-.23-.16-.44-.14-.15-.21-.33-.21-.55.03-.13.09-.22.21-.29-.12-.07-.16-.16-.13-.29.11-.06.18-.15.23-.26-.27-.11-.31-.26-.1-.44-.12-.02-.19-.09-.21-.21.07-.17.07-.35,0-.52.09-.13.18-.26.26-.39-.09-.11-.16-.23-.21-.37.12-.19.21-.4.26-.63,0-.06-.03-.11-.05-.16.05-.04.08-.1.1-.16-.05-.09-.08-.19-.1-.29.02-.1.06-.2.1-.29-.04-.14-.06-.28-.05-.42h.16c0-.13-.03-.24-.1-.34.06-.13.13-.26.21-.39-.02-.07-.05-.11-.1-.13.07-.08.11-.18.1-.29-.19-.04-.19-.11,0-.21-.07-.29-.02-.55.16-.78,0-.03.02-.05.05-.05.15.19.09.3-.16.31-.02.32-.02.65,0,.97.39.04.53-.13.42-.5.21,0,.42,0,.63-.03.06-.02.11-.06.16-.1-.12-.16-.27-.28-.47-.34.08-.17.2-.24.37-.21.05-.18.11-.35.18-.52.15-.05.28-.14.39-.26.31.07.61.07.91,0,.34.24.61.54.81.89.02,0,.03-.02.05-.03-.07-.07-.09-.15-.08-.23.11-.03.23-.07.34-.1.03-.1.1-.17.21-.21.28.17.54.37.78.6.11.02.21.05.31.1.04.05.06.11.05.18-.26.03-.52.06-.78.1,0,.05,0,.11.03.16.12.11.23.23.31.37.04-.06.09-.09.16-.1.16.07.33.12.5.16.11.29.23.57.37.84.04-.05.09-.1.13-.16.09.2.1.4.03.57.29,0,.57-.06.84-.21.04-.13.1-.26.18-.37l.05.05c.34-.08.4-.25.18-.52.21-.06.42-.13.63-.21.1-.27.26-.5.47-.7.13-.05.26-.09.39-.13.03-.06.06-.12.08-.18-.06-.16-.04-.31.08-.44.21-.19.44-.37.68-.52.1-.23.26-.43.47-.57.02-.08,0-.15-.08-.21l.05-.05c.06.04.13.06.21.05-.04-.2-.04-.39,0-.57-.11.01-.21.02-.31.03l.1-.1c-.06-.04-.06-.08,0-.13.23.02.47.02.7,0,.16-.19.27-.41.34-.65.12-.03.25-.06.37-.1.2-.2.44-.28.73-.26.09-.08.19-.13.31-.16.07-.08.07-.15,0-.23.07-.09.14-.17.21-.26-.06-.1-.13-.2-.21-.29.1-.01.2-.05.31-.1.17-.15.28-.31.31-.5.2-.14.4-.15.6-.05.19-.15.41-.25.65-.29.17-.23.31-.48.42-.76-.03-.05-.04-.1-.05-.16.07-.18.12-.36.16-.55.06-.08.14-.14.23-.18.09-.26.21-.5.37-.73.16.05.32.07.5.05v.16c.11.02.21,0,.31-.05.02-.06.06-.1.13-.1.13.11.26.19.42.26.15-.04.29-.06.44-.08.05-.08.1-.16.16-.23.25-.06.35-.21.31-.47.09.02.17.02.23,0,.07-.2.15-.39.23-.57-.07-.06-.1-.13-.08-.21.22-.11.46-.19.7-.23-.03-.1,0-.18.1-.26.05-.03.1-.03.16,0,.21.17.42.33.63.5.03-.01.06-.03.08-.05.03-.1.03-.21.03-.31.14,0,.28,0,.42-.03.15-.14.32-.25.52-.31.04-.16.13-.2.26-.13.5-.19.98-.4,1.46-.63.05-.06.07-.13.05-.21.07,0,.14,0,.21-.03.1-.18.23-.32.39-.44.05.08.11.15.18.21.09-.09.2-.16.31-.21.1.04.2.09.29.16.11-.1.24-.16.39-.18.07-.16.14-.33.21-.5-.03-.07-.06-.13-.1-.18-.15-.04-.29-.08-.42-.13Z"/>
        <path class="cls-92" d="M19.04,30.36c-.01.09-.05.18-.1.26-.6.54-1.19,1.09-1.77,1.64-.15.15-.33.26-.52.34.79-.77,1.59-1.52,2.4-2.24Z"/>
        <path class="cls-88" d="M60.11,36.31c-.18-.01-.28.07-.29.26-.08-.13-.14-.13-.18,0-.12-.02-.21.01-.26.1-.04-.04-.07-.09-.08-.16-.03-.04-.08-.06-.13-.05.21-.11.44-.2.68-.26.1.03.18.06.26.1Z"/>
        <path class="cls-9" d="M61.31,36.31c-.19,0-.38-.02-.57-.05,0,.18.04.34.16.47-.1-.02-.17.02-.21.1-.08-.04-.12-.11-.1-.21-.14,0-.21.07-.21.21-.09-.08-.2-.13-.31-.16,0,.09,0,.18.03.26.09-.03.18-.03.29,0,.15.01.17.07.08.16-.14-.04-.29-.06-.44-.05.03-.17-.02-.3-.13-.42,0,.12.03.24.08.37-.02.16-.1.23-.26.21-.11,0-.18-.06-.21-.16.07,0,.11-.04.13-.1.05.06.09.13.1.21.02-.13.04-.25.08-.37-.03-.08-.08-.15-.16-.21.04-.13.1-.13.18,0,0-.19.1-.27.29-.26.15.16.22.12.21-.1.3,0,.59,0,.89.03.05.01.08.04.1.08Z"/>
        <path class="cls-123" d="M61.36,36.31c.1.06.19.13.29.21.02-.04.04-.08.08-.1.07.07.14.07.21,0,.09.07.18.15.26.23.07.04.13.03.18-.03.02.03.03.07.03.1.01.09.05.18.1.26.11-.07.16-.04.16.1h-.21v.26h-.26c.04-.14.05-.28.03-.42-.09-.13-.2-.25-.31-.37-.07.04-.12.1-.13.18.07.19.11.39.1.6-.11,0-.21,0-.31-.03.09-.17.12-.35.08-.55-.07-.18-.17-.33-.29-.47Z"/>
        <path class="cls-38" d="M59.07,36.52c-.07.1-.12.22-.16.34-.19,0-.38,0-.57-.03.19-.06.36-.16.52-.29.07-.03.14-.03.21-.03Z"/>
        <path class="cls-143" d="M62.41,36.72c.11.1.23.19.37.26.05.04.06.1.05.16-.05-.03-.1-.05-.16-.05,0-.14-.05-.18-.16-.1-.06-.08-.09-.17-.1-.26Z"/>
        <path class="cls-109" d="M59.07,36.52s.05-.06.1-.05c.05,0,.1.01.13.05.01.06.04.12.08.16,0,.13.03.26.1.37-.07-.04-.13-.04-.18,0-.04.1-.07.21-.08.31-.21-.05-.3-.19-.26-.42.08,0,.15.03.18.1.08-.05.12-.12.13-.21-.02-.14-.09-.25-.21-.31Z"/>
        <path class="cls-76" d="M64.23,39.02s.09.06.16.05c0,.15.08.25.21.31-.02.11-.05.21-.1.31-.03-.01-.06-.03-.08-.05,0,.16,0,.31,0,.47-.32.08-.39.25-.23.52-.13.08-.19.21-.18.37-.02-.02-.05-.04-.08-.05-.15.23-.19.47-.1.73-.1-.03-.18-.03-.26,0,.03.03.07.07.1.1-.12.11-.13.23-.05.37-.2.03-.24.11-.1.23-.08.05-.17.08-.26.08-.15.28-.33.54-.52.78-.47.16-.92.34-1.36.55-.17.12-.34.23-.52.34-.07-.05-.11-.1-.13-.16-.31.13-.63.16-.97.1-.17.08-.36.13-.55.16-.04-.03-.08-.05-.13-.05-.31.04-.61.09-.91.16-.15,0-.29-.03-.42-.1-.03.05-.03.1-.03.16-.15-.03-.29-.08-.42-.16-.26.09-.52.07-.76-.05-.12.14-.24.14-.37,0-.4.12-.8.12-1.2,0-.23.12-.41.06-.52-.16-.23.04-.48.04-.73,0-.07.02-.13.06-.18.1-.48-.24-.97-.3-1.49-.16-.09-.03-.15-.09-.18-.18-.16,0-.3-.05-.42-.13.18-.05.34-.05.5,0,.07-.05.14-.1.21-.16.13.08.22.04.26-.1.02.02.03.03.05.05.03-.09.03-.17.03-.26.21-.03.42-.04.63-.03-.03-.02-.07-.03-.1-.05.07-.11.14-.22.21-.34.06.06.1.13.13.21.13-.14.14-.27.03-.39.06-.05.11-.11.13-.18.07.03.12.09.16.16.04-.08.03-.16-.03-.23.12-.07.22-.15.31-.26.1-.06.2-.08.31-.08v-.16h.31c0-.11.04-.22.1-.31,0-.05-.02-.08-.05-.1v-.16c-.14.02-.28.03-.42.05-.08-.05-.15-.12-.21-.21.03-.12.09-.22.16-.31h.31c.09,0,.18,0,.26-.03.05-.08.1-.16.16-.23.06.06.13.11.21.13.05.11.12.21.21.29.35-.18.67-.4.94-.68.02-.1.07-.18.16-.23-.2-.12-.38-.1-.52.08-.18-.06-.3-.18-.37-.37.05-.1.12-.19.21-.26.02-.04.05-.06.1-.05.15-.07.3-.1.47-.1v-.16c.06-.09.1-.2.1-.31.15.07.31.14.47.21-.03.05-.06.09-.1.13.15.1.31.1.47,0,.08-.12.17-.23.26-.34-.01-.27-.15-.39-.42-.37v-.26c.1,0,.19-.03.26-.1.04-.16.07-.31.1-.47.12-.05.22-.12.31-.21v.16c.14.02.28.05.42.08-.02.02-.03.03-.05.05.1.01.17.06.23.13.11-.09.24-.13.39-.1-.01-.09,0-.16.05-.23-.41-.09-.46-.27-.16-.55.04.05.07.1.08.16.05-.06.09-.06.13,0-.01.03-.03.06-.05.08.06.09.11.19.16.29.33-.21.7-.31,1.1-.31.1,0,.19.03.26.1.04.17.15.25.31.26.04-.17.14-.31.29-.42.14.09.29.17.44.23.11.38.29.43.55.13.06.05.11.05.16,0,.15.09.16.18.03.29.05.02.09.05.13.08.18-.16.35-.12.52.1.01-.1.05-.19.1-.26.17.1.3.23.37.37.02-.02.05-.04.08-.05.06.07.13.13.21.18-.11.08-.12.18-.05.29.04-.02.09-.04.13-.05.09.11.19.19.31.26.02.07.04.13.08.18.1.02.19.06.26.13Z"/>
        <path class="cls-153" d="M61.31,36.31h.05c.12.14.22.29.29.47.04.19.02.38-.08.55.1.03.21.03.31.03,0-.21-.03-.41-.1-.6.01-.08.06-.14.13-.18.12.11.22.23.31.37.02.14.01.28-.03.42h.26v-.26h.21c.06,0,.11.02.16.05.04.05.09.06.16.05-.01.13.04.21.16.26-.05.26.05.37.31.31v.16h.21c.01.12.06.23.16.31-.03.04-.06.06-.1.08.15.07.3.1.47.08.03.08.06.15.1.21,0,.05,0,.09.05.1-.03.1-.07.21-.1.31-.07-.07-.16-.11-.26-.13-.04-.06-.06-.12-.08-.18-.12-.07-.22-.16-.31-.26-.05.01-.09.03-.13.05-.07-.11-.05-.21.05-.29-.08-.06-.15-.12-.21-.18-.03.01-.06.03-.08.05-.07-.14-.19-.26-.37-.37-.06.08-.09.16-.1.26-.17-.23-.34-.26-.52-.1-.04-.03-.08-.06-.13-.08.14-.1.13-.2-.03-.29-.04.05-.1.05-.16,0-.25.3-.44.25-.55-.13-.15-.07-.3-.15-.44-.23-.15.11-.25.25-.29.42-.17,0-.27-.1-.31-.26-.07-.07-.16-.11-.26-.1-.4,0-.76.1-1.1.31-.05-.1-.1-.19-.16-.29.02-.02.04-.05.05-.08-.04-.06-.08-.06-.13,0-.01-.06-.04-.11-.08-.16-.3.28-.25.46.16.55-.05.07-.06.15-.05.23-.15-.02-.28.01-.39.1-.06-.07-.14-.12-.23-.13.02-.02.03-.03.05-.05-.14-.03-.28-.06-.42-.08v-.16h.21c.02-.19.12-.3.31-.31v-.16s.06-.09.05-.16c.19.02.38.03.57.03.03-.12.09-.24.16-.34.11.07.18.17.21.31-.01.09-.05.16-.13.21-.04-.08-.1-.11-.18-.1-.04.22.05.36.26.42,0-.11.04-.21.08-.31.05-.04.11-.04.18,0,.03.1.1.15.21.16.16.02.25-.05.26-.21-.05-.12-.07-.24-.08-.37.11.11.16.25.13.42.15,0,.3,0,.44.05.09-.09.07-.14-.08-.16v-.1c0-.14.07-.21.21-.21-.01.1.02.17.1.21.03,0,.05.02.05.05.13.08.28.15.44.21.04-.22-.06-.34-.29-.37-.11-.13-.17-.29-.16-.47.19.03.38.05.57.05Z"/>
        <path class="cls-156" d="M60.37,36.83v.1c-.1-.03-.2-.03-.29,0-.03-.09-.03-.17-.03-.26.12.03.22.08.31.16Z"/>
        <path class="cls-54" d="M59.38,36.67c.07,0,.14,0,.21.03-.08.06-.07.1.03.13.06-.03.12-.04.18-.05-.04.12-.06.24-.08.37-.02-.08-.05-.15-.1-.21-.02.07-.07.1-.13.1-.08-.11-.11-.23-.1-.37Z"/>
        <path class="cls-80" d="M60.89,36.72c.23.03.32.15.29.37-.16-.06-.31-.12-.44-.21.12.06.18,0,.16-.16Z"/>
        <path class="cls-112" d="M60.89,36.72c.02.16-.03.21-.16.16,0-.03-.02-.05-.05-.05.04-.09.11-.12.21-.1Z"/>
        <path class="cls-79" d="M59.64,36.57c.07.05.12.12.16.21-.06,0-.12.03-.18.05-.1-.03-.1-.07-.03-.13-.07-.03-.14-.03-.21-.03.05-.09.14-.13.26-.1Z"/>
        <path class="cls-45" d="M63.14,37.46c.05,0,.1.01.13.05.03.26.12.27.26.05.05.12.08.24.08.37h-.16v-.16c-.26.05-.37-.05-.31-.31Z"/>
        <path class="cls-29" d="M58.28,36.99v.16c-.19.02-.3.12-.31.31h-.21c-.09.09-.19.16-.31.21-.09.05-.13.14-.1.26h-.21c.07-.07.11-.16.13-.26.06-.04.12-.06.18-.08.08-.18.2-.27.37-.26.14-.09.25-.2.34-.34.04.06.08.06.13,0Z"/>
        <path class="cls-71" d="M63.66,37.92c.07.06.15.11.23.16,0,.2.1.3.29.31-.17.02-.32,0-.47-.08.04-.02.08-.04.1-.08-.09-.09-.14-.19-.16-.31Z"/>
        <path class="cls-24" d="M57.08,37.98c-.09.19-.14.4-.16.63-.09-.01-.18,0-.26.05.09.09.07.14-.05.16-.09-.06-.18-.06-.26,0v-.16c.14-.03.28-.07.42-.1.04-.16.09-.31.13-.47.04-.07.1-.1.18-.1Z"/>
        <path class="cls-121" d="M64.29,38.6c.08,0,.14.04.18.1.01.12.04.23.08.34-.03.02-.05.05-.05.08-.04-.14-.09-.28-.16-.42-.04-.02-.06-.05-.05-.1Z"/>
        <path class="cls-105" d="M57.45,37.66c-.03.16-.07.31-.1.47-.07.08-.16.11-.26.1v.26c.27-.02.41.1.42.37-.09.11-.18.22-.26.34-.16.1-.32.1-.47,0,.04-.04.08-.08.1-.13-.16-.07-.32-.14-.47-.21,0,.12-.04.22-.1.31-.08-.04-.12-.11-.1-.21.07-.03.12-.09.16-.16.08-.06.17-.06.26,0,.12-.02.14-.07.05-.16.08-.05.17-.07.26-.05.01-.22.07-.43.16-.63,0-.03.02-.05.05-.05h.21c-.02-.12.01-.21.1-.26Z"/>
        <path class="cls-114" d="M64.34,38.71c.07.14.12.27.16.42.23.07.32.22.26.47-.03-.09-.08-.16-.16-.21-.13-.06-.2-.17-.21-.31-.07.01-.12,0-.16-.05.03-.1.07-.21.1-.31Z"/>
        <path class="cls-119" d="M56.2,38.97c-.01.1.02.17.1.21v.16c-.16,0-.32.04-.47.1.04-.06.06-.13.05-.21h.21c-.02-.11.02-.2.1-.26Z"/>
        <path class="cls-50" d="M55.73,39.49c-.09.07-.16.16-.21.26.06.18.19.31.37.37.15-.18.32-.2.52-.08-.08.06-.14.13-.16.23-.27.28-.59.5-.94.68-.09-.08-.16-.18-.21-.29-.08-.02-.15-.07-.21-.13-.06.07-.11.15-.16.23-.09.03-.17.03-.26.03.07-.11.11-.23.1-.37.07,0,.14,0,.21-.03.08-.31.27-.52.57-.63.07-.17.19-.26.37-.29Z"/>
        <path class="cls-128" d="M55.88,40.12c.1-.02.21-.03.31-.05,0,.22-.09.29-.29.21-.07.09-.16.16-.26.21-.05-.03-.09-.06-.13-.1.15-.05.27-.14.37-.26Z"/>
        <path class="cls-56" d="M64.86,40.33s.09.1.13.16c.02-.02.05-.04.08-.05.1.17.12.34.05.52.05.07.1.14.16.21-.03.05-.07.1-.1.16.17.05.19.12.05.21.08.13.13.27.16.42-.05.03-.1.07-.16.1.25.25.26.52.05.81.08.1.06.19-.05.26.07.03.14.03.21.03.01.16-.06.25-.21.29l.08.08c.03.18.06.34.08.5-.06.16-.15.31-.26.44.05.03.1.07.16.1-.07.12-.07.24,0,.37-.03.05-.06.09-.1.13.08.07.11.15.1.26-.05.53-.12,1.06-.21,1.59.09.09.16.19.21.31-.04.11-.11.2-.21.26.15.19.13.37-.05.52.26.34.17.55-.26.63.09.24.02.41-.21.52.13.07.25.15.37.23.17.26.1.45-.21.55.04.1.06.2.05.31-.15-.01-.29-.04-.42-.1,0,.07-.01.14-.05.21.11,0,.23.02.37.03.03.04.05.08.05.13-.15.4-.33.79-.52,1.17.08.14.11.29.1.44-.17.03-.31-.03-.42-.16-.02.02-.03.03-.05.05-.09.25-.12.51-.1.78.14-.02.21.04.21.18-.02.12-.08.22-.18.29.02.26-.09.45-.31.57-.07.15-.15.3-.23.44-.09.03-.17.03-.26,0-.11-.12-.23-.14-.37-.08.13.03.22.11.26.23-.09.18-.19.34-.31.5-.05.15-.07.3-.05.47-.1-.01-.19,0-.26.05.09.17.07.31-.08.42-.02.12-.03.24-.05.37-.11.05-.21.12-.29.21-.04.38-.21.69-.5.94-.02.1-.03.21-.05.31-.22.08-.42.19-.6.34-.13.21-.27.41-.42.6-.26,0-.5.04-.73.1,0,.23,0,.45-.03.68-.18.16-.37.3-.57.42-.17.19-.3.41-.39.65-.09.02-.17.03-.26.05-.1.1-.21.21-.31.31-.22.1-.45.19-.68.26-.07.06-.12.14-.16.23-.14.02-.26.08-.37.16-.14.05-.27.07-.42.05,0,.09-.03.16-.1.21-.12.04-.24.07-.37.08-.24.33-.51.37-.78.1-.06.13-.04.24.08.34.03.09.03.17,0,.26-.15.08-.3.16-.44.26-.16.16-.36.24-.57.26-.07.08-.16.11-.26.1v-.21c-.21.06-.42.12-.63.16,0,.03-.02.05-.05.05-.25-.04-.37.06-.37.31-.11,0-.19.03-.26.1-.23.1-.45.13-.68.1,0,.07-.01.14-.05.21-.14.06-.28.11-.42.16v-.37c-.07-.01-.12,0-.16.05-.19.04-.24.14-.16.31-.09.09-.22.14-.37.16-.05.08-.11.15-.18.21-.06-.03-.12-.04-.18-.05-.1-.08-.15-.19-.16-.31-.05,0-.11,0-.16.03-.08.17-.22.25-.42.23-.02-.05-.05-.09-.1-.1-.08.12-.15.25-.21.39-.11.02-.22,0-.31-.08-.09.02-.14.07-.16.16-.17.03-.31-.03-.42-.16-.04.02-.06.06-.05.1-.09.24-.23.27-.42.08-.08-.04-.15-.03-.21.03-.45.02-.89.08-1.33.16-.1-.01-.19-.03-.29-.05-.02-.03-.06-.05-.1-.05-.11.07-.23.11-.37.1-.08-.04-.16-.08-.26-.1-.27.24-.58.32-.94.23l-.08-.08c-.07.25-.18.27-.31.05-.05.04-.11.06-.18.05-.02-.03-.06-.05-.1-.05-.2.09-.41.12-.63.1-.05-.06-.12-.1-.21-.1-.07-.05-.14-.1-.21-.16-.08.09-.16.16-.26.21-.03.03-.07.07-.1.1-.04-.15-.12-.18-.23-.1-.08-.03-.16-.06-.23-.1-.16.06-.31.06-.47,0-.05-.18-.17-.27-.37-.26-.15-.02-.29,0-.42.05-.13-.08-.27-.11-.42-.1-.28-.1-.55-.19-.84-.29-.15-.23-.34-.43-.55-.6-.14.07-.22.18-.23.34-.21.07-.39.01-.52-.16-.21-.05-.4-.13-.57-.26-.15-.21-.32-.39-.52-.55-.06-.05-.13-.07-.21-.05.02.1-.02.17-.1.21-.04-.06-.08-.13-.1-.21-.09-.15-.15-.13-.16.05h-.16c-.18-.07-.36-.12-.55-.16-.03-.09-.03-.17,0-.26.18-.17.16-.3-.08-.39-.09-.04-.17-.06-.26-.05.11.24.04.35-.21.31l-.52-.52c-.28-.14-.54-.32-.76-.55-.05.17-.17.24-.34.21-.04-.12-.05-.24-.05-.37v-.16c-.21,0-.42-.02-.63-.08-.08-.14-.18-.25-.31-.34-.09.18-.2.2-.34.05-.02-.14-.03-.28-.05-.42-.02.14-.1.21-.23.21,0-.15-.04-.29-.13-.42-.25-.34-.48-.69-.7-1.04-.19-.03-.37-.08-.55-.16-.07,0-.11.04-.13.1h-.26c.01-.09,0-.18-.05-.26-.09.07-.18.07-.26,0-.06-.08-.05-.17.03-.26.12-.14.24-.28.37-.42.04-.11.03-.21-.03-.31-.14-.1-.3-.16-.47-.18-.04-.17-.13-.3-.29-.39-.16.07-.31.17-.44.29-.16.06-.25,0-.26-.16,0-.09.03-.15.1-.18.11-.05.18-.14.21-.26-.04-.08-.09-.15-.16-.21-.05-.03-.11-.05-.18-.05-.33.16-.41.07-.23-.26,0-.26-.06-.5-.16-.73-.18-.03-.37-.03-.57,0v-.16c.01-.11.07-.18.18-.21.03-.05.03-.1,0-.16-.17-.13-.35-.25-.52-.37-.05-.19-.08-.38-.1-.57-.1-.07-.16-.17-.18-.29.05-.1.11-.19.16-.29-.03-.34-.17-.62-.42-.84.17-.25.12-.34-.16-.26.01-.36-.05-.71-.18-1.04-.05-.11-.12-.19-.21-.26.01-.27-.05-.51-.18-.73.02-.04.04-.08.05-.13-.08-.4-.2-.8-.34-1.17-.04-.55-.12-1.08-.23-1.62.05-.15.06-.31.05-.47-.15.02-.17-.02-.08-.1.03-.18.03-.35-.03-.52.03-.19.07-.38.1-.57-.03-.07-.07-.14-.1-.21.06-.13.06-.25,0-.37v-.26h.16v-.26c.09,0,.18,0,.26-.03.15-.18.29-.36.42-.55.2-.02.32-.12.37-.31.06-.04.11-.07.16-.1,0-.08.03-.13.1-.16.21-.07.4-.17.57-.31.08-.07.11-.16.1-.26.08-.09.19-.16.31-.21h.21v-.16h.31c.14,0,.28,0,.42-.03.03-.07.07-.14.1-.21.19-.02.38-.01.57.03-.03-.17.02-.3.13-.42.1.1.14.22.13.37h.21c0-.17-.06-.33-.16-.47.03-.02.07-.03.1-.05.11.07.23.11.37.1.29-.1.62-.2.99-.29.17-.05.33-.02.47.08.03-.12.1-.19.21-.21.09.03.17.05.26.05v-.16h.31c.18.04.36.07.55.1.39-.15.8-.24,1.23-.26.02-.33.05-.31.1.05.23.03.43-.02.6-.16.18,0,.36,0,.55,0,.11,0,.13-.03.05-.1.03-.02.07-.03.1-.05.13.06.25.06.37,0,.04-.05.09-.1.13-.16.14.02.28.09.42.21.07-.08.06-.17-.03-.26l.05-.05c.13-.02.27-.02.42,0,.02.14-.02.26-.1.37.02.07.06.14.1.21.22-.12.42-.26.6-.42.16.09.28.05.37-.1.03.03.06.04.1.05.23-.06.45-.13.65-.21h.31v.16c.2-.01.4.02.57.1.07-.06.14-.06.21,0-.03.13-.1.26-.21.39.07.14.14.15.21.03.08.18.17.19.26.03l-.05-.05c.21-.03.41-.09.6-.18.1.01.17.07.21.16.21-.14.32-.07.31.21.05.07.12.11.21.1.14-.1.31-.16.5-.18.07-.16.19-.22.37-.18-.05.28.06.37.31.26-.06-.06-.06-.11,0-.16.24.15.41.35.52.6.13.04.25.03.37-.03.11-.13.25-.22.42-.26.04.03.06.06.08.1.12-.05.25-.07.39-.05.04.15.06.31.05.47.23-.1.47-.15.73-.16v.16c.14-.03.28-.05.42-.05.16.03.31.07.47.1,0,.09.03.16.1.21.19.13.4.18.63.16,0,.18.06.2.16.05.13-.05.25-.05.37,0,.04.08.06.17.05.26.13.02.24.07.34.16.07-.03.11-.09.13-.16.02-.06.06-.1.13-.1.11.07.22.12.34.16,0,.07.01.14.05.21-.13.15-.13.28,0,.42.05-.12.07-.24.05-.37.07-.05.14-.1.21-.16.04.04.07.08.1.13.14.03.28.03.42.03.02.23.07.24.13.05.02.03.05.05.08.05,0,.09.04.14.13.16.13-.15.27-.18.44-.1.07.05.16.07.26.05h.26c0,.05,0,.11.03.16.06-.05.09-.1.08-.16.04.03.06.06.08.1.1-.07.19-.07.29,0,.05.03.1.05.16.05.09,0,.18-.02.26-.05.12.08.26.13.42.13.03.09.09.15.18.18.51-.14,1.01-.09,1.49.16.05-.05.12-.08.18-.1.25.04.5.04.73,0,.12.22.29.27.52.16.4.12.8.12,1.2,0,.12.14.24.14.37,0,.24.12.49.14.76.05.13.08.27.13.42.16,0-.05,0-.11.03-.16.13.07.27.11.42.1.3-.07.6-.12.91-.16.05,0,.09.02.13.05.19-.02.37-.08.55-.16.33.06.65.02.97-.1.02.06.06.11.13.16.18-.1.35-.22.52-.34.44-.21.89-.39,1.36-.55.14-.02.22-.1.26-.23.14-.01.26-.07.37-.16-.02-.02-.03-.03-.05-.05.07-.03.14-.07.21-.1-.05-.04-.06-.08-.03-.13.12-.07.23-.15.34-.23-.04-.06-.08-.12-.1-.18.11-.13.19-.27.26-.42-.01-.03-.03-.06-.05-.08.08-.03.15-.07.21-.13-.07-.06-.06-.11.03-.16.04.06.08.06.13,0,.07-.08.07-.16,0-.23.16-.34.32-.68.47-1.02.03.08.07.15.1.21Z"/>
        <path class="cls-159" d="M54.58,40.43c0,.14-.03.26-.1.37h-.31c.17-.08.31-.2.42-.37Z"/>
        <path class="cls-74" d="M35.43,40.69s.07-.05.13-.05c.2.01.38.06.55.16.05-.04.06-.1.05-.16.52,0,1.04.01,1.57.05-.14.03-.22.12-.26.26-.01-.1-.08-.19-.21-.26-.15.02-.31.02-.47,0v.16c-.18-.03-.37-.03-.57,0-.05.03-.1.07-.16.1-.05-.04-.06-.1-.05-.16-.2,0-.39-.03-.57-.1Z"/>
        <path class="cls-60" d="M39.24,40.8h-.31c-.27.02-.54.02-.81,0-.07.01-.12.05-.16.1-.03-.05-.03-.1-.03-.16.07-.02.14-.03.21-.05.37.03.74.07,1.1.1Z"/>
        <path class="cls-169" d="M35.32,40.69c0,.28-.1.35-.31.21-.11.08-.2.06-.26-.05-.15-.05-.31-.07-.47-.05.34-.1.69-.13,1.04-.1Z"/>
        <path class="cls-98" d="M33.81,40.85v.05c-.14.13-.28.13-.42,0,.14-.04.27-.06.42-.05Z"/>
        <path class="cls-43" d="M33.23,40.9c-.15.04-.31.09-.47.16-.07-.02-.14-.04-.21-.05.21-.09.44-.12.68-.1Z"/>
        <path class="cls-60" d="M40.59,40.95c.38,0,.75.05,1.1.16-.09,0-.18,0-.26.05-.21-.09-.44-.14-.68-.16-.1.07-.15.06-.16-.05Z"/>
        <path class="cls-7" d="M37.72,40.69c.08,0,.15.01.21.05,0,.05,0,.11.03.16.04-.06.09-.09.16-.1.27.02.54.02.81,0-.21.08-.42.15-.65.21-.04,0-.08-.02-.1-.05-.08.16-.2.19-.37.1-.18.16-.38.3-.6.42-.04-.06-.08-.13-.1-.21.09-.1.12-.23.1-.37-.15-.02-.28-.02-.42,0l-.05.05c.09.09.1.18.03.26-.13-.12-.27-.19-.42-.21-.04.06-.09.11-.13.16v-.31c.21-.03.4-.03.57,0v-.16c.16.02.32.02.47,0,.13.07.2.16.21.26.04-.14.13-.23.26-.26Z"/>
        <path class="cls-146" d="M33.23,40.9h.16c.14.13.28.13.42,0,.01.08,0,.15-.05.21-.11.03-.22,0-.31-.1-.04.16-.04.31,0,.44-.2.08-.41.12-.63.13,0-.03.02-.06.05-.08-.11-.14-.23-.26-.37-.37.04-.04.06-.08.05-.13.07.02.14.03.21.05.16-.07.31-.12.47-.16Z"/>
        <path class="cls-55" d="M35.32,40.69h.1c.18.07.37.11.57.1-.01.06,0,.11.05.16.05-.04.11-.07.16-.1v.31c-.08,0-.15-.03-.18-.1-.12.05-.25.07-.39.05-.08-.07-.17-.14-.26-.21-.02.07-.02.16,0,.26h.26c-.07.05-.14.08-.23.1-.17-.07-.33-.06-.5.03.07.03.07.07,0,.1-.1.03-.21.03-.31.03-.01-.19-.07-.36-.16-.52-.17-.09-.3-.05-.39.1-.06-.08-.14-.11-.23-.1v-.05c.15-.05.3-.07.47-.05.16-.02.32,0,.47.05.07.11.15.13.26.05.21.14.32.07.31-.21Z"/>
        <path class="cls-152" d="M35.64,41.11v.05h-.26c-.02-.1-.02-.19,0-.26.09.07.18.14.26.21Z"/>
        <path class="cls-62" d="M39.24,40.8c.46.03.91.08,1.36.16,0,.11.06.13.16.05.24.01.46.07.68.16.08-.04.17-.06.26-.05h.05c.11.05.23.08.37.1.17-.01.33.02.47.1h-.57c-.04.19-.07.17-.1-.05-.21-.06-.42-.06-.63,0-.26-.08-.53-.14-.81-.16-.06.02-.12.04-.18.08.08.04.11.1.1.18h-.16c.01-.09,0-.16-.05-.23.13-.05.13-.11,0-.18-.12-.05-.24-.07-.37-.05v.16c-.18-.08-.37-.12-.57-.1v-.16Z"/>
        <path class="cls-87" d="M41.74,41.11c.11,0,.21,0,.31.03.03.02.05.05.05.08-.13-.02-.25-.06-.37-.1Z"/>
        <path class="cls-133" d="M64.6,39.39c.08.05.13.12.16.21.03.07.07.14.1.21.14.11.19.25.16.42-.13-.14-.19-.11-.16.1-.03-.06-.07-.13-.1-.21-.15.34-.31.68-.47,1.02.07.08.07.16,0,.23-.05.06-.09.06-.13,0-.09.04-.1.1-.03.16-.06.06-.13.1-.21.13.02.02.04.05.05.08-.07.15-.15.29-.26.42.03.07.06.13.1.18-.11.09-.22.17-.34.23-.03.05-.02.09.03.13-.07.03-.14.07-.21.1.02.02.03.03.05.05-.1.09-.23.14-.37.16-.04.14-.12.22-.26.23.19-.25.37-.51.52-.78.09,0,.18-.03.26-.08-.13-.12-.1-.2.1-.23-.08-.14-.06-.26.05-.37-.03-.03-.07-.07-.1-.1.08-.03.17-.03.26,0-.08-.26-.05-.5.1-.73.03.01.06.03.08.05,0-.16.06-.28.18-.37-.16-.27-.08-.44.23-.52,0-.16,0-.31,0-.47.02.02.05.04.08.05.05-.1.09-.2.1-.31Z"/>
        <path class="cls-126" d="M35.64,41.16v-.05c.14.01.27,0,.39-.05.04.08.1.11.18.1-.11.06-.23.06-.37,0-.03.02-.07.03-.1.05.08.07.06.11-.05.1-.18,0-.37,0-.55,0-.17.14-.37.19-.6.16-.05-.36-.09-.38-.1-.05-.42.02-.83.11-1.23.26-.19-.03-.37-.07-.55-.1h.16c.22-.01.42-.05.63-.13-.04-.14-.04-.28,0-.44.09.1.2.14.31.1.05-.06.07-.13.05-.21.1-.01.18.02.23.1.09-.16.22-.19.39-.1.09.16.14.33.16.52.11,0,.21,0,.31-.03.07-.03.07-.07,0-.1.16-.08.33-.09.5-.03.09-.02.17-.06.23-.1Z"/>
        <path class="cls-110" d="M53.95,41c-.03.1-.05.21-.05.31-.1.02-.21.03-.31.05.04-.09.11-.12.21-.1-.01-.13.04-.22.16-.26Z"/>
        <path class="cls-18" d="M42.58,41.32c.22.07.45.13.68.16.13.1.28.17.44.21.05-.04.11-.06.18-.05.2.01.39.06.57.13.03.02.05.05.05.08-.14-.01-.27,0-.39.05-.02-.04-.04-.08-.08-.1-.17.05-.31.13-.42.26-.12.06-.24.07-.37.03-.11-.26-.28-.46-.52-.6-.06.05-.06.1,0,.16-.26.11-.36.02-.31-.26-.18-.04-.3.02-.37.18-.19.02-.35.08-.5.18-.09,0-.16-.03-.21-.1,0-.28-.1-.35-.31-.21-.04-.09-.11-.14-.21-.16-.19.09-.39.15-.6.18l.05.05c-.09.16-.18.16-.26-.03-.07.12-.14.11-.21-.03.11-.13.18-.26.21-.39-.07-.06-.14-.06-.21,0v-.16c.13-.02.25,0,.37.05.13.07.13.13,0,.18.05.07.06.15.05.23h.16c0-.08-.03-.15-.1-.18.06-.03.12-.06.18-.08.28.02.55.07.81.16.21-.06.42-.06.63,0,.03.22.06.24.1.05h.57Z"/>
        <path class="cls-42" d="M31.77,41.21c.09.19.06.23-.08.1-.03.05-.03.1-.03.16-.13.01-.25,0-.37-.05v-.16c.12.02.21-.02.29-.1.04.12.1.13.18.05Z"/>
        <path class="cls-30" d="M32.56,41c0,.05-.01.1-.05.13.14.1.26.22.37.37-.03.02-.05.05-.05.08h-.26c-.04-.1-.06-.2-.08-.31-.04-.05-.08-.08-.13-.1-.04-.05-.09-.06-.16-.05.1-.09.22-.12.37-.1Z"/>
        <path class="cls-66" d="M32.19,41.11c.07-.01.12,0,.16.05-.13.04-.25.09-.37.16l-.42.42c-.18-.12-.37-.2-.57-.26-.05.06-.07.13-.05.21.16-.02.23.05.21.21-.16,0-.31,0-.47-.03-.06-.13-.15-.16-.26-.08-.02-.07-.08-.11-.16-.1.16-.03.34-.03.52,0-.03-.21.07-.31.29-.31.08.03.15.05.23.05.12.05.24.06.37.05,0-.05,0-.11.03-.16.14.12.17.09.08-.1.12-.08.26-.12.42-.1Z"/>
        <path class="cls-52" d="M43.25,41.47c.12-.07.22-.05.31.08.12,0,.22.04.31.08-.07,0-.13,0-.18.05-.17-.04-.32-.11-.44-.21Z"/>
        <path class="cls-58" d="M32.35,41.16s.09.06.13.1c.02.11.04.21.08.31h-.21v.16c-.09,0-.18-.02-.26-.05-.11.02-.18.09-.21.21-.14-.1-.3-.13-.47-.08-.37.09-.7.19-.99.29.05-.03.1-.07.16-.1-.09-.04-.15-.11-.16-.21.11-.08.2-.05.26.08.16.03.31.03.47.03.02-.16-.05-.23-.21-.21-.01-.08,0-.15.05-.21.21.06.4.14.57.26l.42-.42c.12-.07.24-.12.37-.16Z"/>
        <path class="cls-64" d="M54.63,41.42s.05.06.05.1c-.07.1-.1.2-.1.31h-.31c-.14.14-.3.16-.47.08.16-.04.3-.1.44-.18.1.09.14.07.1-.05-.18-.07-.22-.2-.13-.37.14-.02.28-.03.42-.05v.16Z"/>
        <path class="cls-120" d="M54.63,41.42c-.03.06-.09.1-.18.1-.22,0-.23-.05-.03-.16.07.02.14.04.21.05Z"/>
        <path class="cls-135" d="M53.33,41.58c-.04.12-.11.23-.21.31,0-.16.06-.26.21-.31Z"/>
        <path class="cls-132" d="M44.56,41.84c.08.09.17.18.26.26-.02.1-.08.12-.16.05-.04-.11-.07-.21-.1-.31Z"/>
        <path class="cls-53" d="M30.26,41.68c.08,0,.13.03.16.1.01.1.06.17.16.21-.06.04-.11.07-.16.1-.14,0-.26-.03-.37-.1-.03.02-.07.03-.1.05.1.14.15.3.16.47h-.21c.01-.14-.03-.26-.13-.37-.11.11-.16.25-.13.42-.19-.04-.38-.05-.57-.03-.03.07-.07.14-.1.21-.14.03-.28.03-.42.03.19-.02.31-.12.37-.31v-.05c.12,0,.24,0,.37-.03.06-.03.1-.07.13-.13.02.02.05.04.08.05.04-.12.09-.22.16-.31.22-.08.43-.18.63-.31Z"/>
        <path class="cls-153" d="M54.16,40.8c-.07.09-.12.2-.16.31.06.09.13.16.21.21-.09.17-.05.29.13.37.03.12,0,.14-.1.05-.14.08-.29.14-.44.18.17.08.33.06.47-.08v.16c-.11,0-.22.02-.31.08-.09.11-.19.19-.31.26.05.07.06.15.03.23-.03-.07-.09-.12-.16-.16-.02.07-.07.14-.13.18.11.13.1.26-.03.39-.03-.08-.07-.15-.13-.21-.06.12-.13.23-.21.34.03.02.07.03.1.05-.2-.01-.41,0-.63.03,0,.09,0,.18-.03.26-.02-.02-.03-.03-.05-.05-.05.15-.13.18-.26.1-.07.05-.14.1-.21.16-.15-.05-.32-.05-.5,0-.08.03-.17.05-.26.05,0-.05.01-.1.05-.13.08-.01.14-.04.21-.08-.11-.05-.22-.11-.31-.18.04-.11.04-.22,0-.34.3-.14.58-.11.84.08.08.04.16.03.23-.03.11.13.16.09.16-.1.15.08.28.05.39-.08,0-.04-.02-.07-.05-.08-.02-.03-.03-.07-.05-.1-.24-.1-.3-.26-.16-.47.06-.07.13-.13.21-.18.15-.03.29-.07.42-.13.1-.08.17-.19.21-.31.06-.11.14-.18.26-.21.1-.02.21-.03.31-.05,0-.11.02-.21.05-.31.02-.12.09-.19.21-.21Z"/>
        <path class="cls-101" d="M29.63,42c-.07.09-.12.2-.16.31-.03-.01-.06-.03-.08-.05-.03.06-.07.1-.13.13-.12.03-.24.03-.37.03.23-.16.47-.3.73-.42Z"/>
        <path class="cls-61" d="M44.51,41.84h.05c.03.1.07.21.1.31.08.07.13.05.16-.05,0-.05,0-.11.03-.16.12.12.25.13.39.05.15.12.3.2.47.26-.14,0-.28.02-.42.05v-.16c-.26,0-.5.06-.73.16,0-.16-.01-.32-.05-.47Z"/>
        <path class="cls-13" d="M46.18,42.36c.28.13.58.22.89.26v.16c-.09.15-.15.13-.16-.05-.23.02-.44-.03-.63-.16-.07-.05-.11-.12-.1-.21Z"/>
        <path class="cls-97" d="M28.9,42.47c-.05.19-.17.29-.37.31h-.26c.08-.1.18-.16.31-.18.03-.04.06-.08.08-.13.01.06.04.11.08.16.03-.08.09-.13.16-.16Z"/>
        <path class="cls-11" d="M52.49,42.2c-.14.21-.09.37.16.47-.1-.01-.19,0-.26.05-.05.04-.06.09-.05.16-.13-.06-.27-.12-.42-.16-.13.03-.25.06-.37.1.03-.08.08-.15.16-.21.15.06.31.06.47.03-.15-.19-.1-.26.16-.23-.02-.13.03-.2.16-.21Z"/>
        <path class="cls-162" d="M52.39,42.73c.07-.05.16-.07.26-.05.02.03.03.07.05.1-.12.19-.22.17-.31-.05Z"/>
        <path class="cls-82" d="M28.22,42.78v.16h-.21c.05-.07.12-.12.21-.16Z"/>
        <path class="cls-3" d="M47.43,42.78c.08-.01.15,0,.21.05-.01.03-.03.06-.05.08.09.11.22.15.37.13-.02.07-.06.12-.13.16-.1-.09-.21-.14-.34-.16,0-.09-.01-.18-.05-.26Z"/>
        <path class="cls-147" d="M52.39,42.73c.09.22.2.24.31.05.03.01.05.04.05.08-.11.13-.24.16-.39.08,0,.2-.05.23-.16.1-.07.06-.15.06-.23.03-.26-.19-.53-.22-.84-.08.1-.13.24-.18.42-.16.12-.04.24-.08.37-.1.15.04.29.09.42.16-.01-.07,0-.12.05-.16Z"/>
        <path class="cls-8" d="M51.76,43.14c.16-.02.23.05.21.21-.11,0-.22-.04-.31-.1.04-.04.07-.07.1-.1Z"/>
        <path class="cls-31" d="M48.73,43.2s.02-.05.05-.05c.2.11.4.17.63.18.04.04.06.08.05.13-.03,0-.06-.02-.08-.05-.06.19-.11.17-.13-.05-.14,0-.28,0-.42-.03-.03-.05-.06-.1-.1-.13Z"/>
        <path class="cls-160" d="M50.61,43.2c-.12.11-.22.23-.31.37-.1.01-.19,0-.26-.05h.16c.06-.2.2-.3.42-.31Z"/>
        <path class="cls-150" d="M51.14,42.99c.04.12.04.23,0,.34.1.07.2.14.31.18-.06.04-.13.07-.21.08-.04.04-.06.08-.05.13-.06,0-.11-.02-.16-.05v-.16c-.06.01-.11,0-.16-.05.06-.04.13-.07.21-.08-.1-.15-.24-.21-.42-.18.13-.12.28-.19.47-.21Z"/>
        <path class="cls-66" d="M27.7,43.14c0,.1-.03.19-.1.26-.17.14-.36.24-.57.31.03-.06.06-.12.1-.18.12-.04.25-.09.37-.13,0-.15.06-.24.21-.26Z"/>
        <path class="cls-27" d="M50.04,43.51c-.17-.08-.32-.04-.44.1-.09-.01-.13-.07-.13-.16.05-.04.11-.08.18-.1.16.01.29.06.39.16Z"/>
        <path class="cls-93" d="M50.61,43.2h.05c.18-.02.32.04.42.18-.08.01-.14.04-.21.08.04.05.09.06.16.05v.16c-.1-.07-.19-.07-.29,0-.02-.04-.04-.08-.08-.1.01.05-.02.11-.08.16-.03-.05-.03-.1-.03-.16h-.26c.09-.14.2-.26.31-.37Z"/>
        <path class="cls-49" d="M48.42,43.09c.09,0,.18,0,.26.03-.09.06-.14.14-.16.23.02.13,0,.25-.05.37-.13-.13-.13-.27,0-.42-.04-.06-.06-.13-.05-.21Z"/>
        <path class="cls-103" d="M26.92,43.87s-.1.07-.16.1c-.05.19-.17.3-.37.31.12-.21.29-.35.52-.42Z"/>
        <path class="cls-107" d="M26.4,44.29c-.12.19-.26.37-.42.55-.09.03-.17.03-.26.03.15-.1.27-.23.37-.39.1-.07.2-.13.31-.18Z"/>
        <path class="cls-21" d="M25.72,44.87v.26h-.16v.16c-.05-.03-.1-.05-.16-.08.12-.1.23-.22.31-.34Z"/>
        <path class="cls-158" d="M28.28,47.94c.03.1.03.18,0,.26-.08-.04-.15-.08-.23-.1-.05.02-.08.05-.08.1-.05-.04-.06-.09-.05-.16.13,0,.24-.05.31-.16.03,0,.05.02.05.05Z"/>
        <path class="cls-118" d="M28.28,47.94h.16c0,.09.01.18.05.26.1.11.19.23.26.37-.22-.02-.41-.1-.55-.26-.04.04-.08.06-.13.05,0-.03.02-.06.05-.08-.06-.01-.12-.04-.16-.08,0-.05.02-.09.08-.1.08.03.16.06.23.1.03-.08.03-.17,0-.26Z"/>
        <path class="cls-145" d="M28.75,48.57c.06.17.18.25.37.26.05.04.06.09.05.16v.16h.16c-.02.21.02.4.13.57.09.03.18.03.29,0h.1v.05c.06.06.09.13.1.21.02.08.07.12.16.1.03.1.03.2,0,.29.11.05.22.11.31.18.08.07.11.16.1.26.05.21.13.4.23.57.07-.02.15-.02.23,0v.21h.21c-.07.1-.05.17.08.21.02.12.03.24.05.37.08.09.13.19.16.31.13.08.23.04.29-.1.02.03.03.05.05.08-.07.08-.11.18-.1.29h.16c-.01-.1.01-.19.08-.26.03.05.03.1.03.16h.21c.02.29-.06.33-.23.1,0,.03-.02.05-.03.08.08.08.14.17.16.29.14,0,.18.05.1.16.29.16.57.34.84.52v.05c.09.13.19.13.29,0,.06.08.09.17.08.26.06-.06.13-.09.21-.1.14.07.28.14.42.21.19.14.38.28.57.42.16.16.33.3.52.42.09.12.21.17.37.16.05.04.06.09.05.16.29.05.51.2.68.44.19.01.32.11.37.29.11,0,.22.04.31.1.13.2.3.27.52.21.05.03.1.05.16.05-.02.13,0,.25.05.37.16.09.3.19.42.31.04.06.06.13.05.21.09-.01.16,0,.23.05.05.18.13.33.23.47.02.03.03.07.05.1-.04.14-.08.27-.1.42.02.06.06.11.1.16-.06.04-.09.09-.1.16v.1c-.03.11-.04.21-.03.31.31.07.31.11-.03.1v.52h.16c-.02.1-.03.21-.05.31v.05c-.06.01-.11,0-.16-.05.05-.07.06-.14.03-.21-.01.05-.04.08-.08.1-.11.04-.17.12-.21.23-.05.03-.1.03-.16.03v.21c-.09,0-.18,0-.26-.05-.05.09-.12.16-.21.21-.1-.05-.19-.05-.29,0-.02-.04-.04-.08-.08-.1-.44.1-.86.05-1.25-.16-.07.07-.14.07-.21,0-.02-.03-.03-.07-.05-.1-.18-.05-.36-.12-.52-.21-.04.1,0,.17.1.23-.13-.04-.27-.06-.42-.08-.02-.03-.03-.07-.05-.1.07-.03.14-.07.21-.1-.09-.04-.18-.09-.26-.16-.08-.1-.18-.16-.31-.18-.04-.05-.06-.11-.05-.18h-.16c0,.07,0,.14-.03.21-.04-.13-.09-.25-.16-.37-.05-.04-.11-.06-.18-.05v-.21h-.31v-.21c-.11,0-.19-.03-.26-.1-.2-.22-.4-.44-.6-.68,0,.28-.09.31-.23.1.07-.05.11-.12.1-.21-.08,0-.15.03-.18.1-.03-.05-.03-.1-.03-.16h-.26s.06-.09.1-.13c-.03-.02-.07-.03-.1-.05.05-.07.06-.15.05-.23h-.37c-.06-.14-.15-.26-.26-.37-.17-.15-.24-.34-.21-.57-.13.02-.16-.01-.1-.1-.04-.06-.08-.06-.13,0-.03-.05-.03-.1-.03-.16h-.16c.08-.17.06-.32-.05-.47-.13-.11-.23-.24-.31-.39-.1.03-.19.02-.29-.03-.04-.06-.03-.11.03-.16.06.06.11.06.16,0-.15-.13-.25-.28-.31-.47-.04-.05-.1-.06-.16-.05,0-.22-.08-.37-.26-.47,0-.14-.03-.26-.1-.37-.17-.24-.29-.5-.37-.78h-.05c.04-.19-.01-.35-.16-.47.04-.14.04-.28-.03-.42-.04-.06-.08-.06-.13,0-.04-.06-.07-.11-.1-.16,0-.03-.02-.05-.05-.05-.01-.13-.05-.25-.1-.37-.06.07-.11.06-.16-.03.1-.07.12-.17.08-.29-.09-.26-.18-.5-.29-.73.05-.08.09-.17.1-.26-.07.01-.12,0-.16-.05v-.37c-.06.01-.11,0-.16-.05,0-.31.01-.62.03-.94.11-.12.1-.22-.03-.31.04-.07.07-.14.1-.21.05,0,.1-.01.13-.05.14.16.33.24.55.26Z"/>
        <path class="cls-69" d="M28.96,48.36v.42h.16v.05c-.18,0-.3-.1-.37-.26-.07-.13-.16-.25-.26-.37.21-.15.37-.09.47.16Z"/>
        <path class="cls-41" d="M27.86,48.36c-.08.23-.17.45-.26.68.03-.26.08-.53.16-.78.04.04.07.07.1.1Z"/>
        <path class="cls-16" d="M28.96,48.36c.05.13.1.27.16.42h-.16v-.42Z"/>
        <path class="cls-96" d="M29.11,48.83v-.05c.18.02.24.1.18.26.08-.07.12-.05.13.05-.11,0-.19-.03-.26-.1.01-.07,0-.12-.05-.16Z"/>
        <path class="cls-37" d="M29.16,48.99c.07.08.15.11.26.1.05.14.12.26.21.37,0,.11.03.19.1.26-.1.03-.2.03-.29,0-.11-.18-.15-.37-.13-.57h-.16v-.16Z"/>
        <path class="cls-78" d="M29.63,49.46c.11.06.18.14.21.26h-.1c-.08-.07-.11-.16-.1-.26Z"/>
        <path class="cls-70" d="M27.86,48.36h.21c-.03.07-.07.14-.1.21.12.09.13.2.03.31-.02.32-.02.63-.03.94.04.05.1.06.16.05v.26c-.08-.03-.16-.03-.26,0,.01-.07,0-.12-.05-.16-.03,0-.06-.02-.08-.05-.02-.15-.04-.3-.08-.44.01-.05.03-.09.05-.13-.08-.09-.12-.19-.1-.31.09-.22.18-.45.26-.68Z"/>
        <path class="cls-84" d="M29.84,49.77h.26c0,.08.01.15.05.21-.08.05-.15.05-.21,0-.01-.08-.05-.15-.1-.21Z"/>
        <path class="cls-12" d="M27.81,49.98s.06.09.05.16c.1-.03.18-.03.26,0v.1h-.26v.26c-.09-.17-.1-.34-.05-.52Z"/>
        <path class="cls-154" d="M28.12,50.24s.09.06.16.05c-.02.1-.05.18-.1.26-.02.14-.04.28-.05.42l-.21-.21c.01-.1,0-.19-.05-.26v-.26h.26Z"/>
        <path class="cls-33" d="M29.95,49.98c.06.05.13.05.21,0,.05.09.07.2.05.31.15.01.22.1.21.26-.1-.07-.2-.13-.31-.18.03-.09.03-.18,0-.29-.09.01-.14-.02-.16-.1Z"/>
        <path class="cls-111" d="M28.17,50.55c.11.23.2.47.29.73.05.12.02.21-.08.29.04.09.1.1.16.03.06.12.09.24.1.37h-.1c-.01-.1-.06-.19-.13-.26-.06.06-.09.13-.08.21-.18-.37-.32-.75-.42-1.15l.21.21c.02-.14.03-.28.05-.42Z"/>
        <path class="cls-35" d="M30.52,50.82c.19.3.42.56.68.78h-.21v-.21c-.09-.02-.17-.02-.23,0-.1-.18-.18-.37-.23-.57Z"/>
        <path class="cls-26" d="M28.54,51.96v.1s-.06.02-.08.05c0-.1-.05-.17-.13-.21,0-.08.02-.15.08-.21.08.07.12.16.13.26Z"/>
        <path class="cls-91" d="M28.54,51.96h.1s.05.02.05.05c.01.07,0,.12-.05.16l-.1-.1v-.1Z"/>
        <path class="cls-12" d="M28.33,51.91c.08.04.12.11.13.21.02-.03.05-.05.08-.05l.1.1h-.16c.07.19.12.38.16.57-.17-.25-.27-.53-.31-.84Z"/>
        <path class="cls-15" d="M28.69,52.02s.07.1.1.16c.05-.06.09-.06.13,0,.06.14.07.28.03.42.14.12.19.28.16.47-.04-.02-.06-.06-.08-.1-.05.04-.11.06-.18.05.02-.16-.05-.25-.21-.26-.04-.2-.09-.39-.16-.57h.16s.06-.09.05-.16Z"/>
        <path class="cls-20" d="M31.2,51.6c.33.34.66.69.99,1.04h-.21c0-.05,0-.11-.03-.16-.07.07-.09.16-.08.26h-.16c0-.11.03-.2.1-.29-.02-.03-.03-.05-.05-.08-.06.15-.16.18-.29.1-.02-.12-.08-.22-.16-.31-.02-.12-.03-.24-.05-.37-.12-.04-.15-.11-.08-.21Z"/>
        <path class="cls-100" d="M32.5,52.96c.12.03.21.1.26.21-.13,0-.21.07-.23.21-.04-.03-.06-.06-.08-.1.11-.09.12-.2.05-.31Z"/>
        <path class="cls-102" d="M28.64,52.75c.15.01.22.1.21.26.07,0,.13,0,.18-.05.01.05.04.08.08.1h.05c.01.09,0,.18-.05.26-.07-.07-.13-.05-.16.05-.08-.22-.18-.43-.31-.63Z"/>
        <path class="cls-115" d="M32.19,52.64s.07.09.08.16c.05.03.11.03.18.03.04.04.06.08.05.13.07.12.05.22-.05.31.02.04.04.08.08.1.02-.14.1-.21.23-.21.03,0,.05.02.05.05.11.09.12.19.05.31.03.1.08.19.16.26-.27-.18-.55-.36-.84-.52.07-.11.04-.16-.1-.16-.02-.11-.07-.21-.16-.29,0-.03.02-.05.03-.08.17.23.25.19.23-.1Z"/>
        <path class="cls-70" d="M29.16,53.06c.08.28.2.54.37.78-.07.03-.12.08-.16.16-.04-.02-.07-.04-.1-.05-.17-.15-.28-.34-.31-.57.03-.1.08-.12.16-.05.05-.08.07-.17.05-.26Z"/>
        <path class="cls-36" d="M32.82,53.22c.11.04.2.11.26.21-.06.02-.1.06-.1.13.04.08.09.16.16.23-.02.04-.06.06-.1.05v-.05c-.07-.07-.13-.16-.16-.26.07-.12.05-.22-.05-.31Z"/>
        <path class="cls-106" d="M29.53,53.84c.07.11.11.23.1.37-.09-.07-.16-.05-.21.05-.05-.11-.1-.21-.16-.31.03.02.07.03.1.05.03-.08.09-.13.16-.16Z"/>
        <path class="cls-85" d="M33.08,53.42c.13.06.2.17.21.31.31.05.56.21.73.47-.14-.07-.28-.14-.42-.21-.08.01-.15.05-.21.1,0-.09-.02-.18-.08-.26-.1.13-.19.13-.29,0,.05,0,.08-.01.1-.05-.06-.07-.12-.15-.16-.23,0-.07.04-.11.1-.13Z"/>
        <path class="cls-166" d="M34.59,54.63c.16.06.32.14.47.23.04.05.06.11.05.18-.19-.11-.37-.25-.52-.42Z"/>
        <path class="cls-85" d="M29.63,54.21c.18.1.27.25.26.47.06-.01.11,0,.16.05.06.19.17.34.31.47-.05.06-.1.06-.16,0-.06.05-.07.1-.03.16.09.04.19.05.29.03.08.15.19.28.31.39.11.14.13.3.05.47h.16c0,.05,0,.11.03.16.05-.06.09-.06.13,0-.06.09-.02.12.1.1-.03.23.04.42.21.57-.14-.03-.23-.12-.26-.26v-.26h-.21c-.21-.29-.41-.58-.6-.89-.06-.08-.14-.11-.23-.1-.2-.31-.35-.64-.47-.99-.18-.02-.26-.12-.26-.31.05-.1.12-.12.21-.05Z"/>
        <path class="cls-81" d="M35.11,55.04c.16-.03.29.02.37.16-.16.02-.28-.04-.37-.16Z"/>
        <path class="cls-19" d="M62.51,54.94c.03.16.04.31.03.47-.11.05-.22.07-.34.05.07-.05.16-.07.26-.05-.02-.17,0-.32.05-.47Z"/>
        <path class="cls-47" d="M27.76,55.56v.16c.2-.03.39-.03.57,0-.19.04-.38.07-.57.08-.07-.08-.07-.16,0-.23Z"/>
        <path class="cls-124" d="M36.89,56.19c.2.02.37.09.52.21-.22.06-.39,0-.52-.21Z"/>
        <path class="cls-28" d="M30.99,56.56h.21v.26s-.06-.09-.05-.16c-.09.01-.14-.02-.16-.1Z"/>
        <path class="cls-44" d="M28.49,56.45c-.18.34-.1.42.23.26.07,0,.13.02.18.05-.13-.02-.24.02-.31.13-.24.08-.34,0-.29-.23.03-.1.1-.16.18-.21Z"/>
        <path class="cls-106" d="M37.57,56.45c.33.09.54.3.63.63h.16v.16s-.07-.07-.1-.1c-.06.05-.13.05-.21,0-.12-.12-.26-.22-.42-.31-.05-.12-.07-.24-.05-.37Z"/>
        <path class="cls-1" d="M29.06,56.97c-.03.12-.1.21-.21.26.03-.12.1-.2.21-.26Z"/>
        <path class="cls-32" d="M38.04,57.13c.08.05.14.05.21,0,.04.04.07.07.1.1.04.13.1.25.18.37.03.09.03.17.03.26-.1-.14-.18-.29-.23-.47-.07-.05-.15-.06-.23-.05,0-.08-.01-.15-.05-.21Z"/>
        <path class="cls-10" d="M31.72,57.44h.37c.01.09,0,.16-.05.23.03.02.07.03.1.05-.05.04-.08.08-.1.13-.1-.14-.21-.28-.31-.42Z"/>
        <path class="cls-63" d="M32.03,57.86h.26c0,.05,0,.11.03.16.04-.08.1-.11.18-.1,0,.09-.03.16-.1.21.15.21.23.17.23-.1.2.23.4.46.6.68-.06.11-.14.18-.26.21-.36-.31-.67-.66-.94-1.04Z"/>
        <path class="cls-22" d="M38.61,57.97c.04.16.09.31.16.47-.03.09-.05.18-.05.26h-.21c.01-.06.05-.12.1-.16-.05-.04-.08-.1-.1-.16.03-.14.06-.28.1-.42Z"/>
        <path class="cls-142" d="M60.22,58.64c-.23.08-.47.12-.73.1.23-.07.48-.1.73-.1Z"/>
        <path class="cls-41" d="M38.51,58.7h.21s-.02.06-.05.08c.09.09.13.2.1.34-.04-.05-.07-.11-.1-.18l.05-.05c-.07-.02-.14-.05-.21-.08v-.1Z"/>
        <path class="cls-122" d="M33.23,58.7c0,.11-.04.22-.1.31-.06-.02-.12-.06-.16-.1.12-.03.21-.1.26-.21Z"/>
        <path class="cls-86" d="M41.53,58.96c.45-.07.9-.07,1.36,0-.45,0-.9,0-1.36,0Z"/>
        <path class="cls-144" d="M29.84,58.85c.09.07.17.07.26,0,.05.08.07.17.05.26h.26c-.06.1-.15.12-.26.08-.08-.06-.11-.14-.1-.23-.1.02-.17-.02-.21-.1Z"/>
        <path class="cls-59" d="M43.46,59.27h.05c.03.1.08.12.16.05.04.09.08.18.13.26.01-.17.06-.19.13-.05.07-.08.16-.11.26-.1.05.03.1.05.16.05.02.1.07.18.16.23-.27.07-.26.13.03.18.08-.05.15-.1.18-.16.12.13.28.19.47.16.01.12.06.23.16.31-.07.12-.04.16.1.13-.06-.05-.06-.09,0-.13.08.17.14.34.16.52.17.03.24.13.21.31h.16c-.02-.1.02-.17.1-.21.09.06.12.15.1.26h-.21c.06.17.09.34.1.52-.03.21.02.25.16.1.03,0,.05.02.05.05v.05c-.09.06-.2.1-.31.1.01.08,0,.15-.05.21-.08-.06-.15-.06-.21,0-.14.02-.26.07-.37.16-.05.02-.09.06-.13.1-.06-.06-.12-.06-.18,0,.03.09.09.17.16.23-.16.09-.34.13-.52.13h-.63c-.33-.11-.67-.21-1.02-.31-.07.01-.12.05-.16.1-.02-.05-.05-.09-.08-.13-.12-.05-.25-.06-.37-.03-.23-.15-.5-.25-.78-.29-.16-.17-.35-.3-.57-.39-.06-.17-.18-.26-.37-.26-.28-.16-.44-.4-.47-.73-.11-.27-.13-.55-.05-.84-.01-.08,0-.15.05-.21.08-.1.16-.2.23-.31.1-.09.21-.14.34-.16.13,0,.23.06.31.16.2-.06.2-.09,0-.1-.01-.06,0-.11.05-.16.12-.05.24-.06.37-.05v.21c.18,0,.35-.04.52-.1-.02-.03-.03-.07-.05-.1.15-.06.31-.07.47-.03.04.05.06.11.05.18.14,0,.28.01.42.05.06-.02.11-.06.16-.1.04.05.1.08.16.1.08-.05.15-.05.21,0Z"/>
        <path class="cls-149" d="M43.05,59.01c.13.01.26.05.37.1-.11,0-.21,0-.31-.03-.03-.02-.05-.05-.05-.08Z"/>
        <path class="cls-14" d="M41.53,58.96c.46,0,.91,0,1.36,0,.04.05.09.06.16.05,0,.03.02.06.05.08.1.03.21.03.31.03.02.03.03.07.05.1v.05c-.06-.05-.13-.05-.21,0-.06-.02-.11-.06-.16-.1-.04.05-.1.08-.16.1-.14-.04-.28-.06-.42-.05,0-.07,0-.13-.05-.18-.16-.04-.32-.03-.47.03.02.03.03.07.05.1-.17.07-.34.1-.52.1v-.21c-.13-.01-.25,0-.37.05-.05.04-.06.1-.05.16.2.01.2.05,0,.1-.08-.1-.19-.15-.31-.16.22-.14.46-.23.73-.26Z"/>
        <path class="cls-48" d="M43.83,59.27h-.37v-.05c.13-.04.25-.03.37.05Z"/>
        <path class="cls-95" d="M43.52,59.27h.31c.12.06.24.11.37.16-.1,0-.19.03-.26.1-.07-.13-.12-.12-.13.05-.05-.08-.09-.17-.13-.26-.07.07-.13.05-.16-.05Z"/>
        <path class="cls-115" d="M33.23,58.7c.07.08.15.11.26.1v.21h.31v.21c.07,0,.13,0,.18.05.07.12.12.24.16.37.03-.07.03-.14.03-.21h.16c0,.07,0,.13.05.18.13.02.24.08.31.18l-.21.21c-.32-.18-.64-.39-.94-.63-.05-.06-.07-.13-.05-.21-.16.03-.29-.02-.37-.16.06-.09.1-.2.1-.31Z"/>
        <path class="cls-51" d="M38.51,58.8c.07.03.14.06.21.08l-.05.05c.03.07.07.13.1.18.01.16,0,.32-.05.47-.07.07-.12.06-.16-.03.04-.09.06-.18.05-.26-.02,0-.03-.02-.05-.03-.04.06-.07.11-.1.16v-.21c.33,0,.34-.03.03-.1,0-.1,0-.21.03-.31Z"/>
        <path class="cls-77" d="M38.71,59.58c-.01.18-.07.33-.16.47.02-.1.03-.21.05-.31h-.16v-.31s.07-.1.1-.16c.02,0,.03.02.05.03,0,.08-.01.17-.05.26.04.09.09.1.16.03Z"/>
        <path class="cls-51" d="M44.35,59.48c.28.14.56.28.84.42-.19.03-.35-.02-.47-.16-.04.06-.1.11-.18.16-.28-.06-.29-.12-.03-.18-.08-.06-.14-.14-.16-.23Z"/>
        <path class="cls-5" d="M34.7,59.79c.08.06.17.11.26.16-.07.03-.14.07-.21.1.02.04.04.07.05.1-.15.02-.25-.03-.31-.16l.21-.21Z"/>
        <path class="cls-95" d="M35.69,60.31v.16h-.37c-.12-.09-.26-.15-.42-.18-.05-.04-.08-.08-.1-.13.15.01.29.04.42.08-.11-.06-.15-.14-.1-.23.17.09.34.16.52.21.02.04.04.07.05.1Z"/>
        <path class="cls-25" d="M38.56,60.1c-.02.09-.07.14-.16.16-.04-.05-.09-.06-.16-.05.02-.1.05-.18.1-.26.04-.02.06-.06.08-.1.03.07.02.14-.03.21.04.05.1.06.16.05Z"/>
        <path class="cls-99" d="M35.9,60.31c.39.2.81.26,1.25.16.04.03.06.06.08.1.09-.05.19-.05.29,0-.03.08-.05.17-.05.26-.27.01-.53,0-.78-.05-.25-.11-.51-.18-.78-.21v-.26Z"/>
        <path class="cls-5" d="M35.69,60.31c.07.07.14.07.21,0v.26c.27.03.53.1.78.21v.05c-.25,0-.48-.06-.68-.21-.06.03-.12.04-.18.05-.16-.1-.32-.17-.5-.21h.37v-.16Z"/>
        <path class="cls-163" d="M45.19,59.9c.14.09.28.17.42.26,0,.07-.01.14-.05.21.08.05.17.07.26.05,0,.05,0,.11.03.16.12.05.2.13.23.26-.09.04-.12.11-.1.21h-.16c.03-.18-.04-.29-.21-.31-.02-.18-.07-.36-.16-.52-.06.04-.06.08,0,.13-.14.03-.17-.01-.1-.13-.09-.09-.14-.19-.16-.31Z"/>
        <path class="cls-165" d="M40.18,59.9c-.08.29-.06.57.05.84-.03-.02-.07-.03-.1-.05-.1-.24-.11-.48-.05-.73.02-.04.06-.06.1-.05Z"/>
        <path class="cls-39" d="M37.51,60.57c.09.02.14.07.16.16-.07.03-.14.07-.21.1,0-.09.02-.18.05-.26Z"/>
        <path class="cls-73" d="M38.35,59.95c-.05.08-.09.17-.1.26.07-.01.12,0,.16.05-.08.12-.16.23-.26.34-.05.03-.11.02-.16-.03l-.21.21s-.07-.04-.1-.05c-.02-.09-.07-.14-.16-.16.08-.05.15-.12.21-.21.08.04.17.06.26.05v-.21c.05,0,.11,0,.16-.03.03-.11.1-.19.21-.23Z"/>
        <path class="cls-72" d="M36.68,60.78c.26.05.52.07.78.05-.26.07-.52.07-.78,0v-.05Z"/>
        <path class="cls-22" d="M45.6,60.16c.11.03.16.1.16.21.07,0,.13,0,.18.05.17.2.28.42.34.68,0,.16,0,.31-.03.47-.05-.06-.09-.13-.1-.21-.01.1-.04.19-.08.26,0-.18-.04-.36-.1-.52h.21c.02-.11-.02-.2-.1-.26-.03-.13-.11-.21-.23-.26-.03-.05-.03-.1-.03-.16-.09.01-.18,0-.26-.05.04-.06.06-.13.05-.21Z"/>
        <path class="cls-89" d="M46.28,61.1c.04.11.07.22.1.34-.06.07-.06.13,0,.21,0,.07-.04.11-.1.13,0-.03-.02-.05-.05-.05-.13.14-.19.11-.16-.1.04-.08.07-.16.08-.26.02.08.05.15.1.21.03-.16.03-.31.03-.47Z"/>
        <path class="cls-136" d="M33.5,61.36c0,.13.01.25.05.37-.08-.04-.11-.11-.1-.21,0-.06.02-.12.05-.16Z"/>
        <path class="cls-6" d="M41.22,61.98h.21v.16c-.1-.01-.17-.06-.21-.16Z"/>
        <path class="cls-65" d="M46.28,61.83c-.05.17-.15.29-.31.37-.04.06-.08.13-.1.21-.04.05-.09.06-.16.05.03-.03.07-.07.1-.1-.06-.06-.09-.13-.1-.21.06-.06.13-.06.21,0,.05-.06.07-.13.05-.21.11,0,.22-.04.31-.1Z"/>
        <path class="cls-79" d="M45.71,62.14c.01.08.05.15.1.21-.04.04-.07.07-.1.1-.03.02-.07.03-.1.05-.09-.04-.12-.11-.1-.21h-.16c.1-.08.22-.14.37-.16Z"/>
        <path class="cls-22" d="M42.42,62.56c-.19,0-.36-.04-.52-.13-.04-.04-.06-.08-.05-.13.26-.06.45.03.57.26Z"/>
        <path class="cls-115" d="M40.7,61.46c.19,0,.31.09.37.26.22.09.41.22.57.39.29.04.55.14.78.29.12-.04.24-.03.37.03.03.04.06.08.08.13.04-.06.09-.09.16-.1.35.1.69.21,1.02.31-.12.03-.24.07-.37.1-.08-.04-.15-.1-.21-.18-.14-.01-.28-.01-.42,0-.03-.04-.06-.08-.08-.13-.08.07-.15.07-.23,0-.04.03-.06.06-.08.1-.04-.04-.08-.06-.13-.05-.03-.02-.07-.03-.1-.05-.12-.24-.32-.32-.57-.26-.14-.05-.28-.1-.42-.16v-.16h-.21c-.22-.13-.39-.3-.52-.52Z"/>
        <path class="cls-148" d="M43.67,62.87c-.36-.05-.73-.11-1.1-.18-.03-.02-.05-.05-.05-.08.05,0,.1.01.13.05.02-.04.04-.08.08-.1.08.07.16.07.23,0,.02.05.05.09.08.13.14-.01.28-.01.42,0,.06.08.13.14.21.18Z"/>
        <path class="cls-40" d="M44.04,62.77h.63c-.1.19-.27.21-.5.05-.07.09-.17.12-.29.1-.08.01-.15,0-.21-.05.12-.03.24-.07.37-.1Z"/>
        <path class="cls-23" d="M45.34,62.3h.16c-.02.1.02.17.1.21-.17.08-.34.15-.52.21-.03.16-.13.24-.31.23-.31.04-.6.03-.89-.03.12.02.21-.02.29-.1.23.15.4.14.5-.05.19,0,.36-.04.52-.13-.07-.06-.12-.14-.16-.23.06-.06.12-.06.18,0,.04-.05.08-.08.13-.1Z"/>
        <path class="cls-168" d="M54.68,62.82c-.01.09-.05.17-.1.23-.16.03-.31.03-.47.03.22-.02.41-.1.57-.26Z"/>
        <path class="cls-127" d="M36.57,63.08c-.07.03-.14.07-.21.1-.05,0-.08-.02-.1-.05h.16c.01-.18.06-.2.16-.05Z"/>
        <path class="cls-157" d="M54.11,63.08c-.07.22-.19.26-.37.1-.17-.05-.34-.07-.52-.05.21-.04.42-.09.63-.16v.21c.1,0,.19-.03.26-.1Z"/>
        <path class="cls-129" d="M36.99,63.13h-.16v.21c-.07.01-.12,0-.16-.05.09-.04.12-.11.1-.21.08-.01.15,0,.21.05Z"/>
        <path class="cls-167" d="M53.17,63.18c-.28.04-.33.18-.16.42-.15.03-.31.03-.47,0,.07-.07.15-.11.26-.1,0-.25.11-.36.37-.31Z"/>
        <path class="cls-17" d="M52.54,63.6c-.23.11-.46.24-.68.39-.16.09-.34.13-.52.13.03-.15,0-.27-.1-.37.04-.05.09-.06.16-.05v.37c.14-.05.28-.1.42-.16.04-.06.06-.13.05-.21.23.03.45,0,.68-.1Z"/>
        <path class="cls-83" d="M51.08,64.07s.06.09.05.16c-.11-.02-.21,0-.31.05-.08.19-.22.25-.42.18-.03-.02-.05-.05-.05-.08.06,0,.12.03.18.05.07-.06.13-.13.18-.21.15-.01.27-.07.37-.16Z"/>
        <path class="cls-68" d="M48.84,64.7c-.07.05-.16.07-.26.05-.06-.06-.13-.09-.21-.1,0-.05.01-.08.05-.1.11.13.25.18.42.16Z"/>
        <path class="cls-46" d="M49.62,64.33c-.07.13-.16.26-.26.39-.14.04-.26.02-.37-.08-.11.16-.25.19-.42.1.1.01.19,0,.26-.05.02-.09.07-.14.16-.16.09.07.2.1.31.08.06-.14.13-.27.21-.39.05.02.09.05.1.1Z"/>
        <path class="cls-155" d="M40.23,64.65c.15,0,.29.03.42.1-.01.03-.04.05-.08.05-.11-.07-.23-.12-.34-.16Z"/>
        <path class="cls-57" d="M40.65,64.75c.13-.05.27-.07.42-.05,0,.06.02.11.05.16-.03.02-.05.03-.08.05-.12-.09-.25-.14-.39-.16Z"/>
        <path class="cls-113" d="M47.74,64.75c-.48.09-.96.18-1.46.26-.11-.04-.21-.07-.31-.1.04-.05.09-.06.16-.05.09.02.19.04.29.05.44-.08.88-.13,1.33-.16Z"/>
        <path class="cls-68" d="M46.13,64.85c-.07-.01-.12,0-.16.05-.1.07-.21.07-.31,0,.13,0,.25-.03.37-.1.05,0,.08.02.1.05Z"/>
        <path class="cls-151" d="M42.94,65.01c.01.06,0,.11-.05.16-.14-.04-.28-.08-.42-.1.1-.05.18-.12.26-.21.07.05.14.11.21.16Z"/>
        <path class="cls-108" d="M43.88,65.06c-.14.05-.29.08-.44.1-.11,0-.2-.02-.29-.05.22.02.43-.02.63-.1.05,0,.08.02.1.05Z"/>
      </g>
    </g>
  </g>
</svg>