<?xml version="1.0" encoding="UTF-8"?>
<svg id="Layer_2" data-name="Layer 2" xmlns="http://www.w3.org/2000/svg" viewBox="0 0 79.66 79.66">
  <defs>
    <style>
      .cls-1 {
        fill: #652789;
      }

      .cls-2 {
        opacity: .94;
      }

      .cls-2, .cls-3 {
        fill: #fff;
        fill-rule: evenodd;
        isolation: isolate;
      }

      .cls-3 {
        opacity: .89;
      }
    </style>
  </defs>
  <g id="event">
    <g id="event-2" data-name="event">
      <circle id="Event_3rd_space" data-name="Event 3rd space" class="cls-1" cx="39.83" cy="39.83" r="39.83"/>
      <g>
        <path class="cls-2" d="M38.25,6.99c.13.03.27.08.39.13.2-.08.31-.01.32.19.26-.05.49-.14.72-.26.07,0,.13.03.18.06,0,.08,0,.14.04.19.12-.08.25-.15.39-.19.12.05.18.14.18.26.33,0,.62.09.86.29.16.02.31.06.47.1.13.08.19.16.18.26.09-.08.17-.08.25,0,.19-.06.35-.14.5-.26.29.09.54.23.75.42.18.02.34.06.5.13.1.09.1.17,0,.26.15.1.32.18.5.22.1.12.07.21-.07.29-.22.03-.43.08-.65.13.16.11.29.1.39-.03.11.16.22.15.32-.03.07-.04.14-.04.22,0,.09.1.2.17.32.22.05.18.12.35.22.51.07-.13.16-.15.29-.06.07.19.1.38.11.58.18-.03.34.02.47.13-.02.15-.05.3-.07.45.24.24.46.49.65.77.02.11.05.21.07.32.47-.33.75-.23.83.29-.15.3-.23.61-.25.93.05.04.1.09.14.13.26-.2.46-.16.61.1-.15.25-.34.47-.57.67.16.04.27.12.32.26.02.17.02.34,0,.51.19-.16.42-.25.68-.26,0,.26.05.52.14.77-.02.04-.04.07-.07.1.19.08.24.19.14.35.18.16.24.35.18.58-.2.11-.38.25-.54.42.26.01.51.05.75.1.09.3-.04.46-.39.48.14.23.29.46.47.67-.02.21.08.36.29.45.04.15.03.3-.04.45.06.12.13.24.22.35-.07.12-.16.23-.29.32.05.16.12.31.22.45-.07.19-.21.25-.43.19-.19-.14-.39-.26-.61-.35-.18.3-.14.55.14.77.03.17.03.35,0,.51,1.01-.66,1.19-.51.54.45.4.19.59.48.57.89.01.49-.04.98-.14,1.47.3.03.36.15.18.38-.27.24-.55.49-.83.73.23.15.44.31.65.48.08.14.13.29.14.45-.08.19-.08.39,0,.58-.16.4-.11.78.14,1.15-.08.13-.08.25,0,.38,0,.06-.03.11-.07.16-.2.07-.41.15-.61.22.02.19.06.38.11.58.25-.01.42.08.5.29-.15.21-.36.33-.65.38.36.25.43.55.22.89.05.25,0,.5-.14.73.07.42.06.82-.04,1.21-.09.04-.17.08-.25.13.1.09.15.19.14.32-.07.35-.19.68-.36.99.1.08.17.18.22.29-.12.32-.22.63-.29.93.33.3.26.48-.22.54-.07.05-.11.12-.14.19.16.13.26.29.29.48-.09.26-.15.53-.18.8-.06.05-.12.11-.18.16.11.16.2.33.29.51-.06.1-.16.17-.29.19-.22.02-.43.04-.65.06.2.13.34.31.43.51-.03.09-.08.18-.14.26.1.08.17.18.22.29-.24.39-.24.78,0,1.15-.04.08-.11.14-.22.16-.33,0-.64.07-.93.19.05.09.1.17.14.26.21.06.42.11.65.13.08.05.12.11.14.19-.16.25-.37.45-.65.61.04.06.06.12.07.19-.1.13-.15.28-.14.45.26,0,.41.11.43.35-.02.11-.09.17-.22.19.07.07.08.14.04.22-.44.28-.55.63-.32,1.05-.02.22-.09.42-.22.61.02.1.06.18.14.26-.16.19-.21.39-.14.61-.16.26-.16.52,0,.77-.05.06-.1.13-.14.19-.17.07-.34.11-.5.13.12.07.24.15.36.22.07.12.09.25.04.38-.22.09-.45.15-.68.16-.06.06-.08.14-.07.22.16-.01.28.04.36.16-.1.17-.19.34-.29.51.33,0,.43.14.32.42-.1.09-.19.17-.29.26.07.28-.06.44-.39.48.07.11.15.14.25.1.25.19.23.36-.04.51.09.12.06.23-.07.32.08.11.07.22-.04.32-.14.1-.28.2-.39.32.14.04.26.1.36.19-.16.15-.3.31-.43.48.05.11.1.21.14.32-.1.33-.24.65-.43.96.01.05.03.09.07.13-.35.38-.58.82-.68,1.31-.1.07-.21.08-.32.03-.15-.16-.25-.34-.29-.54-.52.11-1.03.27-1.51.48-.15.12-.19.26-.11.42-.1.08-.21.08-.32,0-.04.17-.16.27-.36.29.14.02.29.04.43.06.3.31.65.58,1.04.8.04.13-.02.22-.18.26-.52-.1-1.04-.23-1.54-.38-.11.03-.2.07-.29.13-.1-.05-.21-.09-.32-.13-.05.13-.1.26-.14.38-.2.07-.33,0-.39-.19-.05-.22-.12-.44-.22-.64-.2.26-.47.39-.83.38-.06.21-.2.31-.43.29-.27-.32-.58-.61-.93-.86-.4.07-.81.08-1.22.03-.27-.26-.51-.54-.72-.83.01-.12.09-.19.22-.22.18.04.36.08.54.13.04-.02.07-.04.11-.06-.23-.04-.34-.17-.32-.38-.22.1-.34.04-.36-.19-.17.09-.34.13-.54.13,0-.27.08-.53.22-.77-.1-.07-.21-.14-.32-.19-.19-.38-.31-.76-.36-1.15.16-.09.31-.07.43.06.05-.19.05-.38,0-.58-.12,0-.25-.02-.39-.06-.02-.04-.05-.09-.07-.13.12-.16.18-.33.18-.51-.06-.1-.11-.21-.14-.32-.22.11-.38.05-.47-.16.05-.14.12-.26.22-.38-.12-.11-.23-.23-.32-.35-.09-.41-.22-.82-.39-1.21.1-.21.08-.41-.07-.61.07-.13.19-.21.36-.26-.11-.18-.25-.32-.43-.45.05-.1.13-.18.22-.26-.48,0-.6-.19-.36-.54-.06-.29-.13-.56-.22-.8.21-.31.23-.61.07-.93-.4,0-.49-.14-.29-.42-.04-.38-.18-.72-.43-1.02.06-.1.13-.2.22-.29-.09-.3-.22-.58-.39-.83v-.64c-.13-.19-.2-.41-.22-.64l-.14-.13c.03-.24.04-.47.04-.7-.07-.5-.19-.99-.36-1.47-.15.02-.25-.03-.29-.16.06-.09.11-.19.14-.29-.06-.13-.07-.25-.04-.38.28-.14.39-.35.32-.64-.15,0-.28-.04-.39-.13-.1-.29-.17-.59-.22-.89-.23-.21-.22-.39.04-.54-.15-.15-.27-.32-.36-.51.01-.05.03-.09.07-.13.14-.01.25-.06.36-.13-.07-.02-.14-.04-.22-.06-.07-.2-.2-.36-.39-.48-.06-.19-.04-.37.04-.54-.18-.22-.18-.44,0-.67-.17-.16-.24-.35-.22-.58h.36c-.01-.08.01-.16.07-.22-.18-.15-.37-.29-.57-.42.05-.18.12-.35.22-.51-.35-.03-.42-.16-.22-.38-.08-.56-.2-1.1-.36-1.63.1-.47.18-.95.22-1.44.07-.02.12-.06.14-.13-.17-.05-.34-.1-.5-.16-.08-.05-.12-.11-.14-.19.05-.16.1-.32.14-.48,0-.08-.04-.14-.11-.19-.01-.32-.02-.64-.04-.96.17-.17.27-.37.29-.61-.03-.09-.09-.17-.18-.22-.05-.14-.04-.28.04-.42-.13-.21-.27-.42-.43-.61.19-.16.24-.36.14-.61.01-.25.06-.5.14-.73-.09-.34-.09-.68,0-1.02-.15.02-.25-.03-.29-.16.12-.12.25-.24.39-.35.06-.24.02-.46-.11-.67.14-.66.33-1.31.57-1.95-.07-.1-.15-.19-.22-.29.23-.58.44-1.17.65-1.76.21-.12.42-.23.65-.32-.54-.08-.64-.3-.29-.67-.19-.19-.17-.36.07-.51-.08-.11-.09-.23-.04-.35.15-.25.32-.48.5-.7.01-.51.2-.96.57-1.34.02-.11.05-.21.07-.32.05-.09.13-.14.25-.13-.01-.08.01-.16.07-.22-.05-.06-.1-.13-.14-.19.19-.15.31-.35.36-.58.14-.04.26,0,.36.1.06-.1.04-.2-.07-.29.27-.33.5-.68.68-1.05.14-.09.26-.07.36.06.33-.34.6-.72.83-1.12.25-.13.51-.23.79-.29v-.26c.23.09.45.07.65-.06.08-.13.17-.25.29-.35.45-.1.9-.19,1.36-.26-.15-.1-.18-.22-.07-.35ZM47.58,37.14c.06.29.21.35.47.19l.11.1c-.18.08-.37.11-.57.1-.03-.14-.03-.27,0-.38Z"/>
        <path class="cls-3" d="M40.4,57.78c.47.05.82.26,1.04.64.16-.12.34-.17.54-.16.1.11.1.21,0,.32.29.04.53-.04.72-.26.1-.04.2-.03.29.03.07-.16.19-.21.36-.16.09.13.16.27.22.42.25.04.48.13.68.26.06.26.12.53.18.83.21.2.48.32.79.35.23.34.56.58.97.73.06.14.02.26-.11.35.2.2.39.4.57.61.09.05.18.1.29.13.05.14.1.28.14.42-.08.13-.09.27-.04.42.1.08.18.16.25.26-.05.21-.12.41-.22.61.08.15.08.3,0,.45.11.18.19.37.22.58-.04.2-.09.41-.14.61.21.03.43.05.65.06.01.09,0,.17-.04.26-.32.16-.5.4-.54.73.11.21.08.39-.11.54-.12-.06-.22-.15-.29-.26-.14.17-.13.32.04.48-.01.05-.02.11-.04.16-.13.07-.2.18-.22.32-.15.06-.31.07-.47.03.04.06.07.12.07.19-.11.17-.15.35-.14.54-.19,0-.24.06-.14.19-.05.09-.12.15-.22.19-.06.1-.09.21-.11.32-.34.11-.66.25-.97.42-.1.12-.16.26-.18.42-.29.11-.52.29-.68.54-.21.05-.31-.02-.32-.22-.13.07-.22.18-.25.32.12.19.08.33-.14.42-.39.06-.77.15-1.15.26-.56,0-1.11.06-1.65.16-.46-.09-.91-.07-1.36.06-.31-.15-.63-.28-.97-.38-.15.06-.31.07-.47.03-.44-.28-.87-.56-1.29-.83-.14.02-.28.02-.43,0-.09-.1-.2-.17-.32-.22-.08-.2-.17-.39-.29-.58-.05.16-.12.31-.22.45-.08.08-.17.08-.25,0,.05-.58-.18-1.05-.68-1.41-.04-.1-.05-.21-.04-.32.11.02.2,0,.29-.06.04-.1.09-.2.14-.29-.1-.02-.19-.04-.29-.06-.11-.23-.27-.43-.47-.61-.5.47-.7.39-.61-.26,0-.1.05-.17.14-.22-.12-.19-.24-.38-.36-.58.09-.13.19-.25.29-.38-.14-.03-.21-.1-.22-.22.04-.15.11-.29.22-.42-.23-.03-.35-.14-.36-.35.06-.32.18-.61.36-.89-.3-.26-.26-.49.11-.7,0-.27.14-.41.43-.45.07-.15.13-.29.18-.45-.16-.09-.28-.21-.36-.35-.01-.14.06-.22.22-.26-.29-.21-.28-.41.04-.61.02-.11.05-.21.07-.32.33-.24.7-.37,1.11-.42-.11-.15-.15-.31-.11-.48.35-.27.65-.58.9-.93.17-.06.28,0,.32.16.12-.22.33-.31.61-.29l.07-.06c-.12-.09-.17-.21-.14-.35.25,0,.48.07.68.19.18-.09.36-.18.54-.26.27.09.53.2.79.32-.03-.61.23-.76.79-.45.06-.13.17-.19.32-.19.21.03.41.07.61.13.07-.05.11-.12.14-.19ZM43.92,59.12c.09.12.06.23-.11.32-.05-.13-.01-.24.11-.32ZM35.95,59.57c.13.17.25.35.36.54-.14.04-.29.04-.43,0,.07-.17.09-.35.07-.54Z"/>
      </g>
    </g>
  </g>
</svg>