<?xml version="1.0" encoding="UTF-8"?>
<svg id="Layer_2" data-name="Layer 2" xmlns="http://www.w3.org/2000/svg" viewBox="0 0 79.66 79.66">
  <defs>
    <style>
      .cls-1 {
        fill: #5a5a5a;
      }

      .cls-2 {
        fill: #fed443;
      }

      .cls-3 {
        fill: #fcdc6f;
      }

      .cls-4 {
        fill: #fde387;
      }

      .cls-5 {
        fill: #fedb64;
      }

      .cls-6 {
        fill: #797979;
      }

      .cls-7 {
        fill: #ecba10;
      }

      .cls-8 {
        fill: #cb9f0b;
      }

      .cls-9 {
        fill: #d9aa0c;
      }

      .cls-10 {
        fill: #e9b70e;
      }

      .cls-11 {
        fill: #ffdc68;
      }

      .cls-12 {
        fill: #8c4706;
      }

      .cls-13 {
        fill: #ffd23a;
      }

      .cls-14 {
        fill: #b2e8f9;
      }

      .cls-15 {
        fill: #ffdd6b;
      }

      .cls-16 {
        fill: #ffd959;
      }

      .cls-17 {
        fill: #ffd64c;
      }

      .cls-18 {
        fill: #8f7965;
      }

      .cls-19 {
        fill: #ffd64b;
      }

      .cls-20 {
        fill: #8c4603;
      }

      .cls-21 {
        fill: #f6db7e;
      }

      .cls-22 {
        fill: #fee17d;
      }

      .cls-23 {
        fill: #929292;
      }

      .cls-24 {
        fill: #e9bb1e;
      }

      .cls-25 {
        fill: #e0b00d;
      }

      .cls-26 {
        fill: #ffe388;
      }

      .cls-27 {
        fill: #face35;
      }

      .cls-28 {
        fill: #fed239;
      }

      .cls-29 {
        fill: #feda5e;
      }

      .cls-30 {
        fill: #f1d268;
      }

      .cls-31 {
        fill: #ffdb60;
      }

      .cls-32 {
        fill: #e5c041;
      }

      .cls-33 {
        fill: #deb424;
      }

      .cls-34 {
        fill: #ffda60;
      }

      .cls-35 {
        fill: #ffdf73;
      }

      .cls-36 {
        fill: #fedd6d;
      }

      .cls-37 {
        fill: #ffde70;
      }

      .cls-38 {
        fill: #f7c929;
      }

      .cls-39 {
        fill: #ffd95b;
      }

      .cls-40 {
        fill: #fbd653;
      }

      .cls-41 {
        fill: #e9c756;
      }

      .cls-42 {
        fill: #fec912;
      }

      .cls-43 {
        fill: #ffd02f;
      }

      .cls-44 {
        fill: #ffdd6a;
      }

      .cls-45 {
        fill: #f6c418;
      }

      .cls-46 {
        fill: #d8aa0d;
      }

      .cls-47 {
        fill: #ffe079;
      }

      .cls-48 {
        fill: #f7c51a;
      }

      .cls-49 {
        fill: #f9d145;
      }

      .cls-50 {
        fill: #ffd856;
      }

      .cls-51 {
        fill: #ffe387;
      }

      .cls-52 {
        fill: #f3d262;
      }

      .cls-53 {
        fill: #fdd64f;
      }

      .cls-54 {
        fill: #f6d45c;
      }

      .cls-55 {
        fill: #d6ad22;
      }

      .cls-56 {
        fill: #ffd64a;
      }

      .cls-57 {
        fill: #ffd442;
      }

      .cls-58 {
        fill: #fede6f;
      }

      .cls-59 {
        fill: #ebca59;
      }

      .cls-60 {
        fill: #ffdb63;
      }

      .cls-61 {
        fill: #eec63e;
      }

      .cls-62 {
        fill: #fedc67;
      }

      .cls-63 {
        fill: #dfb527;
      }

      .cls-64 {
        fill: #fed853;
      }

      .cls-65 {
        fill: #fcdc70;
      }

      .cls-66 {
        fill: #fdd23e;
      }
    </style>
  </defs>
  <g id="picaxe">
    <circle id="safe_3rd_space" data-name="safe 3rd space" class="cls-14" cx="39.83" cy="39.83" r="39.83"/>
    <g id="picaxe-2" data-name="picaxe">
      <path class="cls-23" d="M31.86,9.97q.15.02.34.02h.97v.14s.09-.05.14-.07c.12,0,.25,0,.37,0,.07,0,.13,0,.2,0,.17,0,.31.02.47.08.02.05.05.09.07.14.02-.05.05-.09.07-.14.38,0,.68.02,1.04.14.33.1.67.1,1.02.11.24.02.43.09.65.16.16.02.32.05.49.07.23.05.46.11.69.18.32.08.64.14.98.17v.14h.49v.14h.62v.14q.08,0,.16,0t.32.07c.07-.02.14-.05.21-.07v.21c.11-.02.23-.05.35-.07v.14h.49c.02.07.05.14.07.21h.69v.14c.25.05.5.09.76.14v.14h.35v.14c.06,0,.13.02.19.03.2.04.32.09.5.18.14.03.28.05.42.07v.14h.21v.14h.56v.21q.27.03.56.07c.02.07.05.14.07.21q.1-.03.21-.07c.04.07.07.13.11.2q.15.24.43.26c.08,0,.15.01.23.02.02.05.05.09.07.14q.18.05.35.07v.21h.35c.02.07.05.14.07.21.09-.02.18-.05.28-.07.02.04.03.08.05.13.13.22.27.33.52.41.04,0,.08.01.12.02v.14h.14s.05.09.07.14h.35c.05.09.09.18.14.28h.35v.14q.1-.03.21-.07c.17.09.31.17.45.31q.11.12.32.2.2.11.3.3c.01.05.03.11.04.16l.28-.07v.14h.21v.14c.14.02.27.05.42.07-.02.07-.05.14-.07.21.07.02.14.05.21.07v.21c.07,0,.15.01.23.02.29.06.34.12.54.33.14.07.28.14.42.21v.14c.05.02.1.04.15.06.48.2.91.42,1.31.75.13.1.26.17.4.25q.21.13.28.29,0,.06,0,.12l.12.03c.16.04.29.11.43.18v-.21c.37-.06.67-.08,1.04,0,.02.02.05.05.07.07.11,0,.21,0,.32,0,.06,0,.11,0,.17,0,.04,0,.09,0,.13,0v-.14c.63-.09,1.08-.11,1.67.14v.14c.07.02.14.05.21.07v.21h.14c.02.18.05.37.07.56h.21v.49h-.14s.03.08.04.11c.04.21,0,.35-.07.55-.09.31-.12.48-.04.79h.14c.02.09.05.19.07.28.01.05.03.1.04.15.04.3.02.6-.04.89l-.14.07c.02.16.05.32.07.49q.06,0,.12.01c.23.08.29.23.42.43.04.07.09.14.13.21q.1.18.1.39c.07.02.14.05.21.07q.08.17.15.37c.02.07.05.14.07.21q.05.18.05.39h.14q.28.37.28.62c.07.02.14.05.21.07.12.23.14.36.14.62.09.02.18.05.28.07v.14c.07.02.14.05.21.07q.08.12.15.26s.05.1.07.14q.05.15.05.42h.14v.14c.07.02.14.05.21.07.02.16.05.32.07.49.07.02.14.05.21.07.15.22.15.3.14.56h.14v.35h.14c.04.19.07.36.07.56q.07.02.13.04.14.1.2.31c0,.07.01.13.02.2h.14c.02.07.05.14.07.21q.07.04.14.08c.22.21.2.46.21.76h.28v.35s.09.05.14.07q.01.11.02.23.02.27.23.43c.06.04.11.07.17.11-.02.09-.05.18-.07.28h.21v.62c.09.02.18.05.28.07v.49h.14c.08.21.14.41.17.64q.02.21.17.4v.28h.14v.35h.14v.62h.14c.09.28.07.55.07.83h.14c.03.11.05.22.07.33.01.06.03.12.04.19q.02.17-.05.38c.07.02.14.05.21.07-.02.07-.05.14-.07.21.02.16.04.32.07.49h.14s0,.08.01.12c.03.35.1.66.2.99v.35c.02.06.04.13.07.19.07.22.11.41.14.64.06.44.15.88.25,1.32q.03.22-.04.42c0,.12.01.25.02.37,0,.06.01.13.02.2q.02.19.1.36c.08.21.08.39.08.61,0,.07,0,.15,0,.22q0,.08,0,.17s-.09.05-.14.07c.05.02.09.05.14.07q.03.15.04.33c0,.06.01.12.02.18,0,.18.01.35.01.53v.28q0,1.06-.03,1.34c-.03.32-.04.64-.03.96,0,.41-.04.77-.14,1.18.02.09.04.19.07.28-.02.12-.04.23-.07.35-.02.17-.03.35-.04.52-.03.19-.09.34-.17.52-.03.12-.05.25-.07.37-.23,1.01-.65,2.01-1.1,2.94q-.08.16-.15.37c-.07-.02-.14-.05-.21-.07q-.06-.14-.11-.32c-.02-.06-.03-.13-.05-.19q-.04-.18-.08-.43-.02-.24-.14-.47c-.12-.3-.14-.61-.16-.93q0-.08-.01-.16c-.01-.27-.02-.47.14-.69h-.14c0-.06,0-.12,0-.19,0-.08,0-.16,0-.25q0-.12,0-.24c0-.19-.03-.32-.08-.5,0-.11,0-.21,0-.32,0-.2,0-.32-.07-.52q-.03-.49.07-.69s-.09-.05-.14-.07v-.21h.14c-.03-.06-.06-.13-.09-.19-.17-.4-.33-.87-.32-1.31,0-.19-.05-.29-.13-.46-.13-.27-.2-.53-.26-.82q-.03-.15-.1-.34c-.05-.18-.09-.35-.13-.53-.01-.05-.02-.09-.04-.14-.06-.25-.12-.5-.17-.75-.07-.32-.17-.63-.28-.94-.13-.37-.24-.73-.31-1.11-.05-.2-.12-.38-.19-.57-.06-.16-.09-.32-.12-.48-.11-.48-.3-.91-.51-1.35-.12-.24-.23-.48-.32-.74-.13-.33-.29-.64-.45-.96-.12-.23-.22-.46-.31-.71-.1-.27-.23-.51-.38-.76-.35-.58-.62-1.2-.9-1.81-.19-.41-.38-.81-.61-1.2q-.06-.12-.06-.26h-.14q-.21-.4-.21-.56s-.09-.03-.13-.05c-.18-.11-.2-.19-.26-.39-.06-.21-.12-.41-.23-.6-.07-.02-.14-.05-.21-.07-.03-.09-.05-.18-.07-.28-.05-.02-.09-.05-.14-.07-.03-.16-.05-.32-.07-.49h-.21s.05-.09.07-.14c-.05-.02-.09-.05-.14-.07q-.07-.07-.07-.25c0-.06,0-.11,0-.17h-.21c-.02-.14-.05-.27-.07-.42-.07-.02-.14-.05-.21-.07-.02-.06-.04-.11-.06-.17-.11-.33-.3-.59-.5-.87-.04-.05-.08-.11-.11-.16q-.18-.27-.44-.46-.04-.18-.07-.35c-.07-.02-.14-.05-.21-.07q-.14-.21-.14-.42h-.14q-.28-.47-.28-.62h-.14c-.05-.11-.09-.23-.14-.35h-.35v.14h-.21s-.05.09-.07.14c-.25,0-.29-.06-.49-.21q-.15-.05-.28-.07v-.14c-.12.05-.23.09-.35.14-.05.02-.1.04-.16.06q-.13.07-.16.22s-.02.09-.03.14l-.14.14h-.21l-.14.28h-.14s-.01.08-.02.12c-.07.2-.17.3-.33.43h-.14q-.04.1-.09.2-.12.21-.26.26s-.09.01-.13.02c-.05.07-.09.14-.14.21h-.14c-.02.11-.05.23-.07.35h-.28v.21q-.09.12-.21.21h-.21q-.02.08-.05.16c-.11.23-.23.32-.44.47-.06.05-.12.1-.19.15q-.16.13-.3.2c.02.07.05.14.07.21-.04,0-.09.01-.13.02q-.16.04-.22.19s-.04.09-.07.14c-.07.02-.14.05-.21.07-.05-.02-.09-.05-.14-.07,0,.09,0,.17,0,.26q-.02.15-.06.29-.21.13-.42.21c-.02.07-.05.14-.07.21q-.1.1-.23.21s-.09.07-.13.11c-.09.07-.19.15-.29.22q-.13.09-.18.3h-.28s-.02.08-.03.13q-.04.15-.18.36h-.28v.28s-.09.05-.14.07v.14h-.28s-.03.08-.05.13q-.09.15-.23.25-.15.1-.21.29c-.02.05-.05.11-.07.16q-.14.04-.28.07c-.02.07-.05.14-.07.21q-.1.12-.21.21h-.14v.14q-.3.21-.49.21c-.02.06-.04.13-.06.19-.08.21-.13.35-.29.5-.06,0-.11.02-.17.03-.06.01-.11.03-.17.04l-.1.21-.1.21q-.19.06-.35.07v.35c.07-.02.14-.05.21-.07.21.12.27.18.35.42.06.02.11.04.17.07.06.02.11.05.17.07q.06.15.07.28s.09.01.13.02q.07.02.14.05c.02.07.05.14.07.21h.14v.14h.14q.11.09.21.21v.21c.11.02.23.05.35.07v.28h.28c.02.07.05.14.07.21q.14.05.28.07v.21c.11.07.23.14.35.21.02.07.05.14.07.21l-.07.14c.09-.02.18-.05.28-.07q0,.06.01.13.04.17.23.23.08.03.17.05v.14s.09.05.14.07v.14h.14l.07.14h.14v.35h.21v.14h.14v.14h.14q.11.1.21.21v.14s.09.05.14.07l.14.28s.09.05.14.07v.14c.07.02.14.05.21.07v.21s.09.05.14.07v.14h.14s.02.08.03.13q.06.26.22.46.1.1.1.31c.07.02.14.05.21.07q.06.14.11.31.04.17.1.31s.09.05.14.07c.04.16.07.32.1.48q.01.07.03.15c.03.16.06.32.08.48.02.1.03.2.05.31.1.61.2,1.22.29,1.83.03.21.07.42.11.63.05.27.09.59-.04.85h-.21s-.02.08-.03.13c-.03.12-.07.24-.11.36-.07.02-.14.05-.21.07q-.12.21-.21.42h-.14v.21c-.07.05-.14.09-.21.14v.14c-.07.05-.14.09-.21.14q-.23.26-.42.56c-.07.02-.14.05-.21.07-.02.05-.05.09-.07.14h-.14v.14h-.21c-.1.18-.16.35-.21.56h-.21c-.02.07-.05.14-.07.21h-.14v.21c-.11.12-.23.23-.35.35-.05.06-.1.13-.15.2-.04.05-.08.1-.13.15h-.14c-.02.07-.05.14-.07.21h-.14s-.03.1-.05.15c-.14.32-.32.58-.57.82-.02.05-.05.09-.07.14h-.14c-.07.18-.15.37-.21.56q-.08.01-.16.03c-.18.04-.31.09-.47.18-.02.05-.05.09-.07.14h-.14l.07.28h-.14v.14c-.32.02-.51,0-.76-.21q-.06-.19-.07-.35s-.08.03-.12.05q-.16.02-.33-.1c-.06-.05-.12-.1-.18-.16-.18-.11-.36-.21-.54-.32q-.08-.05-.15-.1v-.14s-.1-.04-.15-.06c-.4-.16-.67-.32-.96-.64-.12-.09-.23-.19-.35-.28-.09-.09-.19-.18-.28-.28-.05-.05-.1-.1-.16-.15q-.12-.13-.12-.27c-.07-.02-.14-.05-.21-.07v-.14c-.07.02-.14.05-.21.07q-.04-.08-.08-.15c-.15-.23-.33-.38-.55-.54q-.5-.4-.62-.56v-.14s-.09-.05-.14-.07c-.34-.22-.56-.37-.69-.76-.09-.03-.18-.05-.28-.07q-.18-.16-.35-.35s-.08-.08-.13-.12q-.08-.09-.08-.23s-.09-.03-.13-.05c-.18-.11-.16-.17-.21-.36-.04-.02-.08-.04-.13-.06-.17-.09-.26-.17-.38-.32-.04-.04-.07-.08-.11-.13q-.08-.11-.08-.25h-.14c-.07-.07-.14-.14-.21-.21-.15-.11-.29-.21-.44-.32-.04-.03-.08-.06-.11-.1v-.14h-.14q-.21-.24-.21-.42c-.11-.05-.23-.09-.35-.14v-.21q-.06-.01-.13-.02c-.17-.05-.24-.12-.36-.26-.05-.02-.09-.05-.14-.07v-.21c-.2-.04-.31-.02-.48.09q-.25.21-.43.47h-.14c-.02.07-.05.14-.07.21h-.21c-.02.09-.05.18-.07.28h-.21c-.02.05-.03.11-.05.16-.1.21-.16.22-.36.32-.02.09-.05.18-.07.28q-.13.16-.28.28h-.28v.28q-.16.19-.35.35h-.14v.14c-.07.02-.14.05-.21.07-.06.07-.11.14-.17.21-.06.07-.12.13-.18.2h-.28c.02.07.05.14.07.21q-.1.1-.21.21h-.14q-.07.17-.14.35c-.11-.02-.23-.05-.35-.07v.49h-.21v.21c-.07.02-.14.05-.21.07q-.03.06-.05.13-.09.15-.33.24-.12.06-.24.11c-.05.14-.09.28-.14.42q-.11.08-.24.15c-.23.12-.3.16-.38.41h-.14q-.07.17-.14.35h-.21q-.07.17-.14.35h-.28c0,.07,0,.13-.01.2-.02.07-.04.14-.06.22-.11.05-.23.1-.35.14q-.05.17-.07.35c-.05.07-.09.14-.14.21h-.14v.14h-.21q-.01.06-.02.13c-.05.17-.12.25-.26.36h-.14v.21h-.21q-.03.06-.05.12c-.1.19-.22.35-.36.51h-.14v.14q-.07.01-.13.02s-.09.03-.14.05c-.02.07-.05.14-.07.21h-.14l-.07.28h-.21v.14c-.11.1-.23.2-.35.3q-.1.08-.21.17c-.07.05-.13.11-.2.16q-.32.24-.56.56h-.14q-.03.07-.06.13-.08.14-.29.21-.05.14-.07.28h-.14c-.02.07-.05.14-.07.21q-.14.05-.28.07v.14h-.14v.21c-.11.07-.23.14-.35.21-.04.04-.08.08-.12.12t-.09.09h-.14q0,.08-.02.16c-.06.23-.15.32-.33.47h-.14q-.03.06-.05.12c-.1.18-.21.3-.36.44-.05.05-.09.09-.14.14-.14.12-.26.19-.42.26-.09.12-.19.23-.28.35-.12.11-.25.21-.38.31q-.12.1-.18.26s-.04.08-.07.13c-.12.02-.23.05-.35.07-.02.04-.03.08-.05.13-.13.22-.3.27-.53.37-.08.03-.16.07-.24.1q-.11.05-.22.09c-.05.03-.1.06-.15.08-.17.08-.3.03-.47-.03-.25-.11-.48-.24-.69-.41v-.14c-.07-.02-.14-.05-.21-.07-.24-.29-.23-.55-.21-.9,0-.06,0-.11,0-.17.02-.41.12-.66.38-.98q.11-.1.32-.1v-.28c.05-.02.11-.03.16-.05q.2-.08.27-.27c.02-.05.03-.11.05-.16h.14v-.14q.16-.18.35-.35h.28q.01-.06.02-.13.05-.15.26-.29c.02-.07.05-.14.07-.21q.31-.28.49-.28.07-.17.14-.35h.21q.01-.07.02-.13s.03-.09.05-.14c.07-.02.14-.05.21-.07.08-.12.17-.24.25-.36.14-.19.33-.33.51-.47.21-.2.38-.36.49-.62h.14s.05-.09.07-.14h.14v-.14c.09-.09.18-.19.28-.28.02-.05.05-.09.07-.14.07-.02.13-.04.2-.06q.22-.06.28-.24c.02-.06.05-.13.07-.19.13-.15.26-.29.42-.42h.14c.02-.07.05-.14.07-.21.09-.09.18-.19.28-.28.02-.05.05-.09.07-.14h.21v-.21h.28v-.28h.21v-.14c.07-.05.14-.09.21-.14.02-.05.03-.11.05-.16.1-.2.14-.23.33-.33q.25-.1.28-.27s.02-.09.03-.14c.14-.1.28-.19.42-.28.02-.05.05-.09.07-.14q.14-.08.28-.14v-.14h.14c.02-.07.05-.14.07-.21h.14v-.21c.11-.07.23-.14.35-.21.19-.17.27-.25.35-.49.27-.3.52-.5.9-.62q.01-.06.03-.12c.07-.25.21-.39.39-.58h.21v-.21q.1-.09.24-.17.22-.14.32-.38h.21c.02-.11.05-.23.07-.35.07-.02.13-.03.2-.05.07-.03.14-.06.21-.09q.05-.13.07-.28.23-.21.42-.21c.02-.05.04-.11.06-.16.08-.18.14-.28.29-.39h.21c.02-.11.05-.23.07-.35h.21v-.21c.11.02.23.05.35.07-.02-.11-.05-.23-.07-.35.05-.02.11-.03.16-.05q.2-.07.25-.26c.02-.06.05-.11.07-.17.11-.05.23-.1.35-.14q.08-.13.14-.28.1-.11.21-.21s.07-.07.1-.11c.13-.11.22-.14.39-.16q.07-.19.07-.42c-.15-.18-.27-.31-.48-.41-.16-.09-.24-.18-.35-.32-.14-.18-.18-.23-.41-.31q-.05-.14-.07-.28c-.05,0-.11,0-.16-.01-.25-.07-.27-.19-.39-.4h-.21s-.05-.09-.07-.14h-.14c-.02-.07-.05-.14-.07-.21-.2-.21-.41-.39-.68-.49-.19-.08-.21-.16-.29-.34-.07-.02-.14-.05-.21-.07q-.05-.14-.07-.28h-.14v-.14h-.14s-.05-.09-.07-.14h-.14v-.14c-.09.02-.18.05-.28.07.02-.11.05-.23.07-.35h-.14v.14h-.14c-.17-.23-.21-.33-.21-.62q-.08,0-.16.01c-.23-.02-.31-.06-.47-.22v-.21c-.07.02-.14.05-.21.07-.05-.11-.09-.23-.14-.35h-.21l-.07-.14h-.14c-.09-.11-.19-.23-.28-.35-.05-.02-.09-.05-.14-.07-.07-.2-.07-.36-.04-.57,0-.05.01-.1.02-.15,0-.06.02-.12.02-.18.04-.28.07-.56.1-.84.05-.47.11-.93.18-1.39q.09-.56,0-1.1h.14q0-.07,0-.13c0-.06,0-.11,0-.17,0-.06,0-.11,0-.17q0-.15.08-.29c0-.13-.01-.25-.02-.38q0-.21.02-.39.17-.15.35-.21c-.02-.14-.05-.27-.07-.42.07-.02.14-.05.21-.07l.07-.14h.14v-.14c.07-.05.14-.09.21-.14v-.14c.07-.02.14-.05.21-.07.02-.07.05-.14.07-.21h.14c.02-.07.05-.14.07-.21q.3-.33.56-.42c.02-.06.05-.11.07-.17.02-.06.05-.11.07-.17.07-.02.14-.05.21-.07q.08-.14.14-.28h.14c.02-.07.05-.14.07-.21h.14q.02-.08.05-.15c.11-.24.25-.37.44-.54.1-.09.19-.18.28-.28v-.14s.09-.05.14-.07v-.14q.06,0,.12-.01c.23-.08.35-.22.51-.4q.06-.15.07-.28h.14c.05-.07.09-.14.14-.21.05-.05.09-.09.14-.14q.03-.14.04-.29.01-.13.03-.27h.21s.05-.09.07-.14c.34-.03.55.05.84.21q.14.08.34.14v-.14c.11-.02.23-.05.35-.07v.14c.07.02.14.04.22.06.23.07.46.14.69.22-.02.09-.05.18-.07.28.11-.02.23-.05.35-.07v.14h.21v.14h.14c.02.09.05.18.07.28.09.02.18.05.28.07v.28c.05,0,.11,0,.16.01.06.02.12.04.18.06q.03.09.07.17c.02.06.05.11.07.17.14.03.28.05.42.07q.14.13.28.28.09.07.19.15c.05.04.1.09.16.13v.14c.09.02.18.05.28.07v.14c.09.02.18.05.28.07-.02.11-.05.23-.07.35.09-.05.18-.09.28-.14.05.14.09.27.14.42h.21v.14c.06.02.11.04.17.06.06.03.12.05.18.08.02.07.05.14.07.21.04,0,.09.02.13.03q.15.04.27.21.09.18.09.32c.07.02.14.05.21.07v.14c.07-.02.14-.05.21-.07.05.02.09.05.14.07v.28h.35v.21h.21v.35c.11.02.23.05.35.07v.21q.08.03.16.05.18.09.25.23s.05.09.07.13c.06.01.11.02.17.03q.18.04.3.2.08.18.08.39c.16.02.32.05.49.07v.21c.11.02.23.05.35.07.05.16.09.32.14.49.37-.13.52-.24.76-.56h.21c-.02-.11-.05-.23-.07-.35.17-.13.28-.21.49-.28q.3-.26.42-.62c.11-.02.23-.05.35-.07,0-.04.01-.08.02-.12.07-.2.16-.28.33-.42.05-.04.1-.09.15-.13q.13-.1.27-.1s.01-.08.02-.12c.09-.26.32-.39.53-.57.16-.16.21-.29.29-.49.07-.02.14-.05.21-.07.02-.04.04-.09.06-.13.11-.19.22-.22.43-.28v-.21q.06,0,.13-.01c.21-.08.25-.21.36-.4.07-.02.14-.05.21-.07.01-.05.02-.09.03-.14.01-.05.02-.09.03-.14.07-.02.14-.05.21-.07.05-.07.09-.14.14-.21h.14v-.21h.21v-.21c.07-.02.14-.05.21-.07.05-.07.09-.14.14-.21h.14c.02-.07.05-.14.07-.21.09-.09.18-.19.28-.28.04-.06.09-.11.13-.17.15-.19.32-.36.49-.53q.08-.08.16-.17c.18-.17.36-.33.55-.49.16-.14.31-.29.47-.45q.28-.28.42-.35c.02-.07.05-.14.07-.21h.21v-.21h.14c.02-.07.05-.14.07-.21h.21q0-.06,0-.12c.09-.23.27-.3.48-.43.02-.07.05-.14.07-.21.09-.1.18-.19.28-.28q-.07-.07-.13-.14c-.17-.25-.21-.39-.21-.69.07-.29.13-.55.35-.76-.08-.07-.15-.14-.23-.2-.04-.04-.09-.08-.13-.11q-.13-.11-.33-.17v-.21s-.08-.01-.13-.02c-.17-.05-.25-.12-.36-.26v-.14s-.1.02-.15.03c-.26-.04-.32-.16-.48-.36-.18-.2-.38-.36-.59-.53-.04-.03-.08-.06-.12-.09-.22-.17-.4-.27-.68-.3v-.21h-.35c-.02-.09-.05-.18-.07-.28q-.08,0-.16,0-.18,0-.32-.07v-.14c-.07-.02-.14-.05-.21-.07.02-.07.05-.14.07-.21-.04.01-.08.03-.13.04q-.15.03-.36-.04l-.07-.14c-.11-.05-.23-.1-.35-.14v-.14h-.14l-.07-.14c-.14-.05-.28-.1-.42-.14v-.14c-.05,0-.1,0-.15-.01-.25-.07-.36-.21-.54-.4-.07-.02-.14-.05-.21-.07v-.14s-.1-.04-.15-.05c-.22-.09-.44-.2-.65-.32-.04-.02-.09-.05-.13-.07-.14-.07-.27-.15-.41-.22-.05-.02-.09-.05-.14-.08-.59-.32-1.18-.64-1.75-.98-.36-.21-.72-.4-1.1-.58-.24-.12-.48-.25-.72-.37q-1.45-.8-3.01-1.35c-.18-.05-.36-.11-.53-.16-.05-.02-.1-.03-.15-.05-.44-.14-.88-.28-1.32-.44-.62-.22-1.25-.42-1.89-.6-.5-.14-.98-.27-1.46-.49-.16-.05-.32-.1-.49-.14-.13-.04-.26-.07-.39-.11-.22-.06-.43-.12-.65-.17v-.14q-.21.03-.42.07v-.14c-.08.01-.16.03-.24.04-.32.04-.62,0-.94-.04v-.14c-.08.01-.17.03-.26.04-.26.03-.4-.01-.65-.11-.23-.01-.46,0-.69,0-.22,0-.43-.01-.66-.03-.06,0-.13-.01-.2-.02-.34-.04-.64-.12-.96-.23-.17-.05-.34-.1-.51-.15-.05-.01-.11-.03-.16-.04-.11-.03-.22-.06-.32-.09-.13-.04-.26-.08-.39-.13q-.03-.1-.07-.21,3.87-1.36,5.35-1.32c.21,0,.4-.02.61-.05.58-.06,1.18-.03,1.76.04ZM32.48,28.11s-.05.09-.07.14h.14s-.05-.09-.07-.14Z"/>
      <path class="cls-42" d="M44.35,37.97c.22.12.27.17.35.42.06.02.11.04.17.07.06.02.11.05.17.07q.06.15.07.28t.13.02s.09.03.14.05l.07.21h.14v.14h.14q.11.09.21.21v.21l.35.07v.28h.28c.02.07.05.14.07.21q.14.05.28.07v.21c.11.07.23.14.35.21.02.07.05.14.07.21-.02.05-.05.09-.07.14.09-.02.18-.05.28-.07,0,.04,0,.09.01.13q.04.17.23.23c.06.02.11.03.17.05v.14s.09.05.14.07v.14h.14s.05.09.07.14h.14v.35h.21v.14h.14v.14h.14q.11.1.21.21v.14s.09.05.14.07c.05.09.09.19.14.28.05.02.09.05.14.07v.14c.07.02.14.05.21.07v.21s.09.05.14.07v.14h.14q.02.06.03.13.06.26.22.46.1.1.1.31c.07.02.14.05.21.07q.06.14.11.31.04.17.1.31s.09.05.14.07c.04.16.07.32.1.48,0,.05.02.1.03.15.03.16.06.32.08.48.02.1.03.2.05.31.1.61.2,1.22.29,1.83.03.21.07.42.11.63.05.27.09.59-.04.85h-.21s-.02.08-.03.13c-.03.12-.07.24-.11.36-.07.02-.14.05-.21.07q-.12.21-.21.42h-.14v.21c-.07.05-.14.09-.21.14v.14c-.07.05-.14.09-.21.14q-.23.26-.42.56c-.07.02-.14.05-.21.07l-.07.14h-.14v.14h-.21c-.1.18-.16.35-.21.56h-.21c-.02.07-.05.14-.07.21h-.14v.21c-.11.12-.23.23-.35.35-.05.06-.1.13-.15.2-.04.05-.08.1-.13.15h-.14c-.02.07-.05.14-.07.21h-.14s-.03.1-.05.15c-.14.32-.32.58-.57.82-.02.05-.05.09-.07.14h-.14c-.07.18-.15.37-.21.56-.05,0-.1.02-.16.03-.18.04-.31.09-.47.18-.02.05-.05.09-.07.14h-.14c.02.09.05.18.07.28h-.14v.14c-.32.02-.51,0-.76-.21q-.06-.19-.07-.35s-.08.03-.12.05q-.16.02-.33-.1c-.06-.05-.12-.1-.18-.16-.18-.11-.36-.21-.54-.32q-.08-.05-.15-.1v-.14s-.1-.04-.15-.06c-.4-.16-.67-.32-.96-.64-.12-.09-.23-.19-.35-.28-.09-.09-.19-.18-.28-.28-.05-.05-.1-.1-.16-.15q-.12-.13-.12-.27c-.07-.02-.14-.05-.21-.07v-.14c-.07.02-.14.05-.21.07-.03-.05-.05-.1-.08-.15-.15-.23-.33-.38-.55-.54q-.5-.4-.62-.56v-.14s-.09-.05-.14-.07c-.34-.22-.56-.37-.69-.76-.09-.03-.18-.05-.28-.07q-.18-.16-.35-.35s-.08-.08-.13-.12q-.08-.09-.08-.23-.07-.03-.13-.05c-.18-.11-.16-.17-.21-.36-.04-.02-.08-.04-.13-.06-.17-.09-.26-.17-.38-.32-.04-.04-.07-.08-.11-.13q-.08-.11-.08-.25h-.14c-.07-.07-.14-.14-.21-.21-.15-.11-.29-.21-.44-.32q-.06-.05-.11-.1v-.14h-.14q-.21-.24-.21-.42c-.11-.05-.23-.09-.35-.14v-.21q-.06-.01-.13-.02c-.17-.05-.24-.12-.36-.26l-.14-.07v-.21c-.09-.02-.18-.05-.28-.07q.03-.38.19-.53c.11-.07.23-.13.35-.2.05-.03.1-.07.16-.1v-.21h.21v-.14h.14v-.42q.1-.03.21-.07.03.07.07.14c.08-.08.16-.16.24-.23.04-.04.09-.09.13-.13q.12-.11.18-.26h.14v-.28h.21s.05-.09.07-.14h.21s.02-.09.03-.13q.04-.15.18-.29.15-.04.28-.07v-.35c.07-.02.14-.05.21-.07q.15-.19.14-.35.08-.02.16-.03.18-.03.32-.11v-.28c.16-.08.31-.15.49-.21.02-.07.04-.13.06-.2.09-.26.19-.3.43-.43v-.14c.11-.02.23-.05.35-.07.02-.06.04-.13.06-.2.11-.28.2-.38.46-.53.2-.13.31-.27.46-.46.06-.05.12-.09.18-.14q.18-.13.28-.32c.11-.18.18-.23.38-.3v-.21c.06-.02.11-.04.17-.06q.09-.04.18-.08.03-.1.07-.21c.06-.02.11-.04.17-.06.06-.03.11-.05.17-.08q.06-.21.07-.42c.05,0,.11,0,.16,0q.21-.04.3-.26c.03-.07.07-.14.1-.21.09-.05.18-.1.28-.14q.06-.14.07-.28c.09-.02.18-.05.28-.07v-.14c.17-.28.47-.25.76-.21Z"/>
      <path class="cls-45" d="M31.3,27.76c.34-.03.55.05.84.21q.14.08.34.14v-.14q.17-.03.35-.07v.14q.11.03.22.06c.23.07.46.14.69.22-.02.09-.05.18-.07.28q.17-.03.35-.07v.14h.21v.14h.14q.03.14.07.28l.28.07v.28q.08,0,.16.01c.06.02.12.04.18.06.02.06.04.11.07.17.02.06.05.11.07.17.14.03.28.05.42.07q.14.13.28.28t.19.15c.05.04.1.09.16.13v.14c.09.02.18.05.28.07v.14c.09.02.18.05.28.07-.02.11-.05.23-.07.35l.28-.14q.07.21.14.42h.21v.14c.06.02.11.04.17.06.06.03.12.05.18.08.02.07.05.14.07.21.04,0,.09.02.13.03q.15.04.27.21.09.18.09.32c.07.02.14.05.21.07v.14c.07-.02.14-.05.21-.07.05.02.09.05.14.07v.28h.35v.21h.21v.35c.11.02.23.05.35.07v.21q.08.03.16.05.18.09.25.23s.05.09.07.13c.06.01.11.02.17.03q.18.04.3.2.08.18.08.39c.16.02.32.05.49.07v.21h.16q.19.07.26.19c.09.22.14.4.13.63-.1.23-.26.32-.48.43-.02.07-.05.14-.07.21-.14.12-.28.23-.42.35v.14c-.07.03-.13.06-.2.09q-.23.1-.36.33h-.14c0,.05-.01.11-.02.16q-.05.18-.19.26-.07.03-.14.06c-.05.07-.09.14-.14.21-.07.02-.14.05-.21.07q-.12.21-.21.42h-.28q-.02.06-.05.11c-.22.39-.54.72-.89.99q-.18.14-.33.33c-.04.05-.08.1-.13.16h-.14q-.02.08-.05.16c-.11.23-.22.27-.44.39-.32.28-.57.59-.81.94-.03.03-.06.07-.09.1h-.21c-.02.06-.04.11-.06.17-.03.06-.05.12-.08.18-.07.02-.14.05-.21.07-.05.07-.09.14-.14.21-.14.22-.25.3-.49.42-.05.07-.09.14-.14.21h-.21v.28h-.21v.28h-.28l-.07.28h-.14v.21h-.21v.14q-.13.15-.28.28h-.14c-.02.07-.05.14-.07.21h-.14s0,.08,0,.12c-.11.26-.3.32-.55.43q-.14-.07-.3-.24-.16-.18-.32-.24c-.16-.09-.24-.18-.35-.32-.14-.18-.18-.23-.41-.31q-.05-.14-.07-.28c-.05,0-.11,0-.16-.01-.25-.07-.27-.19-.39-.4h-.21s-.05-.09-.07-.14h-.14c-.02-.07-.05-.14-.07-.21-.2-.21-.41-.39-.68-.49-.19-.08-.21-.16-.29-.34-.07-.02-.14-.05-.21-.07q-.05-.14-.07-.28h-.14v-.14h-.14s-.05-.09-.07-.14h-.14v-.14c-.09.02-.18.05-.28.07.02-.11.05-.23.07-.35h-.14v.14h-.14c-.17-.23-.21-.33-.21-.62-.05,0-.1,0-.16.01-.23-.02-.31-.06-.47-.22v-.21c-.07.02-.14.05-.21.07q-.07-.17-.14-.35h-.21l-.07-.14h-.14c-.09-.11-.19-.23-.28-.35-.05-.02-.09-.05-.14-.07-.07-.2-.07-.36-.04-.57,0-.05.01-.1.02-.15,0-.06.02-.12.02-.18.04-.28.07-.56.1-.84.05-.47.11-.93.18-1.39q.09-.56,0-1.1h.14s0-.09,0-.13c0-.06,0-.11,0-.17,0-.06,0-.11,0-.17q0-.15.08-.29c0-.13-.01-.25-.02-.38q0-.21.02-.39.17-.15.35-.21-.03-.21-.07-.42.1-.03.21-.07.03-.07.07-.14h.14v-.14q.1-.07.21-.14v-.14q.1-.03.21-.07.03-.1.07-.21h.14q.03-.1.07-.21.3-.33.56-.42c.02-.06.05-.11.07-.17.02-.06.05-.11.07-.17.07-.02.14-.05.21-.07q.08-.14.14-.28h.14c.02-.07.05-.14.07-.21h.14q.02-.08.05-.15c.11-.24.25-.37.44-.54.1-.09.19-.18.28-.28v-.14l.14-.07v-.14s.08,0,.12-.01c.23-.08.35-.22.51-.4q.06-.15.07-.28h.14c.05-.07.09-.14.14-.21.05-.05.09-.09.14-.14q.03-.14.04-.29.01-.13.03-.27h.21l.07-.14ZM32.48,28.11s-.05.09-.07.14h.14s-.05-.09-.07-.14Z"/>
      <path class="cls-20" d="M52.55,25.19s.03.09.05.13q.08.16.27.2c.05,0,.11.01.16.02.02.09.05.18.07.28h.14v.21c.05.02.1.03.16.05.23.11.33.23.47.44v.14s.08.04.13.06c.15.08.25.15.36.29v.21l.21.07c-.03.19-.06.27-.2.4q-.14.09-.28.09s-.02.09-.03.13q-.04.15-.18.29h-.21l-.14.28h-.14s-.01.08-.02.12c-.07.2-.17.3-.33.43h-.14q-.04.1-.09.2t-.26.26s-.09.01-.13.02c-.05.07-.09.14-.14.21h-.14c-.02.11-.05.23-.07.35h-.28v.21q-.09.12-.21.21h-.21q-.02.08-.05.16c-.11.23-.23.32-.44.47-.06.05-.12.1-.19.15q-.16.13-.3.2c.02.07.05.14.07.21-.04,0-.09.01-.13.02q-.16.04-.22.19s-.04.09-.07.14q-.1.03-.21.07s-.09-.05-.14-.07c0,.09,0,.17,0,.26q-.02.15-.06.29-.21.13-.42.21c-.02.07-.05.14-.07.21q-.1.1-.23.21s-.09.07-.13.11c-.09.07-.19.15-.29.22q-.13.09-.18.3h-.28s-.02.08-.03.13q-.04.15-.18.36h-.28v.28s-.09.05-.14.07v.14h-.28s-.03.08-.05.13q-.09.15-.23.25-.15.1-.21.29c-.02.05-.05.11-.07.16q-.14.04-.28.07c-.02.07-.05.14-.07.21q-.1.12-.21.21h-.14v.14q-.3.21-.49.21c-.02.06-.04.13-.06.19-.08.21-.13.35-.29.5-.06,0-.11.02-.17.03-.06.01-.11.03-.17.04l-.1.21-.1.21q-.19.06-.35.07v.28h-.35c-.02.07-.05.14-.07.21h-.14v.14c-.09.02-.18.05-.28.07v.35c-.11.05-.23.09-.35.14v.21h-.14c-.05.09-.09.18-.14.28-.09-.02-.18-.05-.28-.07,0,.06,0,.13-.01.2q-.06.22-.23.34c-.06.03-.11.06-.17.09v.21c-.11.05-.23.09-.35.14l.07.14q-.08.04-.16.09-.19.1-.26.27s-.04.09-.07.13c-.09.03-.18.05-.28.07-.02.07-.05.14-.07.21q-.5.54-.77.58s-.09.03-.13.05q-.09.2-.14.42l-.07.14q-.18.04-.35.07c.02.07.05.14.07.21q-.21.14-.42.14s-.01.08-.02.12c-.06.18-.13.29-.26.43h-.14l-.07.14s-.09-.05-.14-.07c-.02.14-.05.27-.07.42q-.26.08-.42,0v.14s.09.05.14.07c-.11.12-.2.2-.35.28-.05-.02-.09-.05-.14-.07.02.07.05.14.07.21-.1.21-.29.29-.49.42-.02.07-.05.14-.07.21-.18.11-.27.14-.49.14v.28h-.14s-.04.08-.05.12c-.09.17-.19.26-.34.38-.04.04-.09.07-.13.11-.03.03-.07.05-.1.08-.05-.02-.09-.05-.14-.07-.02.11-.05.23-.07.35h-.14v.14s-.09.05-.14.07c-.02.07-.05.14-.07.21q-.11.1-.24.19s-.09.06-.13.09q-.12.07-.26.07v.18c-.09.31-.25.42-.5.62q-.13.1-.2.24h-.14c-.02.07-.05.14-.07.21h-.21c-.02.09-.05.18-.07.28h-.21q-.03.08-.05.16c-.1.21-.16.22-.36.32-.02.09-.05.18-.07.28q-.13.16-.28.28h-.28v.28q-.16.19-.35.35h-.14v.14c-.07.02-.14.05-.21.07-.06.07-.11.14-.17.21-.06.07-.12.13-.18.2h-.28c.02.07.05.14.07.21q-.1.1-.21.21h-.14c-.05.11-.09.23-.14.35-.11-.02-.23-.05-.35-.07v.49h-.21v.21c-.07.02-.14.05-.21.07l-.05.13q-.09.15-.33.24-.12.06-.24.11c-.05.14-.09.28-.14.42q-.11.08-.24.15c-.23.12-.3.16-.38.41h-.14c-.05.11-.09.23-.14.35h-.21c-.05.11-.09.23-.14.35h-.28c0,.07,0,.13-.01.2-.02.07-.04.14-.06.22-.11.05-.23.1-.35.14q-.05.17-.07.35c-.05.07-.09.14-.14.21h-.14v.14h-.21s-.01.08-.02.13c-.05.17-.12.25-.26.36h-.14v.21h-.21q-.03.06-.05.12c-.1.19-.22.35-.36.51h-.14v.14s-.09.01-.13.02c-.05.02-.09.03-.14.05-.02.07-.05.14-.07.21h-.14c-.02.09-.05.18-.07.28h-.21v.14c-.11.1-.23.2-.35.3-.07.06-.14.11-.21.17-.07.05-.13.11-.2.16q-.32.24-.56.56h-.14s-.04.09-.06.13q-.08.14-.29.21-.05.14-.07.28h-.14c-.02.07-.05.14-.07.21q-.14.05-.28.07v.14h-.14v.21c-.11.07-.23.14-.35.21-.04.04-.08.08-.12.12t-.09.09h-.14q0,.08-.02.16c-.06.23-.15.32-.33.47h-.14q-.03.06-.05.12c-.1.18-.21.3-.36.44-.05.05-.09.09-.14.14-.14.12-.26.19-.42.26-.09.12-.19.23-.28.35-.12.11-.25.21-.38.31q-.12.1-.18.26s-.04.08-.07.13c-.12.02-.23.05-.35.07-.02.04-.03.08-.05.13-.13.22-.3.27-.53.37-.08.03-.16.07-.24.1q-.11.05-.22.09c-.05.03-.1.06-.15.08-.17.08-.3.03-.47-.03-.25-.11-.48-.24-.69-.41v-.14c-.07-.02-.14-.05-.21-.07-.24-.29-.23-.55-.21-.9,0-.06,0-.11,0-.17.02-.41.12-.66.38-.98q.11-.1.32-.1v-.28c.05-.02.11-.03.16-.05q.2-.08.27-.27c.02-.05.03-.11.05-.16h.14v-.14q.16-.18.35-.35h.28s.01-.09.02-.13q.05-.15.26-.29c.02-.07.05-.14.07-.21q.31-.28.49-.28c.05-.11.09-.23.14-.35h.21s.01-.09.02-.13c.02-.05.03-.09.05-.14.07-.02.14-.05.21-.07.08-.12.17-.24.25-.36.14-.19.33-.33.51-.47.21-.2.38-.36.49-.62h.14s.05-.09.07-.14h.14v-.14c.09-.09.18-.19.28-.28.02-.05.05-.09.07-.14q.1-.03.2-.06.22-.06.28-.24c.02-.06.05-.13.07-.19.13-.15.26-.29.42-.42h.14c.02-.07.05-.14.07-.21.09-.09.18-.19.28-.28.02-.05.05-.09.07-.14h.21v-.21h.28v-.28h.21v-.14c.07-.05.14-.09.21-.14q.03-.08.05-.16c.1-.2.14-.23.33-.33q.25-.1.28-.27s.02-.09.03-.14c.14-.1.28-.19.42-.28.02-.05.05-.09.07-.14q.14-.08.28-.14v-.14h.14c.02-.07.05-.14.07-.21h.14v-.21c.11-.07.23-.14.35-.21.19-.17.27-.25.35-.49.27-.3.52-.5.9-.62q.01-.06.03-.12c.07-.25.21-.39.39-.58h.21v-.21q.1-.09.24-.17.22-.14.32-.38h.21c.02-.11.05-.23.07-.35.07-.02.13-.03.2-.05.07-.03.14-.06.21-.09q.05-.13.07-.28.23-.21.42-.21c.02-.05.04-.11.06-.16.08-.18.14-.28.29-.39h.21c.02-.11.05-.23.07-.35h.21v-.21c.11.02.23.05.35.07-.02-.11-.05-.23-.07-.35.05-.02.11-.03.16-.05q.2-.07.25-.26c.02-.06.05-.11.07-.17.11-.05.23-.1.35-.14q.08-.13.14-.28.1-.11.21-.21s.07-.07.1-.11c.13-.11.22-.14.39-.16,0-.05,0-.1,0-.16.08-.27.24-.33.48-.47.02-.05.05-.09.07-.14h.21v-.14c.11-.09.23-.19.35-.28.05-.07.09-.14.14-.21h.14v-.14h.21v-.21s.09-.05.14-.07c.02-.07.05-.14.07-.21h.28v-.28h.21v-.28c.07-.02.14-.05.21-.07.09-.1.17-.2.26-.3.17-.21.34-.41.59-.53.16-.08.2-.18.26-.34h.21c.02-.05.04-.11.06-.16.08-.19.14-.26.29-.39l.16-.16.18-.18c.06-.06.12-.13.19-.2q.16-.15.3-.15c.03-.05.06-.1.09-.15.13-.22.28-.37.46-.54.06-.06.12-.13.19-.2q.16-.15.3-.15c.02-.07.05-.14.07-.21h.14c.05-.09.09-.18.14-.28h.14s.04-.08.06-.13c.08-.15.17-.24.29-.36.04-.06.09-.12.13-.18.14-.17.23-.22.42-.31.04-.05.07-.1.11-.15q.05-.06.1-.13h.21c0-.05.01-.11.02-.16.05-.2.1-.26.26-.39l.14-.14s.09-.04.14-.07q.16-.07.28-.28h.14c.02-.07.05-.14.07-.21h.14s0-.08.01-.13q.06-.15.23-.24c.25-.16.26-.32.32-.6.04,0,.08,0,.12-.01q.18-.05.33-.23c.16-.16.23-.22.45-.24-.02-.11-.05-.23-.07-.35.17-.13.28-.21.49-.28q.3-.26.42-.62c.11-.02.23-.05.35-.07,0-.04.01-.08.02-.12.07-.2.16-.28.33-.42.05-.04.1-.09.15-.13q.13-.1.27-.1,0-.06.02-.12c.09-.26.32-.39.53-.57.16-.16.21-.29.29-.49q.1-.03.21-.07s.04-.09.06-.13c.11-.19.22-.22.43-.28v-.21s.08,0,.13-.01c.21-.08.25-.21.36-.4q.1-.03.21-.07s.02-.09.03-.14c.01-.05.02-.09.03-.14q.1-.03.21-.07c.05-.07.09-.14.14-.21h.14v-.21h.21v-.21q.1-.03.21-.07c.05-.07.09-.14.14-.21h.14c.02-.07.05-.14.07-.21.09-.09.18-.19.28-.28.04-.06.09-.11.13-.17.15-.19.32-.36.49-.53.05-.06.11-.11.16-.17.18-.17.36-.33.55-.49.16-.14.31-.29.47-.45q.28-.28.42-.35l.07-.21h.21v-.21h.14l.07-.21h.21s0-.08,0-.12c.09-.23.27-.3.48-.43.02-.07.05-.14.07-.21.23-.22.3-.28.62-.28Z"/>
      <path class="cls-63" d="M37.34,44.7l.07.14h.14c.09.1.17.2.25.3.19.23.41.43.63.64.14.15.22.26.3.45h.14v.14l.28.07v.21s.09.01.13.02c.19.07.2.15.29.33q.13.08.28.14.34.18.42.42c.12.09.23.19.35.28v.14h.21q.15.13.28.28v.21c.07.01.13.03.2.04.07.03.14.06.22.1.05.14.1.28.14.42q.14.07.28.07s0,.09.01.13q.03.07.06.15c.11.05.23.1.35.14.02.07.05.14.07.21.12.05.23.09.35.14q.2.13.35.28v.21s.08.02.13.03q.15.04.36.18c.02.07.05.14.07.21.16.11.32.19.49.28v.28h.21v.21c.07-.02.14-.05.21-.07.07.03.13.07.2.1.31.15.46.07.77-.03v-.14q.06-.03.13-.06t.29-.29h.14q.02-.06.05-.12.09-.16.26-.28c.24-.21.29-.41.39-.71h.14v-.14q.3-.21.49-.21c.08-.16.15-.31.21-.49q.1-.09.22-.19c.24-.2.42-.42.59-.68.03-.04.06-.07.09-.11h.14v-.14h.14c.02-.07.05-.14.07-.21h.14v-.14h.14c.02-.16.05-.32.07-.49h.21v-.14q.1-.11.21-.21h.14v-.14q.11,0,.22,0c.25,0,.39-.04.61-.15.02-.21.05-.41.07-.62h.14v-.35h.14c.21,1.08.39,2.16.56,3.24.03.21.07.42.11.63.05.27.09.59-.04.85h-.21q-.02.06-.03.13c-.03.12-.07.24-.11.36-.07.02-.14.05-.21.07q-.12.21-.21.42h-.14v.21c-.07.05-.14.09-.21.14v.14c-.07.05-.14.09-.21.14q-.23.26-.42.56c-.07.02-.14.05-.21.07-.02.05-.05.09-.07.14h-.14v.14h-.21c-.1.18-.16.35-.21.56h-.21c-.02.07-.05.14-.07.21h-.14v.21c-.11.12-.23.23-.35.35-.05.06-.1.13-.15.2-.04.05-.08.1-.13.15h-.14c-.02.07-.05.14-.07.21h-.14s-.03.1-.05.15c-.14.32-.32.58-.57.82l-.07.14h-.14c-.07.18-.15.37-.21.56q-.08.01-.16.03c-.18.04-.31.09-.47.18l-.07.14h-.14c.02.09.05.18.07.28h-.14v.14c-.32.02-.51,0-.76-.21q-.06-.19-.07-.35s-.08.03-.12.05q-.16.02-.33-.1c-.06-.05-.12-.1-.18-.16-.18-.11-.36-.21-.54-.32-.05-.03-.1-.07-.15-.1v-.14s-.1-.04-.15-.06c-.4-.16-.67-.32-.96-.64-.12-.09-.23-.19-.35-.28-.09-.09-.19-.18-.28-.28-.05-.05-.1-.1-.16-.15q-.12-.13-.12-.27c-.07-.02-.14-.05-.21-.07v-.14c-.07.02-.14.05-.21.07-.03-.05-.05-.1-.08-.15-.15-.23-.33-.38-.55-.54q-.5-.4-.62-.56v-.14s-.09-.05-.14-.07c-.34-.22-.56-.37-.69-.76-.09-.03-.18-.05-.28-.07q-.18-.16-.35-.35s-.08-.08-.13-.12q-.08-.09-.08-.23-.07-.03-.13-.05c-.18-.11-.16-.17-.21-.36-.04-.02-.08-.04-.13-.06-.17-.09-.26-.17-.38-.32-.04-.04-.07-.08-.11-.13q-.08-.11-.08-.25h-.14c-.07-.07-.14-.14-.21-.21-.15-.11-.29-.21-.44-.32-.04-.03-.08-.06-.11-.1v-.14h-.14q-.21-.24-.21-.42l-.35-.14v-.21s-.08-.01-.13-.02c-.17-.05-.24-.12-.36-.26-.05-.02-.09-.05-.14-.07v-.21c-.09-.02-.18-.05-.28-.07q.03-.38.19-.53c.11-.07.23-.13.35-.2.05-.03.1-.07.16-.1v-.21h.21v-.14h.14v-.42l.21-.07.07.14c.08-.08.16-.16.24-.23.04-.04.09-.09.13-.13q.12-.11.18-.26h.14v-.28h.21s.05-.09.07-.14h.21q.01-.07.03-.13s.03-.09.04-.14l.14-.07Z"/>
      <path class="cls-8" d="M50.81,45.54h.14c.21,1.08.39,2.16.56,3.24.03.21.07.42.11.63.05.27.09.59-.04.85h-.21q-.02.06-.03.13c-.03.12-.07.24-.11.36q-.1.03-.21.07-.12.21-.21.42h-.14v.21c-.07.05-.14.09-.21.14v.14c-.07.05-.14.09-.21.14q-.23.26-.42.56-.1.03-.21.07s-.05.09-.07.14h-.14v.14h-.21c-.1.18-.16.35-.21.56h-.21q-.03.1-.07.21h-.14v.21c-.11.12-.23.23-.35.35-.05.06-.1.13-.15.2-.04.05-.08.1-.13.15h-.14c-.02.07-.05.14-.07.21h-.14s-.03.1-.05.15c-.14.32-.32.58-.57.82-.02.05-.05.09-.07.14h-.14c-.07.18-.15.37-.21.56-.05,0-.1.02-.16.03-.18.04-.31.09-.47.18l-.07.14c-.07-.02-.14-.05-.21-.07-.12-.24-.1-.51-.11-.78q0-.1,0-.19c-.02-.57-.03-1.14-.02-1.71,0-.06,0-.13,0-.19,0-.06,0-.11,0-.17q0-.16-.08-.36c0-.12,0-.24,0-.36q0-.09,0-.19s0-.1,0-.14h-.21q-.07-.21-.14-.42h-.28q-.03-.21-.07-.42c.07,0,.15,0,.23,0,.24,0,.34-.02.54-.15v-.14q.06-.03.13-.06t.29-.29h.14s.03-.08.05-.12q.09-.16.26-.28c.24-.21.29-.41.39-.71h.14v-.14q.3-.21.49-.21c.08-.16.15-.31.21-.49q.1-.09.22-.19c.24-.2.42-.42.59-.68.03-.04.06-.07.09-.11h.14v-.14h.14c.02-.07.05-.14.07-.21h.14v-.14h.14c.02-.16.05-.32.07-.49h.21v-.14q.1-.11.21-.21h.14v-.14q.11,0,.22,0c.25,0,.39-.04.61-.15.02-.21.05-.41.07-.62h.14v-.35Z"/>
      <path class="cls-26" d="M32.83,29.36q.14.03.28.07v.14c.05,0,.11.01.16.02.06.02.12.03.18.05q.07.13.14.28t.28.14c.09.06.17.11.26.17.04.03.09.06.13.09.03.03.06.06.1.08v.14c.05.02.11.04.16.07q.18.07.32.14v.14s.07.03.11.05c.15.08.29.17.43.26.04.03.09.06.13.09t.1.09v.21c.05.02.11.04.16.06.18.08.27.14.39.29v.14c.09.02.18.05.28.07v.14h.14c.1.09.19.18.28.28.18.19.36.36.56.52.19.16.33.32.48.52.18.18.36.36.54.53q.15.16.15.3h.14v.21s.08.03.12.05c.36.21.59.54.83.88q.09.13.23.19.12.2.21.42-.03.1-.07.21c-.16-.07-.32-.14-.49-.21v-.14c-.06,0-.13,0-.19.01-.25-.01-.33-.05-.5-.22v-.14s-.08-.04-.12-.06c-.16-.08-.3-.18-.45-.29-.05-.03-.1-.07-.15-.11-.04-.04-.07-.07-.11-.11v-.21s-.07-.03-.11-.05c-.32-.17-.6-.33-.79-.64v-.14s-.08-.01-.12-.02c-.2-.07-.3-.17-.43-.33v-.14h-.14q-.03-.14-.07-.28s-.08-.01-.12-.02c-.2-.07-.26-.16-.39-.32-.18-.22-.37-.39-.59-.57v-.14l-.28-.14v-.21h-.14v-.14h-.14v-.14c-.11-.02-.23-.05-.35-.07l-.07-.28h-.14v-.14h-.21c-.07-.11-.14-.23-.21-.35l-.21-.07v-.14h-.14l-.07-.21c-.07-.02-.14-.05-.21-.07-.02-.07-.05-.14-.07-.21-.05-.04-.09-.08-.14-.13q-.13-.15-.16-.37.02-.2.09-.26Z"/>
      <path class="cls-12" d="M59.84,19.57v.14c.07.02.14.05.21.07v.21h.14q.03.27.07.56h.21v.49h-.14s.03.08.04.11c.04.21,0,.35-.06.55q-.03.1-.05.2t-.28.31v-.14s-.08-.03-.12-.05c-.21-.12-.35-.26-.51-.44v-.21c-.09-.05-.18-.09-.28-.14v-.14c-.14-.05-.27-.09-.42-.14l-.07-.35-.28-.07v-.14c-.16-.08-.31-.15-.49-.21q-.12-.2-.21-.42s.05-.09.07-.14c.16-.03.32-.05.49-.07v-.14c.6-.13,1.11-.11,1.67.14Z"/>
      <path class="cls-51" d="M32.34,29.15q-.03.38-.22.55c-.07.05-.13.1-.2.15-.13.14-.25.28-.37.42q-.22.25-.32.34h-.21s-.03.1-.05.15c-.1.22-.22.38-.38.57-.06.07-.11.13-.17.2-.05.06-.11.12-.16.19-.04.05-.08.09-.12.14-.21.25-.43.47-.69.67q-.11.09-.17.23h-.21s-.04.09-.07.13l-.14.29h-.21v.14q-.31.03-.62.07c.09-.38.22-.68.56-.9.07-.11.14-.23.21-.35.05-.07.09-.14.14-.21h.14v-.14h.21q0-.06.02-.12c.07-.21.18-.34.33-.51.04-.04.07-.08.11-.13q.1-.08.31-.08v-.21h.14v-.14c.09-.09.18-.19.28-.28l.14-.21h.14v-.14l.21-.07.07-.14h.14v-.21c.07-.05.14-.09.21-.14.02-.07.05-.14.07-.21.35-.2.53-.24.9-.07Z"/>
      <path class="cls-58" d="M39.91,46.58c.2.03.28.07.44.21.23.17.4.19.67.21.02.09.05.18.07.28l.28.07v.14h.14c.09.11.19.23.28.35l.21.14v.14l.12.04c.17.11.22.18.33.34.16.24.31.32.6.38q.03.17.07.35h.21s.04.09.06.13q.07.17.29.21c.02.07.04.13.06.2.03.07.05.14.08.21q.17.08.35.14t.14.28s.09.05.14.07v.42c-.16-.05-.32-.09-.49-.14v-.14s-.08-.03-.12-.05c-.19-.1-.35-.22-.51-.36v-.21c-.06-.02-.12-.03-.19-.05-.4-.15-.57-.35-.79-.71-.07-.02-.14-.05-.21-.07-.12-.11-.23-.23-.35-.35l-.14-.14v-.21l-.21-.07-.07-.14q-.14-.08-.28-.14v-.14h-.14v-.21c-.09-.02-.18-.05-.28-.07v-.14q-.17-.07-.35-.14v-.21h-.21c-.17-.23-.21-.33-.21-.62Z"/>
      <path class="cls-4" d="M49.07,47.13c-.03.11-.07.23-.1.34-.02.06-.04.13-.06.19q-.05.17-.12.3h-.14v.14h-.14s-.04.08-.06.12c-.08.16-.18.28-.29.42-.04.04-.07.09-.11.13q-.1.1-.24.1t-.07.21h-.14q0,.06-.01.12c-.08.23-.22.35-.4.51q-.16.06-.28.07v.14h-.14l-.14.42h-.21s0,.08-.01.12c-.08.23-.19.31-.4.43-.21.04-.41.06-.62.07-.05-.41.18-.63.42-.95.13-.16.26-.31.42-.44h.14s.03-.08.05-.12c.12-.21.27-.34.44-.51.18-.18.36-.36.54-.55.07-.07.13-.13.2-.2.03-.03.07-.07.1-.1.16-.16.26-.26.48-.33,0-.04.01-.08.02-.13.07-.22.22-.27.41-.37.16-.07.3-.13.47-.13Z"/>
      <path class="cls-34" d="M34.35,30.54q.33.13.49.21v.14s.07.03.11.05c.15.08.29.17.43.26.04.03.09.06.13.09.03.03.06.06.1.09v.21q.08.03.16.06c.18.08.27.14.39.29v.14l.28.07v.14h.14c.1.09.19.18.28.28.18.19.36.36.56.52.19.16.33.32.48.52.18.18.36.36.54.53q.15.16.15.3h.14v.21q.06.02.12.05c.36.21.59.54.83.88q.09.13.23.19t.21.42q-.03.1-.07.21c-.16-.07-.32-.14-.49-.21v-.14c-.06,0-.13,0-.19.01-.25-.01-.33-.05-.5-.22v-.14s-.08-.04-.12-.06c-.16-.08-.3-.18-.45-.29-.05-.03-.1-.07-.15-.11-.04-.04-.07-.07-.11-.11v-.21h.28s.05.09.07.14c.06.03.12.07.18.1.06.04.11.07.17.11v.21q.1-.03.21-.07l.07.07q.05-.13.07-.28-.08-.13-.2-.25-.21-.23-.29-.37h-.14v-.14h-.14q-.09-.1-.2-.23c-.12-.15-.24-.29-.38-.42q-.11-.12-.11-.26s-.08-.04-.12-.06c-.16-.08-.3-.17-.43-.29v-.14h-.14c-.09-.11-.19-.23-.28-.35l-.14-.07v-.14h-.14v-.14l-.21-.07v-.14s-.08-.04-.12-.05c-.17-.09-.31-.2-.45-.33-.05-.04-.1-.08-.15-.13q-.11-.11-.11-.25h-.14v-.14h-.14v-.14h-.14v-.14s-.08-.03-.12-.05c-.18-.1-.3-.22-.43-.36Z"/>
      <path class="cls-39" d="M39.91,46.58c.2.03.28.07.44.21.23.17.4.19.67.21.02.09.05.18.07.28l.28.07v.14h.14c.09.11.19.23.28.35l.21.14v.14l.28.14-.14.14h-.28l-.07-.28h-.14q.01.2.07.42t.28.14q.16.14.28.28v.14s.08,0,.12,0c.23.09.3.27.43.48q.15.08.28.14c.02.07.05.14.07.21-.39-.12-.61-.36-.83-.69-.07-.02-.14-.05-.21-.07-.12-.11-.23-.23-.35-.35l-.14-.14v-.21l-.21-.07-.07-.14q-.14-.08-.28-.14v-.14h-.14v-.21c-.09-.02-.18-.05-.28-.07v-.14q-.17-.07-.35-.14v-.21h-.21c-.17-.23-.21-.33-.21-.62Z"/>
      <path class="cls-21" d="M45.05,52.34l.07.14h.35c.09,1.05.05,2.08,0,3.12-.09-.02-.18-.05-.28-.07q-.5-2.25-.28-3.06l.14-.14Z"/>
      <path class="cls-48" d="M40.67,47.55l.07.14c.07.02.14.05.21.07v.21h.14s.05.09.07.14c.04.02.09.04.13.07.2.1.32.21.42.42.1.19.26.29.43.42v.14q.06,0,.13.01s.1.04.15.06c.05.12.09.23.14.35q.12.08.28.14.47.24.56.49t.28.21.27.2v.14c.15.09.28.14.46.17q.17.03.38.17v.21s-.09-.05-.13-.07q-.14-.08-.29-.07-.03.07-.07.14h-.14c-.03-.05-.06-.11-.09-.16-.13-.21-.26-.27-.46-.39v-.21c-.16-.08-.31-.15-.49-.21v-.21s-.07-.03-.11-.05c-.33-.17-.61-.37-.86-.64-.04-.04-.08-.07-.12-.11q-.09-.1-.16-.23l-.21-.07c-.03-.07-.06-.13-.1-.2-.13-.25-.2-.26-.46-.35l-.07-.21c-.07-.05-.14-.09-.21-.14v-.14h-.21v-.14c-.07-.02-.14-.05-.21-.07v-.14s-.09-.05-.14-.07q.21-.07.42,0Z"/>
      <path class="cls-16" d="M39.91,46.58c.2.03.28.07.44.21.23.17.4.19.67.21.02.09.05.18.07.28l.28.07v.14q-.13.04-.28.07l-.21-.14.07.07s.03.08.05.12c.11.2.27.34.43.5l-.07.14-.28-.14v-.14h-.14v-.21c-.09-.02-.18-.05-.28-.07v-.14q-.17-.07-.35-.14v-.21h-.21c-.17-.23-.21-.33-.21-.62Z"/>
      <path class="cls-64" d="M49.07,47.13c-.03.11-.07.23-.1.34-.02.06-.04.13-.06.19q-.05.17-.12.3h-.14v.14h-.14s-.03.08-.05.12c-.12.2-.27.35-.44.51v-.35c.09-.02.18-.05.28-.07-.02-.11-.05-.23-.07-.35l-.21.07v.14h-.21v.14h-.14l-.07.21-.35.07q.62-.74.9-.83s.01-.08.02-.13c.07-.22.22-.27.41-.37.16-.07.3-.13.47-.13ZM48.38,47.69l.07.14-.07-.14Z"/>
      <path class="cls-3" d="M46.51,49.29l.14.07c-.02.23-.08.29-.26.45q-.06.04-.11.09c-.28.23-.5.46-.67.78.11-.04.23-.09.34-.13.06-.02.13-.05.19-.08q.16-.06.3-.14c-.02.2-.07.28-.21.43-.27.17-.52.18-.83.2-.05-.41.18-.63.42-.95.13-.16.26-.31.42-.44h.14l.14-.28Z"/>
      <path class="cls-37" d="M29.08,31.79l.07.28h-.14v.14s-.07.05-.1.08c-.16.19-.16.37-.18.61.05-.02.09-.05.14-.07.07.02.14.05.21.07q-.09.14-.21.28h-.21v.14c-.21.02-.41.05-.62.07.09-.38.22-.68.56-.9.07-.11.14-.23.21-.35.05-.07.09-.14.14-.21h.14v-.14Z"/>
      <path class="cls-7" d="M46.44,50.33h.21c-.11.27-.26.38-.49.56-.11.13-.21.26-.32.39q-.1.1-.31.1v.14q-.11.12-.28.21-.44-.02-.62-.21c.18-.1.33-.15.53-.2q.25-.05.37-.28h.21v-.14c.05-.02.1-.04.16-.06.18-.08.32-.16.47-.29.02-.07.05-.14.07-.21Z"/>
      <path class="cls-41" d="M45.26,52.48h.21c.09,1.05.05,2.08,0,3.12-.09-.02-.18-.05-.28-.07-.02-.18-.05-.37-.07-.56.07.02.14.05.21.07,0-.31,0-.62,0-.93,0-.09,0-.17,0-.27,0-.46-.01-.91-.08-1.37Z"/>
      <path class="cls-53" d="M43.87,49.98q.34.18.42.42s.09.05.14.07v.42c-.16-.05-.32-.09-.49-.14v-.14s-.08-.03-.12-.05c-.2-.12-.35-.27-.51-.44q.21.03.42.07c.02.07.05.14.07.21h.14c-.02-.14-.05-.27-.07-.42Z"/>
      <path class="cls-32" d="M44.77,52.13h.35c.05.11.09.23.14.35h-.28c-.08.61-.05,1.19,0,1.81h-.07c-.16-.72-.15-1.42-.14-2.15Z"/>
      <path class="cls-65" d="M48.8,47.41v.56h-.14v.14h-.14s-.03.08-.05.12c-.12.2-.27.35-.44.51v-.35c.09-.02.18-.05.28-.07,0-.06,0-.13,0-.19q0-.34.07-.5.23-.21.42-.21Z"/>
      <path class="cls-66" d="M41.44,48.25l.28.14v.14s.08.03.12.05c.18.1.3.21.43.36v.14q.06,0,.12,0c.23.09.3.27.43.48q.15.08.28.14l.07.21c-.39-.12-.61-.36-.83-.69l-.21-.07c-.12-.11-.23-.23-.35-.35-.05-.05-.09-.09-.14-.14v-.21c-.07-.02-.14-.05-.21-.07v-.14Z"/>
      <path class="cls-56" d="M39.56,35.47c.28.2.43.37.56.69l-.07.21c-.16-.07-.32-.14-.49-.21v-.14c-.06,0-.13,0-.19.01-.25-.01-.33-.05-.5-.22v-.14s.07.04.11.06c.21.1.43.16.66.22,0-.17-.06-.27-.14-.42l.07-.07Z"/>
      <path class="cls-30" d="M44.91,53.59q.14.07.22.29c.06.26.07.49.06.76.07.02.14.05.21.07v.49l-.07-.14c-.07-.02-.14-.05-.21-.07-.18-.44-.18-.92-.21-1.39Z"/>
      <path class="cls-24" d="M26.51,33.73q0,.4-.07.56h.14c-.09.19-.19.37-.28.56q-.14-.14-.15-.33c0-.08,0-.15,0-.23,0-.08,0-.15,0-.23,0-.06,0-.12,0-.18q.27-.14.35-.14Z"/>
      <path class="cls-10" d="M50.6,46.23q.04.13.07.28c-.16.16-.23.17-.45.19-.06,0-.11.01-.17.02q-.15,0-.28-.14.14-.21.3-.26c.06-.01.13-.02.19-.03.06-.01.13-.02.19-.03q.07-.01.15-.02Z"/>
      <path class="cls-35" d="M39.08,35.19h.14v.21s.05-.09.07-.14q.13.05.28.14t.07.35l.14.14-.07.21c-.09-.05-.18-.11-.27-.16q-.08-.05-.15-.09-.13-.09-.2-.23c0-.14,0-.28,0-.42Z"/>
      <path class="cls-36" d="M46.51,49.29l.14.07c-.02.23-.08.29-.26.45-.04.03-.07.06-.11.09q-.13.1-.29.27c-.14.14-.28.26-.44.37.05-.39.41-.72.69-.97h.14l.14-.28Z"/>
      <path class="cls-22" d="M42.83,49.22h.49q.14.4.14.56l.14.07v.14l.21.07-.21.07q-.22-.16-.42-.35v-.14c-.07-.02-.14-.05-.21-.07q-.08-.18-.14-.35Z"/>
      <path class="cls-31" d="M32.83,29.36q.14.03.28.07v.14c.05,0,.11.01.16.02q.18.05.26.19s.04.09.06.14l.21.07-.14.14c-.06-.05-.12-.11-.19-.16-.18-.15-.35-.25-.58-.32v.28h.14v.14c-.07-.02-.14-.05-.21-.07-.09-.19-.08-.35-.07-.56l.07-.07Z"/>
      <path class="cls-28" d="M39.91,46.58c.29.03.43.21.62.42-.09-.02-.18-.05-.28-.07v.21h.14l.07.21.21.07v.14q-.17-.07-.35-.14v-.21h-.21c-.17-.23-.21-.33-.21-.62Z"/>
      <path class="cls-13" d="M28.24,32.69h.14c-.12.23-.23.46-.35.69q.31-.03.62-.07-.07.14-.22.22c-.21.07-.39.07-.61.06.08-.35.19-.61.42-.9Z"/>
      <path class="cls-17" d="M40.53,47h.49c.02.09.05.18.07.28.09.02.18.05.28.07v.14q-.12.04-.28.07t-.26-.16-.13-.09q-.1-.1-.17-.31Z"/>
      <path class="cls-43" d="M32.62,29.22c.37.07.59.11.83.42-.11-.02-.23-.05-.35-.07v-.14h-.28v.56c-.09-.02-.18-.05-.28-.07,0-.1,0-.21,0-.31,0-.06,0-.11,0-.17q0-.14.08-.21Z"/>
      <path class="cls-40" d="M49.07,47.13c-.07.23-.14.46-.21.69h-.07v-.42c-.06.05-.13.09-.2.14q-.11.07-.22.13l-.21-.07c.26-.29.5-.49.9-.49Z"/>
      <path class="cls-38" d="M49.21,47c-.02.21-.05.41-.07.62h-.14v.14h-.14c.03-.26.06-.4.21-.62-.14.05-.27.09-.42.14v-.14c.22-.15.3-.15.56-.14Z"/>
      <path class="cls-55" d="M48.87,47.76l.07.14c-.16.37-.48.63-.76.9l-.14-.07c.08-.1.16-.21.23-.31.04-.06.09-.12.13-.18.04-.05.08-.09.12-.14h.14v-.14h.14c.02-.07.05-.14.07-.21Z"/>
      <path class="cls-18" d="M52.48,24.99h.14v.14s.09.03.13.05c.17.1.21.18.29.36l-.14.07q-.14-.05-.28-.14c-.03-.09-.05-.18-.07-.28-.07-.02-.14-.05-.21-.07l.14-.14Z"/>
      <path class="cls-11" d="M31.65,29.85h.21q0,.14-.16.3c-.06.06-.13.12-.19.18-.05.05-.1.11-.15.16q-.13.12-.34.12l-.07.14v-.21h.14v-.14q.09-.11.21-.21h.21c.05-.11.09-.23.14-.35Z"/>
      <path class="cls-44" d="M31.92,29.01c.14.05.27.09.42.14q-.01.2-.07.42t-.35.21v-.21h.14c.02-.09.05-.18.07-.28h-.14l-.07-.28Z"/>
      <path class="cls-57" d="M40.67,47.55h.14v.14s.08,0,.12.01c.23.08.35.23.51.4l-.07.14c-.09-.05-.18-.09-.28-.14v-.14h-.14v-.21c-.09-.02-.18-.05-.28-.07v-.14Z"/>
      <path class="cls-52" d="M48.59,47.9c.07.02.14.05.21.07h-.14v.14h-.14s-.03.08-.05.12c-.12.2-.27.35-.44.51v-.35c.09-.02.18-.05.28-.07q.01-.06.02-.13t.26-.29Z"/>
      <path class="cls-29" d="M44.01,50.4l.42.07v.42q-.17-.05-.35-.14t-.07-.35Z"/>
      <path class="cls-5" d="M47.2,48.59q.07.21.03.36t-.28.18q-.08,0-.16.02v.14s-.09-.05-.14-.07c.17-.22.35-.43.56-.62Z"/>
      <path class="cls-59" d="M44.91,52.2q.17.07.35.14v.14h-.28c-.02.23-.05.46-.07.69h-.07c0-.15,0-.3,0-.45,0-.08,0-.17,0-.25q0-.2.08-.27Z"/>
      <path class="cls-22" d="M42.27,48.66q.17.03.35.07t.07.28-.14.21c-.2-.17-.24-.3-.28-.56Z"/>
      <path class="cls-60" d="M28.24,32.9h.07v.35c.11-.02.23-.05.35-.07v.14q-.31.03-.62.07.07-.28.21-.49Z"/>
      <path class="cls-27" d="M45.46,50.4c0,.2-.03.36-.07.56.11-.02.23-.05.35-.07v.14c-.14.02-.27.05-.42.07-.07-.23-.08-.32.03-.54.04-.05.07-.1.11-.15Z"/>
      <path class="cls-15" d="M41.09,47.62h.35c.02.14.05.27.07.42-.14-.07-.27-.14-.42-.21v-.21Z"/>
      <path class="cls-25" d="M50.6,46.23q.04.13.07.28s-.09.09-.14.14q-.15-.03-.28-.07h.21v-.14h-.21v-.14c.11-.02.23-.05.35-.07Z"/>
      <path class="cls-49" d="M46.37,50.33c.02.07.05.14.07.21q-.31.28-.42.35c-.07-.02-.14-.05-.21-.07.18-.16.37-.32.56-.49Z"/>
      <path class="cls-15" d="M37.48,34.5q.16-.02.35,0,.16.17.28.35-.28,0-.47-.17c-.05-.06-.1-.11-.16-.17Z"/>
      <path class="cls-46" d="M45.39,51.51c.02.07.05.14.07.21-.23.05-.46.09-.69.14v-.21q.12,0,.23,0t.39-.15Z"/>
      <path class="cls-62" d="M48.38,47.69q-.06.13-.14.28c-.07.02-.14.05-.21.07v.14s-.09-.05-.14-.07q.02-.13.07-.28.21-.14.42-.14Z"/>
      <path class="cls-2" d="M48.52,47.27l.14.07q-.05.13-.14.28t-.35.07c.08-.24.15-.28.35-.42Z"/>
      <path class="cls-50" d="M38.03,34.91h.28c.05.17.07.3.07.49q-.17-.13-.35-.28v-.21Z"/>
      <path class="cls-33" d="M26.51,33.73v.42c-.11-.02-.23-.05-.35-.07v-.21q.27-.14.35-.14Z"/>
      <path class="cls-54" d="M47.48,49.22l.14.07q-.32.34-.56.42v-.14h.14s.04-.09.06-.13q.08-.14.22-.21Z"/>
      <path class="cls-43" d="M40.53,47h.49v.21h-.42c-.02-.07-.05-.14-.07-.21Z"/>
      <path class="cls-9" d="M49.77,46.65l.28.14c-.21.11-.41.23-.62.35q0-.14.1-.25t.25-.1v-.14Z"/>
      <path class="cls-19" d="M39.08,34.91h.14q.12.16.21.35s-.05.09-.07.14h-.14c-.02-.07-.05-.14-.07-.21-.05-.02-.09-.05-.14-.07.02-.07.05-.14.07-.21Z"/>
      <path class="cls-61" d="M49,47.27q.14.21.14.35h-.14v.14h-.14q.06-.41.14-.49Z"/>
      <path class="cls-47" d="M30.4,31.16c.07.02.14.05.21.07l-.28.42c-.05-.07-.09-.14-.14-.21.07-.09.14-.18.21-.28Z"/>
      <path class="cls-1" d="M66.64,56.3l.14.14h-.14v-.14Z"/>
      <path class="cls-6" d="M25.47,10.68l.14.07-.14-.07Z"/>
    </g>
  </g>
</svg>