<?xml version="1.0" encoding="UTF-8"?>
<svg id="Layer_2" data-name="Layer 2" xmlns="http://www.w3.org/2000/svg" viewBox="0 0 79.66 79.66">
  <defs>
    <style>
      .cls-1 {
        fill: #eac728;
      }

      .cls-2 {
        fill: #e5bc1a;
      }

      .cls-3 {
        fill: #e6bf1f;
      }

      .cls-4 {
        fill: #e0b510;
      }

      .cls-5 {
        fill: #f4d238;
      }

      .cls-6 {
        fill: #f1c92b;
      }

      .cls-7 {
        fill: #dfb410;
      }

      .cls-8 {
        fill: #857724;
      }

      .cls-9 {
        fill: #f0c92b;
      }

      .cls-10 {
        fill: #e6c01f;
      }

      .cls-11 {
        fill: #eece32;
      }

      .cls-12 {
        fill: #e8c425;
      }

      .cls-13 {
        fill: #efc728;
      }

      .cls-14 {
        fill: #197503;
      }

      .cls-15 {
        fill: #dfb30e;
      }

      .cls-16 {
        fill: #e6bf20;
      }

      .cls-17 {
        fill: #f0c727;
      }

      .cls-18 {
        fill: #f1ca2c;
      }

      .cls-19 {
        fill: #f0c82a;
      }

      .cls-20 {
        fill: #e4bd1c;
      }

      .cls-21 {
        fill: #f0c728;
      }

      .cls-22 {
        fill: #e8c325;
      }

      .cls-23 {
        fill: #e3bb18;
      }

      .cls-24 {
        fill: #eac82a;
      }

      .cls-25 {
        fill: #a18113;
      }

      .cls-26 {
        fill: #e1b816;
      }

      .cls-27 {
        fill: #e5be1d;
      }

      .cls-28 {
        fill: #eccb2f;
      }

      .cls-29 {
        fill: #e5bd1d;
      }

      .cls-30 {
        fill: #e8c222;
      }

      .cls-31 {
        fill: #e2b816;
      }

      .cls-32 {
        fill: #e2ba18;
      }

      .cls-33 {
        fill: #ebc82a;
      }

      .cls-34 {
        fill: #e1b815;
      }

      .cls-35 {
        fill: #e4bd1b;
      }

      .cls-36 {
        fill: #e0b511;
      }

      .cls-37 {
        fill: #efcf34;
      }

      .cls-38 {
        fill: #edcb2f;
      }

      .cls-39 {
        fill: #e4bc1a;
      }

      .cls-40 {
        fill: #edcc30;
      }

      .cls-41 {
        fill: #eecc30;
      }

      .cls-42 {
        fill: #e7c020;
      }

      .cls-43 {
        fill: #efc626;
      }

      .cls-44 {
        fill: #eecd32;
      }

      .cls-45 {
        fill: #e9c527;
      }

      .cls-46 {
        fill: #ebc82c;
      }

      .cls-47 {
        fill: #e7c223;
      }

      .cls-48 {
        fill: #e0b612;
      }

      .cls-49 {
        fill: #eac629;
      }

      .cls-50 {
        fill: #e1b814;
      }

      .cls-51 {
        fill: #e5bf1e;
      }

      .cls-52 {
        fill: #ecca2e;
      }

      .cls-53 {
        fill: #deb20d;
      }

      .cls-54 {
        fill: #ecca2d;
      }

      .cls-55 {
        fill: #e4bd1d;
      }

      .cls-56 {
        fill: #e1b611;
      }

      .cls-57 {
        fill: #e0b714;
      }

      .cls-58 {
        fill: #e3ba19;
      }

      .cls-59 {
        fill: #dfb512;
      }

      .cls-60 {
        fill: #e7c121;
      }

      .cls-61 {
        fill: #e7c222;
      }

      .cls-62 {
        fill: #f6d942;
      }

      .cls-63 {
        fill: #dfb411;
      }

      .cls-64 {
        fill: #e5bd1c;
      }

      .cls-65 {
        fill: #e2b917;
      }

      .cls-66 {
        fill: #e3bc1a;
      }

      .cls-67 {
        fill: #e4bb1a;
      }

      .cls-68 {
        fill: #ecc92d;
      }

      .cls-69 {
        fill: #e9c526;
      }

      .cls-70 {
        fill: #e8c324;
      }

      .cls-71 {
        fill: #f1c92c;
      }

      .cls-72 {
        fill: #f1cb2e;
      }

      .cls-73 {
        fill: #e7c021;
      }

      .cls-74 {
        fill: #ebc92c;
      }

      .cls-75 {
        fill: #e2b915;
      }

      .cls-76 {
        fill: #eece33;
      }

      .cls-77 {
        fill: #e8c223;
      }

      .cls-78 {
        fill: #e9c426;
      }

      .cls-79 {
        fill: #ecc92c;
      }

      .cls-80 {
        fill: #e1b813;
      }

      .cls-81 {
        fill: #e3bb1a;
      }

      .cls-82 {
        fill: #e2ba17;
      }

      .cls-83 {
        fill: #e5bd1b;
      }

      .cls-84 {
        fill: #f0d036;
      }

      .cls-85 {
        fill: #e8c323;
      }

      .cls-86 {
        fill: #e4bc1b;
      }

      .cls-87 {
        fill: #f0c82b;
      }

      .cls-88 {
        fill: #e3ba17;
      }

      .cls-89 {
        fill: #eecc31;
      }

      .cls-90 {
        fill: #efce32;
      }

      .cls-91 {
        fill: #edbf1d;
      }

      .cls-92 {
        fill: #daaa01;
      }

      .cls-93 {
        fill: #e1b713;
      }

      .cls-94 {
        fill: #e6c020;
      }

      .cls-95 {
        fill: #e2b916;
      }

      .cls-96 {
        fill: #ebc82b;
      }

      .cls-97 {
        fill: #eac627;
      }

      .cls-98 {
        fill: #e2b815;
      }

      .cls-99 {
        fill: #e3bb19;
      }

      .cls-100 {
        fill: #e1b714;
      }

      .cls-101 {
        fill: #f0c729;
      }

      .cls-102 {
        fill: #e0b512;
      }

      .cls-103 {
        fill: #e3ba18;
      }

      .cls-104 {
        fill: #f6da43;
      }

      .cls-105 {
        fill: #edca2e;
      }

      .cls-106 {
        fill: #e7c122;
      }

      .cls-107 {
        fill: #e5be1e;
      }

      .cls-108 {
        fill: #eac628;
      }

      .cls-109 {
        fill: #ebc72a;
      }

      .cls-110 {
        fill: #e5be1c;
      }

      .cls-111 {
        fill: #e3bc19;
      }
    </style>
  </defs>
  <g id="safe">
    <g id="safe-2" data-name="safe">
      <circle id="safe_3rd_space" data-name="safe 3rd space" class="cls-14" cx="39.83" cy="39.83" r="39.83"/>
      <g>
        <path class="cls-5" d="M53.96,13.01c.23,0,.45,0,.68,0,.06,0,.13,0,.2,0,.06,0,.12,0,.19,0h.17q.13,0,.19.06c.11.01.21.02.32.03.06,0,.12,0,.17.01q.07,0,.14.01v.11h.17v-.11h.51v.11h.28v.11c.06.02.11.04.17.06v.11h.17v.11h.34v-.11h.23v-.11q.13-.04.28-.06c.06.04.11.08.17.11.13.02.27.04.4.06.02.08.04.15.06.23t.1.02c.14.04.28.09.42.15.02-.06.04-.11.06-.17h.11q.05.05.1.11c.16.14.26.16.47.17v.11s.08,0,.13-.01c.2.02.25.1.38.24q.15.05.28.06v.11h.11v.11h.17v-.11l.23.06v.34h.23v.11h.28v.11c.05,0,.11,0,.16.01q.18.04.26.16s.02.07.04.11h.11v.11c.11.06.22.09.34.11.02.09.04.19.06.28h.23v.11l.23.06v.11h.11c.02.08.04.15.06.23.03,0,.06.01.1.02.16.05.28.1.42.21q.02.15,0,.28h.11s.03.09.04.14q.06.16.21.2t.25.22c.06.18.08.24,0,.41h.11v.23h.11q.09.08.17.17v.11h-.11v.11q.05,0,.1.01c.18.07.22.16.3.33v.17h.11v.28h.11v.11h.11c.02.11.04.23.06.34h.11v.17h.11c.06.17.11.34.17.51h.11v.28h.11v.23c.06.02.11.04.17.06q.04.12.06.23h.11c.02.08.04.15.06.23h.11v.17h.11v.23h.11c.13.15.17.2.17.4.06.02.11.04.17.06v.17s.08.07.11.11q.11.12.13.28s0,.08-.01.13c.06.02.11.04.17.06v.11h.11v.11l.11.06v.23h.17c.02.09.04.19.06.28h.11v.23h.17v.28h.11v.23h.11q0,.07.01.14s.03.1.04.15c.08.04.15.08.23.11.13.23.12.43.11.68h.28v.51h.11v.11h.11v.28h.17v.51h.11c.01.08.02.17.03.25,0,.05.01.09.02.14q0,.12-.05.24h.11v.51h.11c.05.3.06.58.06.88,0,.04,0,.08,0,.13,0,.1,0,.2,0,.3h.11v.46h-.06c-.02.11-.04.23-.06.34h.11c.01.21,0,.27-.11.46q-.01.2,0,.41,0,.11,0,.22c0,.06,0,.11,0,.17-.06.02-.11.04-.17.06,0,.06,0,.11,0,.17.01.42,0,.75-.18,1.14-.03.15-.04.3-.06.46-.06.02-.11.04-.17.06v.63h-.11v.51h-.11v.17h-.11c-.09.27-.13.46-.06.74h-.23q0,.05,0,.11,0,.07,0,.14s0,.09,0,.14q-.01.12-.13.24s-.04.08-.06.11q-.11.03-.23.06v.74c-.09.02-.19.04-.28.06v.11h-.11v.4h-.17c.02.06.04.11.06.17-.09.02-.19.04-.28.06v.4h-.11v.4h-.11v.28h-.23c-.03.06-.05.12-.08.18-.02.04-.03.07-.05.11-.04.09-.07.18-.11.27q-.05.12-.17.18c-.03.06-.05.13-.08.2q-.09.2-.26.32-.04.15-.06.28h-.17v.28h-.11v.23s-.07.03-.11.05q-.14.06-.17.24h-.11v.23h-.11v.28h-.28v.11h-.11v.28h-.17l-.06.23h-.17v.28h-.17s.03.07.04.1q.02.12-.06.22-.1.07-.21.07v.23c-.08.02-.15.04-.23.06v.11h-.11c-.04.13-.08.26-.11.4h-.17v.11h-.17v.11h-.11v.28h-.17s-.01.09-.02.14q-.04.15-.15.26-.15.04-.28.06v.17h-.17v.28h-.11v.11q-.17.11-.34.11s-.01.09-.02.14q-.04.15-.21.26c-.02.06-.04.11-.06.17h-.11v.11h-.23v.11h-.17v.28c-.09.04-.19.08-.28.11v.11h-.11v.28h-.17v.23c-.08-.02-.15-.04-.23-.06-.06.11-.11.23-.17.34h-.23v.17h-.11v.11h-.11s0,.07,0,.1q-.05.12-.22.22c-.06.02-.11.05-.17.07v.11h-.11c-.02.09-.04.19-.06.28-.13.02-.26.04-.4.06v.28h-.11v-.11h-.11v.23c-.06.02-.11.04-.17.06q-.07.11-.11.23h-.11s-.01.07-.02.11c-.01.04-.03.08-.04.12-.06.02-.11.04-.17.06-.02.04-.04.08-.06.11h-.17v.11h-.23l.06.23c-.13.08-.26.15-.4.23v.17q-.05.01-.11.02s-.08.02-.12.04c-.02.04-.04.08-.06.11h-.17v.11h-.23v.11s-.08.08-.11.11c-.04.06-.08.11-.11.17-.06.03-.12.05-.17.08q-.18.07-.22.21s0,.07,0,.1h-.23v.11h-.17v.11s-.07.03-.11.05q-.14.06-.17.24h-.17v.11s-.09.03-.14.04q-.16.06-.22.22s-.03.09-.04.14h-.23v.11c-.06.02-.11.04-.17.06-.02.04-.04.08-.06.11-.12.06-.23.11-.35.17q-.12.06-.16.23h-.17c-.04.08-.08.15-.11.23h-.17c-.02.09-.04.19-.06.28h-.23v.11h-.17s-.01.07-.02.1c-.05.15-.09.21-.21.3h-.23v.11h-.11v-.11h-.11c.02.06.04.11.06.17-.09.02-.19.04-.28.06v.17c-.18.1-.24.11-.46.11-.02.09-.04.19-.06.28h-.4v.11s-.08.04-.11.06c-.02.06-.04.11-.06.17h-.23v.17h-.4v.23h-.23c-.02.09-.04.19-.06.28-.06-.02-.11-.04-.17-.06-.07.07-.13.13-.2.2q-.15.14-.26.14v.11h-.23v.11h-.17v.11s-.09.03-.14.05q-.17.06-.26.24h-.23v.11h-.28v.11l-.35.03s-.07.02-.11.02c-.02.04-.04.08-.06.11h-.11v.23h-.17c.02.06.04.11.06.17h-.11v.11h-.46v.11h-.17l.06.23h-.11v-.11q-.13.11-.17.28h-.11v-.11h-.23v.11h-.17c.02.06.04.11.06.17-.2.13-.28.12-.51.11v.11h-.28v.11h-.17v.11c-.06.02-.11.04-.17.06-.02.04-.04.08-.06.11h-.23v.11h-.17v.11q-.05.02-.11.04s-.09.03-.14.05q-.07.02-.14.05-.12.04-.24.1c-.02.06-.04.11-.06.17h-.23v.11c-.22.09-.45.16-.68.23-.04.02-.08.04-.11.06v-.11c-.08.04-.15.08-.23.11v.11h-.28c-.02.09-.04.19-.06.28h-.51v.11h-.23v.11c-.06.02-.11.04-.17.06-.02.04-.04.08-.06.11h-.17v.11h-.28v.11c-.2.11-.41.17-.63.23v.06h-.28v.11c-.08-.04-.15-.08-.23-.11v.11s-.08,0-.12,0c-.05,0-.1,0-.16,0-.05,0-.1,0-.16,0q-.15.02-.21.15s-.03.07-.04.11h-.23v.11h-.34v.11c-.17.02-.34.04-.51.06-.02.08-.04.15-.06.23h-.57v.11q-.11-.06-.17-.11v.23q-.1.01-.2.02c-.07.01-.13.02-.2.04l-.06.11h-.51v.11h-.11v-.11h-.11v.11h-.23v.11q-.11.01-.21.02c-.18.02-.32.05-.47.15l-.06.11h-.51l-.06.11v-.11h-.17v.11s-.06,0-.1,0c-.32.03-.64.07-.93.22-.15.07-.29.09-.45.11v.06h-.46v.11h-.68v.11c-.05,0-.1,0-.16,0-.15,0-.27.02-.41.06v.11c-.09-.02-.19-.04-.28-.06v-.23h-.11v.17h-.57v.11h-.34v.11q-.11,0-.22,0c-.27,0-.53.01-.8.02-.12,0-.23,0-.35,0-.17,0-.33,0-.5.01-.05,0-.1,0-.16,0q-.23-.02-.43.07c-.11.01-.21.02-.32.03-.06,0-.12,0-.17.01-.04,0-.09,0-.14.01l-.06-.11s-.07.02-.1.03q-.12.02-.3-.03c-.12-.01-.23-.02-.35-.03-.06,0-.12,0-.19-.01-.05,0-.09,0-.14-.01v.11h-.34v-.11h-1.31v-.11c-.06,0-.11,0-.17,0q-.11,0-.22,0c-.07,0-.15,0-.22,0q-.19-.01-.3-.13-.31-.11-.63-.06l-.06-.06c-.15,0-.3,0-.46,0v-.17h-.11v.11h-.46v-.11c-.15-.04-.28-.06-.43-.08q-.19-.03-.31-.15v-.17h-.11v.11h-.51v-.11h-.17v-.11h-.57s-.04-.08-.06-.11c-.13-.02-.27-.04-.4-.06q-.17-.06-.28-.11v-.11h-.23v-.11h-.28v-.17h-.11s-.04-.08-.06-.11h-.23v-.11h-.23s-.04-.08-.06-.11c-.13-.06-.26-.12-.4-.17v-.11q-.08,0-.16,0c-.2,0-.33-.04-.47-.18,0-.11,0-.23,0-.34-.03,0-.07-.01-.1-.02-.13-.04-.25-.09-.37-.15-.04-.02-.08-.04-.12-.06-.03-.02-.06-.03-.09-.05v-.11h-.11l-.06-.34c-.09-.02-.19-.04-.28-.06v-.11h-.11c-.02-.09-.04-.19-.06-.28h-.23l-.06-.17c-.06-.02-.11-.04-.17-.06-.02-.09-.04-.19-.06-.28h-.11s0-.07-.01-.11c-.06-.16-.12-.16-.27-.23-.11-.17-.11-.24-.11-.46h-.11q-.09-.07-.17-.17v-.17s-.08-.04-.11-.06c-.02-.13-.04-.27-.06-.4-.06-.02-.11-.04-.17-.06v-.17c-.06-.02-.11-.04-.17-.06v-.23h-.11v-.23h-.17c-.02-.13-.04-.26-.06-.4h-.11l-.06-.17s-.08-.04-.11-.06v-.28h-.11v-.11c-.06-.02-.11-.04-.17-.06v-.23h-.11c-.08-.15-.11-.22-.11-.4h-.17c-.01-.06-.03-.13-.04-.19q-.05-.21-.17-.27s-.08-.04-.12-.05c-.27-.28-.4-.51-.4-.91-.06-.02-.11-.04-.17-.06v-.34h-.11q-.17-.37-.2-.53s-.02-.06-.03-.09c-.06-.02-.11-.04-.17-.06v-.23h-.11v-.51h-.23c-.19-.18-.2-.37-.23-.63-.02-.1-.04-.19-.06-.28h-.11c-.03-.08-.06-.16-.09-.25-.02-.05-.03-.09-.05-.14q-.04-.13-.04-.3h-.11c0-.07-.01-.14-.02-.21-.02-.18-.07-.31-.15-.47q0-.16,0-.28h-.11s0-.1-.01-.15c0-.06,0-.13-.01-.19,0-.06,0-.13-.01-.19q0-.15-.07-.21c-.01-.1-.03-.2-.04-.3,0-.05-.01-.11-.02-.17,0-.14,0-.25.05-.39-.06-.02-.11-.04-.17-.06q0-.11,0-.21c0-.13,0-.24-.04-.36-.04-.16,0-.29.03-.45h-.11c.03-.16.05-.22.17-.34q.02-.15.01-.32c0-.06,0-.13,0-.19,0-.07,0-.13,0-.2q0-.1,0-.2c0-.17,0-.33,0-.5h.11v-.74h.11v-.46h.11c.02-.17.04-.34.06-.51h.11s-.02-.04-.03-.09c-.03-.19,0-.35.03-.54h.11s.02-.09.02-.13q.03-.15.09-.32h-.11v-.17s.04-.04.08-.08c.11-.12.13-.2.16-.36,0-.05.02-.09.03-.14,0-.04.01-.07.02-.11h.11v-.28h.11c0-.06.01-.12.02-.19q.04-.21.15-.38.01-.12,0-.24c0-.07,0-.14,0-.22h.23v-.4h.11c.02-.09.04-.19.06-.28h.11v-.23h.11v-.11h.11c0-.05,0-.1,0-.15,0-.19.04-.3.12-.47.02-.06.04-.11.06-.17h.23c.02-.13.04-.26.06-.4h.17c.02-.13.04-.26.06-.4h.11v-.23c.09-.02.19-.04.28-.06v-.34h.11v-.28h.11c.02-.08.04-.15.06-.23h.23v-.17h.11s.02-.07.02-.1c.03-.1.06-.2.09-.3h.11c.02-.08.04-.15.06-.23h.11v-.28h.11v-.11h.11q.03-.07.05-.14.06-.15.12-.26h.11c.04-.09.08-.19.11-.28h.11c.02-.08.04-.15.06-.23h.17v-.11h.11v.11c.06-.04.11-.08.17-.11v-.2q0-.2.08-.31.09-.06.21-.06c.02-.06.04-.11.06-.17.13-.23.22-.34.46-.46q.04-.11.06-.23.11-.11.23-.17v-.11c.09-.06.19-.11.28-.17.02-.04.04-.08.06-.11h.11c.02-.11.04-.23.06-.34.13-.02.26-.04.4-.06v-.11h.11v-.23c.06-.02.11-.04.17-.06q.06-.11.1-.23s.03-.08.04-.13c.01-.03.02-.06.03-.1.08.02.15.04.23.06.04-.08.08-.15.11-.23h.11v-.11h.17v-.11c.06-.06.11-.12.17-.17.02-.04.04-.08.06-.11h.17s.01-.07.02-.11c.01-.04.03-.08.04-.12.06-.02.11-.04.17-.06.02-.04.04-.08.06-.11h.17v-.23c.06-.02.11-.04.17-.06.02-.04.04-.08.06-.11h.23v-.11h.11c.02-.08.04-.15.06-.23h.17v-.17h.17s.03-.07.05-.1c.07-.12.13-.21.24-.3h.11v-.11h.23s.03-.07.05-.11q.06-.12.18-.23c.02-.06.04-.11.06-.17h.11v.11h.11v-.23h.11v-.17l.68-.34v-.17h.23c.02-.08.04-.15.06-.23.11-.02.23-.04.34-.06v-.11h.11v-.23h.11v-.11q.07-.02.14-.05.15-.06.26-.18v-.17c.16-.12.25-.17.46-.17v-.11h.23v-.11h.17v-.17h.23c.02-.08.04-.15.06-.23h.17v-.11c.06-.02.11-.04.17-.06q.07-.11.11-.23h.11v-.11c.17-.06.34-.11.51-.17.02-.09.04-.19.06-.28.04,0,.09-.01.14-.02q.17-.03.26-.21h.11v-.11h.4v-.23h.11v.11l.11-.11.11-.06v-.11h.11v-.11h.17v-.17h.23v-.11h.34s0-.09,0-.13q.05-.15.22-.25.09-.04.17-.07l.11-.06c.02-.06.04-.11.06-.17q.17-.11.4-.11v-.11h.11v-.11h.17v-.11c.09-.04.19-.08.28-.11v.11h.11v-.28h.17v-.11h.28v-.11l.23-.11v-.06h.34s0-.07.01-.11q.04-.12.15-.18.06-.02.12-.04.12-.04.23-.08s.04-.08.06-.11h.17v-.11h.28v-.11c.09-.02.19-.04.28-.06v-.11h.28q0-.05.01-.11.04-.12.14-.17s.08-.02.12-.03c.21-.06.31-.16.47-.31.11-.07.22-.13.33-.19.06-.03.11-.06.17-.09.04-.02.09-.04.13-.07v-.06h.28v-.11q.33-.17.46-.17v-.11h.46q.02-.05.04-.11.08-.12.25-.15.08-.01.17-.02s.04-.08.06-.11h.11v-.11h.23v-.11c.17-.08.31-.12.5-.14.06,0,.12-.02.19-.03.02-.04.04-.08.06-.11h.23v-.11c.06-.03.13-.05.2-.08q.21-.07.26-.21.17-.04.34-.06v-.06h.46q.02-.05.05-.1c.07-.13.12-.21.24-.3.13.02.22.05.34.11v-.11h.17v-.11h.23v-.11s.07-.01.11-.02q.06-.02.12-.04s.04-.08.06-.11h.4v-.11h.46v-.11c.21-.09.4-.14.63-.17v-.11h.28v-.11c.1-.03.2-.06.31-.09.06-.02.11-.03.17-.05q.15-.04.26-.04v-.11h.28v-.11h.4v-.11q.08-.01.17-.02c.06-.01.12-.02.17-.04.02-.04.04-.08.06-.11h.57s.04-.08.06-.11h.23v-.11h.23v-.11c.21-.02.41-.04.63-.06v-.11h.34v-.11h.63v-.11c.07,0,.14-.01.21-.02.14-.01.23-.03.35-.09.14-.07.26-.08.42-.09.05,0,.1,0,.15-.01q.06,0,.12,0c.02-.06.04-.11.06-.17h.74c.02-.08.04-.15.06-.23.17-.05.25-.07.42,0t.1.06c.02-.11.04-.23.06-.34.13.04.26.08.4.11v-.28c.06.01.12.02.19.03q.21.04.38-.03s.04-.08.06-.11q.16,0,.34,0s.08.08.11.11c.02-.08.04-.15.06-.23h.11v-.11c.15-.01.29-.03.44-.04.04,0,.08,0,.13-.01.19-.02.32-.02.49.08t.08.09c.02-.13.04-.26.06-.4h.34v-.11c.21-.03.41-.06.63-.06.08-.02.16-.04.24-.06.07-.02.14-.04.21-.06v-.11h.23s.04.08.06.11h.28s.04-.08.06-.11h.51v-.11c.15-.02.3-.04.46-.06.02.06.04.11.06.17h.46v-.11c.26-.06.48-.05.74,0v-.11Z"/>
        <path class="cls-92" d="M48.39,21.54c.07,0,.15,0,.22,0,.42,0,.83.02,1.25.06.02.06.04.11.06.17.05,0,.09,0,.14,0q.15,0,.2.06c.13.01.26.02.39.03q.12.03.24.2t.34.06v.11h.51v.11s.09,0,.14,0q.15,0,.2.06c.13.02.27.04.4.06.04.09.08.19.11.28.05,0,.11,0,.16,0q.18,0,.29.06v.23h.11v.11c.05,0,.11,0,.16-.01.21.01.21.04.35.18.15-.01.26-.05.4-.11.09,0,.18,0,.26,0q.07,0,.14,0s.07,0,.11,0c.04-.08.08-.15.11-.23h.4s.03-.07.05-.11q.07-.12.24-.17c.09-.01.18-.02.28-.02.25-.02.5-.05.75-.08.06,0,.12-.02.19-.02.17-.04.21-.08.33-.21.4-.21.86-.21,1.31-.23.04.08.08.15.11.23q.08-.03.17-.06s.02.09.04.14q.07.17.26.22c.05.01.11.03.16.04-.02.09-.03.18-.05.27,0,.05-.02.1-.03.15q-.04.14-.15.31h-.17s-.02.07-.03.11q-.08.12-.29.16c-.06,0-.13,0-.19.01v.11c-.25.15-.52.17-.8.21-.24.04-.42.1-.62.24-.11.04-.23.08-.34.11-.1.05-.19.11-.28.17-.16.08-.29.06-.46.06-.06,0-.12,0-.19,0-.05,0-.1,0-.15,0v.11h-.17q0,.17.06.34c.09.04.19.08.28.11q.05.14.06.28l-.11.11q-.04.12-.06.23h.28c.02.11.04.23.06.34.04,0,.07,0,.11,0,.04.02.08.03.12.05.04.11.08.23.11.34q.11.08.23.11,0,.09-.02.18c.02.27.11.32.3.5,0,.2-.08.34-.17.51.08.02.15.04.23.06v.23h-.11v.23h.23v.17h-.17v.11q.1-.02.2-.05c.41-.09.83-.19,1.25-.27.19-.04.38-.08.57-.12.07-.01.14-.03.21-.04q.15-.02.22-.1c.14-.01.27-.02.41-.03.22-.01.42-.02.63-.07q.16-.02.26.03s.06.05.09.08c.15.12.21.16.42.2q.19.06.3.24c.08.24.05.43,0,.68-.08.02-.15.04-.23.06q0,.1,0,.2,0,.2-.06.26c-.11.01-.22.02-.34.03q-.13.02-.22.11c-.17.12-.3.12-.5.14-.24.03-.44.06-.65.18-.3.16-.63.14-.97.15-.27,0-.48.04-.73.13-.13.02-.27.04-.4.06-.08.02-.15.04-.23.06,0,.07.02.14.03.21.02.16.03.31.03.47h-.17c0,.05,0,.11,0,.16q.01.73-.12,1.04l-.11.06c0,.07-.01.15-.02.22q-.01.13-.04.23c-.07.04-.15.08-.23.11q-.05.2-.06.4h-.23c0,.06.01.13.02.19,0,.32-.16.59-.36.83-.09.04-.19.08-.28.11-.06.09-.12.19-.17.28-.09.09-.19.19-.28.28-.02.06-.04.11-.06.17h-.17v.11c-.09.06-.19.12-.28.17q-.12.11-.16.26-.07.14-.21.21s-.09.03-.14.05c-.04.06-.08.11-.11.17-.08.02-.15.04-.23.06l-.06.11q-.1.02-.19.05c-.22.07-.26.11-.38.29-.17.11-.24.11-.46.11q0,.05-.01.11-.05.12-.17.19-.43.13-.67.05,0,.07.02.13,0,.08-.02.15-.13.1-.28.17c-.06.04-.11.08-.17.11-.06,0-.12.02-.17.02-.06.01-.11.02-.17.03-.04.06-.08.11-.11.17q-.11.02-.23.01-.11,0-.22-.01v.11c-.05.01-.1.02-.16.03q-.1.02-.21.04-.1.02-.2.04-.18.03-.29.16-.12.02-.25.03c-.2.01-.26.03-.43.14q-.15.02-.32.03-.2,0-.36.08c-.08,0-.16,0-.24,0-.05,0-.1,0-.15,0-.05,0-.1,0-.15,0-.05,0-.1,0-.16,0-.13,0-.25,0-.38,0q.04-.32.19-.48c.28-.13.53-.11.83-.09.01-.03.02-.07.03-.1.12-.19.29-.25.49-.35.29-.15.55-.3.81-.51.16-.12.34-.24.55-.24v-.11c.16-.16.3-.24.52-.28.21-.05.32-.11.45-.28q.04-.07.07-.13c.11-.18.25-.31.4-.46q.1-.1.21-.26h.23v-.11h.11v-.11h.11s0-.07.01-.1c.08-.23.29-.33.48-.46.14-.13.19-.22.25-.4h.11s0-.07.01-.1c.06-.34.15-.51.38-.75.04-.06.08-.11.11-.17h.11s.02-.1.02-.15c.01-.06.02-.13.03-.19,0-.06.02-.13.03-.19q.03-.16.09-.21c0-.07.02-.13.02-.2.01-.07.02-.13.03-.2.04-.02.08-.04.11-.06.04-.11.08-.23.12-.35.02-.06.04-.13.06-.19.02-.05.03-.1.05-.15-.08,0-.16.01-.24.02-.04,0-.09,0-.14.01q-.13.02-.24.08c-.16.07-.29.07-.46.08-.33.02-.6.09-.91.2-.24.08-.49.13-.74.18q-.18.04-.35.17c-.28.17-.6.17-.93.2q-.63.05-1.23.25s-.04.08-.06.11c-.17.03-.35.05-.52.06-.26.03-.44.1-.67.22-.12.03-.23.07-.35.09-.06.01-.12.03-.17.04q-.08.02-.16.04c-.08.02-.15.04-.23.06v.11c-.24.07-.47.13-.72.17-.19.03-.32.06-.49.15-.19.1-.36.11-.57.12q-.05,0-.11.02l-.06.11q-.15.04-.33.09c-.21.05-.39.1-.58.2-.07,0-.14.01-.21.02-.24.02-.42.11-.64.21-.17.08-.34.12-.52.17-.09.04-.19.08-.28.12-.39.16-.8.28-1.2.39q-.51.15-1,.35c-.25.12-.51.18-.79.24-.16.05-.21.1-.32.22-.27.12-.56.19-.85.23v.11c-.3.12-.59.21-.91.29q-.13.04-.19.17s-.03.07-.04.11h-.11l-.11.23h-.11q0,.05,0,.11c-.02.35-.08.54-.31.79q-.08.07-.2.07c0,.07,0,.13.01.2,0,.26-.1.44-.24.65-.04.07-.08.14-.11.21-.1.17-.17.26-.34.36h-.11c0,.06-.01.13-.02.19q-.04.21-.15.32c-.15.05-.3.08-.46.11q-.02.09-.04.17c-.07.25-.22.45-.42.62h-.17s-.02.05-.04.1c-.12.22-.22.39-.47.47q-.1.1-.2.21s-.07.08-.11.12c-.07.09-.14.18-.21.28-.13.15-.27.21-.45.3l-.11.11q-.07.03-.14.05c-.15.06-.21.12-.32.23h-.11c-.02.06-.04.11-.06.17-.11.06-.23.11-.34.17-.08.07-.16.14-.24.21-.26.2-.58.36-.89.48q-.14.05-.25.16c-.2.15-.4.21-.64.29-.15.06-.25.13-.38.23-.05.02-.11.04-.16.05-.2.07-.35.17-.52.29-.31.14-.64.22-.98.28-.25.05-.37.13-.56.29-.15.04-.3.05-.46.06v-.11q-.27.07-.46.28c-.06.02-.11.04-.17.06-.02.04-.04.08-.06.11q-.11.03-.26.05c-.2.04-.38.08-.57.15-.22.08-.42.11-.65.12q-.13.01-.28.13c-1,.25-2.05.19-3.08.17v-.11h-.51l-.06-.17s-.08,0-.12,0c-.36.01-.7,0-1.02-.18l-.06-.17c-.09-.02-.19-.04-.28-.06v-.11s-.08,0-.11.01c-.24-.02-.42-.13-.63-.24v-.23h-.23s-.03-.09-.04-.14c-.08-.17-.12-.2-.3-.26-.3-.02-.55.03-.8.19-.29.18-.61.24-.95.29q-.27.05-.48.21-.11.11-.31.13c-.07,0-.14,0-.22,0-.07,0-.14,0-.22,0-.05,0-.11,0-.17,0,0-.05,0-.11,0-.16q.01-.18-.12-.29c0-.23.02-.35.17-.52.17-.1.34-.19.51-.27q.12-.06.25-.21c.17-.17.32-.22.54-.31.08-.04.15-.08.23-.12q.44-.22.68-.22s-.03-.06-.05-.09c-.21-.46-.19-1.01-.17-1.5h-.11c.03-.19.08-.34.17-.51h-.11c.03-.18.06-.34.11-.51q-.06.03-.11.05c-.21.07-.4.09-.63.12v.11q-.55.26-.85.28-.06-.06-.06-.23,0-.08,0-.17h-.17v.28c-.08-.02-.15-.04-.23-.06q.03-.11.06-.23c-.08-.02-.15-.04-.23-.06.03-.22.07-.31.23-.46.02-.05.03-.1.05-.15q.06-.14.2-.2s.1-.04.15-.05c.03-.04.07-.08.1-.11.17-.15.31-.16.53-.19.04-.01.07-.02.11-.03.02-.06.04-.11.06-.17q.1-.06.23-.11s.09-.04.14-.06c.05-.02.1-.04.15-.06.09-.04.19-.09.28-.13q.22-.1.35-.1c.01-.05.03-.11.04-.16q.07-.18.18-.26c.16-.13.18-.27.24-.46.1-.31.26-.61.45-.89h.11s.01-.08.02-.12c.08-.38.27-.63.55-.9h.11s.01-.08.02-.13c.05-.18.11-.26.24-.4.04-.04.07-.08.11-.12q.1-.1.21-.15c.02-.06.04-.11.06-.17q.1-.08.22-.16c.16-.11.24-.18.35-.35.19-.28.48-.46.8-.57.14-.13.27-.27.4-.41.14-.13.29-.19.46-.28.1-.08.19-.15.28-.23.07-.04.14-.08.21-.12q.2-.1.3-.28c.13-.04.27-.08.4-.11.04-.06.08-.11.11-.17q.15-.01.28,0v.11h.17s-.02-.09-.04-.14q-.01-.07-.02-.15.11-.11.24-.13s.09,0,.14,0c.05,0,.09,0,.14,0,.04,0,.07,0,.11,0,.01-.04.03-.07.04-.11.09-.15.17-.17.34-.22.05-.01.09-.03.14-.04.04,0,.07-.02.11-.03v-.11c.16-.06.33-.11.49-.17.05-.02.09-.03.14-.05q.62-.21.81-.13s.06.04.1.06q.17-.1.28-.23.13,0,.28,0c.15,0,.27,0,.42-.03q.1-.03.22.03v.11h-.11v.11c-.05.01-.11.03-.16.04-.07.02-.14.04-.22.06-.07.02-.14.04-.21.06-.19.06-.32.13-.49.24-.28.17-.56.34-.84.49-.15.08-.26.16-.4.26q-.13.1-.28.13s-.09.02-.13.03c-.02.04-.03.07-.05.11-.08.14-.13.17-.28.23-.26.12-.42.28-.61.5-.13.11-.27.14-.43.19-.06.02-.11.04-.17.06-.02.04-.03.09-.05.13-.08.19-.19.26-.35.38-.02.04-.04.08-.06.11-.05.02-.11.05-.16.07q-.19.08-.29.24c-.15.18-.29.2-.52.25v.28s-.05.02-.1.04c-.17.1-.28.22-.42.36-.03.03-.06.05-.09.08-.1.11-.15.21-.21.34-.1.19-.17.29-.37.37q-.19.09-.23.22c-.01.09-.03.18-.04.26-.06.25-.22.45-.38.65.19-.07.36-.15.53-.26.17-.1.31-.16.5-.2.17-.04.27-.09.41-.2.22-.18.46-.22.74-.27.17-.05.25-.11.39-.21.21-.1.42-.19.63-.29.04-.02.08-.04.13-.06.04-.02.08-.03.12-.05q.11-.06.15-.23.1-.05.22-.09c.16-.05.22-.07.35-.2.3-.09.6-.13.91-.11q0-.07,0-.14,0-.15.06-.2c.15,0,.3,0,.46,0,.02-.06.04-.11.06-.17.09-.04.19-.08.28-.11.04-.06.08-.11.11-.17q.12-.02.26-.01c.31-.02.42-.12.64-.34.2-.17.43-.25.67-.34q.13-.04.2-.11c.12-.01.23-.02.35-.03q.13-.02.22-.2c.12-.05.23-.09.35-.12q.05-.02.1-.05c.02-.06.04-.11.06-.17q.11-.04.25-.06c.19-.03.27-.06.43-.17q.11-.02.23-.02c.07-.01.15-.02.22-.04.02-.04.03-.07.05-.11q.06-.12.21-.17.08-.02.17-.04.24-.05.43-.19c.06,0,.12-.02.17-.03.06,0,.11-.02.17-.03.02-.04.04-.08.06-.11.09-.04.19-.08.28-.11.05-.02.09-.04.14-.06q.15-.05.32-.04c.24-.01.3-.12.46-.3.05-.03.1-.06.16-.09q.15-.07.19-.25c.11-.02.23-.04.34-.06.02-.06.04-.11.06-.17q.14-.06.31-.12c.19-.06.32-.11.49-.22q.12-.01.24,0c.07,0,.14,0,.22,0,.01-.04.03-.07.04-.11.09-.15.16-.18.32-.24q.19-.07.37-.17c.18-.08.35-.09.55-.11q.45-.02.83-.22.04-.12.06-.23c.06-.01.12-.03.18-.04.36-.1.56-.36.79-.64.03-.03.07-.05.1-.08q.09-.1.1-.29.03-.2.14-.31.12-.06.23-.06s0-.08,0-.12c0-.05,0-.1,0-.16,0-.05,0-.1,0-.15q.02-.14.14-.23s.08-.05.11-.08c.01-.11.03-.22.03-.34.04-.21.16-.31.31-.46l.11-.06c0-.05,0-.11,0-.16.02-.06.03-.12.05-.18.12-.06.23-.09.35-.12q.11-.04.15-.16.02-.13.01-.29s.08-.02.12-.04c.32-.15.51-.4.68-.7q.11-.11.28-.14c.06-.01.11-.02.17-.04q.07-.1.11-.23c.09-.14.19-.27.28-.4q.23.03.46.06,0-.06,0-.12c0-.16.01-.3.06-.45.11-.09.21-.13.35-.18q.12-.04.2-.17c.12-.16.29-.17.48-.22.02-.04.04-.08.06-.11.06,0,.13-.01.19-.02.07-.01.14-.03.21-.04q.04-.07.09-.14.04-.07.09-.14c.13-.02.27-.04.4-.06q.06-.05.12-.11c.22-.16.42-.17.68-.2.18-.04.25-.1.39-.2q.21-.01.4,0s.02-.07.02-.11q.03-.12.09-.17c.1,0,.19,0,.29,0,.05,0,.1,0,.16,0,.04,0,.08,0,.12,0v-.17c.06,0,.13-.02.2-.02q.19,0,.26-.09c.11-.01.22-.02.33-.03.22-.02.43-.04.64-.09v.11q.21-.06.34-.23c.52-.09,1.07-.07,1.6-.06Z"/>
        <path class="cls-104" d="M52.03,25.88c.14.13.17.21.2.41.01.05.02.11.03.16q.11.08.23.11t.06.26c0,.06,0,.13,0,.2l.17.06.06.28h.11c.18.23.19.4.17.68.04,0,.07.01.11.02q.12.04.23.21c.02.1.04.19.06.29q.02.18.11.33c0,.13,0,.27,0,.4-.09.02-.19.04-.28.06v.11c-.15.08-.29.07-.46.08-.28.02-.51.06-.77.16-.24.08-.5.1-.75.13-.19.03-.35.07-.53.14-.02.04-.04.08-.06.11-.14.05-.28.1-.42.14-.04.01-.08.03-.12.04-.29.09-.58.15-.88.19q-.05.01-.11.03l-.06.11q-.14.03-.32.05c-.2.03-.35.05-.53.15-.18.09-.31.11-.51.14-.35.05-.66.14-.99.25-.21.07-.42.13-.64.16-.32.06-.6.19-.89.34q-.11.05-.29.08c-.05,0-.11.02-.16.03-.02.04-.04.08-.06.11-.13.04-.27.08-.4.11-.05.03-.09.06-.14.09-.18.11-.34.15-.54.2-.29.09-.54.18-.8.34-.13.04-.26.08-.4.11q-.28.06-.51.23c-.16.03-.32.06-.48.09-.09.01-.18.03-.26.04q-.06,0-.12.02-.12.03-.28.14c-.13.04-.27.08-.4.11-.15.05-.3.11-.46.17-.04.01-.07.03-.11.04-.16.07-.28.12-.4.24-.15.03-.3.04-.46.06v.11c-.12.04-.23.07-.35.11-.07.02-.13.04-.2.06-.14.04-.29.08-.43.12q-.08.02-.16.05-.03.06-.06.11c-.09,0-.19,0-.28,0q-.06-.06-.06-.26c0-.06,0-.13,0-.2h.17c0-.07.01-.14.02-.21.03-.21.08-.36.21-.53h.11s0-.1,0-.15c0-.06,0-.13.01-.19,0-.06,0-.13.01-.19,0-.05.02-.1.02-.16l.11-.06q.03-.12.06-.25.04-.25.17-.37.04-.14.06-.29c0-.05.02-.1.03-.16,0-.04.01-.08.02-.12h-.4v-.17s.08-.02.12-.03c.16-.04.3-.08.45-.15q.1-.17.17-.34c.11-.06.23-.12.34-.17q.08-.09.16-.18c.04-.05.08-.11.13-.16h.11v.17c.16-.06.28-.11.41-.22.35-.26.84-.35,1.27-.37.24-.02.31-.08.48-.26q.12-.02.25-.03c.25-.02.35-.09.54-.26.13-.04.27-.08.4-.11q.06-.04.11-.09c.16-.12.32-.15.51-.2.06-.04.11-.08.17-.11q.18,0,.34,0,.02-.05.03-.11s.05-.08.08-.12c.13-.02.27-.04.4-.06.03-.04.07-.07.1-.11.15-.15.27-.17.47-.21q.25-.04.45-.19.1-.01.2-.03.1-.01.2-.03s.04-.08.06-.11q.13-.02.29-.04c.05,0,.1,0,.16-.01q.06,0,.12,0c.02-.06.04-.11.06-.17.25-.12.5-.13.78-.14q.14-.02.24-.14c.17-.16.3-.15.54-.16.07,0,.14,0,.22,0q.08,0,.17,0c.02-.11.04-.23.06-.34.16-.04.3-.06.47-.05.21-.01.3-.04.48-.12.29-.13.56-.15.88-.15.19-.02.29-.09.45-.19.1-.04.19-.08.29-.12.05-.02.1-.04.14-.06.22-.08.42-.14.65-.11Z"/>
        <path class="cls-104" d="M35.51,32.14c.02.13.04.26.06.4-.04.01-.09.03-.14.04-.18.08-.2.12-.26.3-.02.19-.03.38-.03.57-.03.18-.05.23-.2.34l.11.34h-.23s0,.07,0,.11c0,.05,0,.09,0,.14,0,.05,0,.09,0,.14q-.01.13-.13.3h-.11c0,.06.01.12.02.18-.02.27-.11.32-.3.5q-.05.18-.06.34h-.11v.11q-.51.21-.78.28c-.16.05-.26.09-.4.17-.31.16-.65.19-.99.23v.11q-.06,0-.12.02c-.38.06-.72.15-1.07.31-.2.09-.35.14-.58.12v.11c-.29.09-.56.14-.85.17v.11s-.07.03-.1.04q-.29.12-.55.31c-.24.16-.5.15-.78.16v.11c-.13.05-.25.11-.38.16-.04.02-.07.03-.11.05-.16.07-.31.13-.47.2q-.12.04-.18.11c-.07,0-.13.01-.2.02-.34.04-.6.2-.88.38-.08.03-.17.06-.26.09q-.07.02-.13.04t-.29.03v.17s-.07,0-.1.01c-.57.1-1.04.3-1.4.77q-.09.07-.27.06c-.28.01-.45.1-.7.23q-.06.03-.12.06c-.16.08-.3.16-.43.29q-.13.03-.27.05c-.23.04-.38.11-.58.23-.13.03-.27.06-.4.08-.04.01-.07.02-.11.04-.02.06-.04.11-.06.17-.09.04-.19.08-.28.11l-.11.11q-.18,0-.34,0v.11c-.15.08-.22.11-.4.11v.11s-.07.02-.11.03q-.07.02-.14.04s-.09.03-.14.04c-.04.02-.08.04-.12.05-.02.06-.04.11-.06.17q-.33.06-.46,0c-.08-.23-.13-.44-.11-.68h-.11c-.14-.24-.11-.42-.07-.68.02-.18,0-.34,0-.52q-.02-.49.09-.71c.16-.18.31-.27.55-.31.06,0,.12,0,.17,0,0-.03,0-.07.01-.1q.04-.12.16-.2s.1-.04.15-.07c.05-.02.1-.05.16-.07.17-.07.33-.13.5-.19.11-.04.2-.1.31-.16.23-.13.39-.15.65-.16v-.11s.07,0,.1-.01c.33-.06.46-.14.7-.38.27-.15.57-.26.86-.37q.06-.02.12-.05c.08-.03.16-.06.24-.09q.21-.07.39-.21c.1-.1.18-.13.31-.18.04-.01.09-.03.13-.04.04-.01.09-.03.13-.04q.29-.07.53-.22c.06,0,.12,0,.19-.01.35-.04.66-.2.95-.39.04-.07.08-.15.11-.23.13-.04.26-.08.4-.11.15-.07.3-.15.45-.23.13-.06.24-.08.38-.1.26-.05.32-.15.48-.35.17-.08.34-.12.51-.17.06-.02.11-.04.17-.06.15-.05.3-.08.46-.1.27-.05.45-.15.69-.29h.17q.02-.05.04-.11.08-.12.21-.16c.05,0,.11-.01.16-.02.25-.03.4-.09.61-.22.11-.06.23-.12.34-.17q.09-.04.17-.09c.22-.11.45-.19.68-.28.14-.05.27-.11.4-.17.39-.2.82-.33,1.24-.47.23-.08.44-.16.64-.3l.06-.17h.4v-.11s.07-.01.11-.02c.04-.01.08-.03.12-.04.02-.06.04-.11.06-.17q.1-.04.22-.06.48-.1.69-.05Z"/>
        <path class="cls-104" d="M32.89,38.12q-.02.17-.06.34s-.08.04-.11.06c-.04.13-.08.27-.11.4-.09.29-.27.45-.49.65-.22.24-.26.45-.31.77-.14.14-.19.13-.38.15-.24.04-.35.09-.5.28-.03.04-.05.07-.08.11t-.07.08h-.11c-.02.06-.04.11-.06.17h-.23q-.06.28-.11.57h-.17v.11c-.07,0-.15.01-.22.02q-.2.02-.35.15c-.09.04-.19.08-.28.11l-.06.06c-.11,0-.23,0-.34,0v.11c-.05.03-.11.07-.16.1q-.19.11-.23.27s-.04.09-.06.14q-.19.06-.4.11s-.08.06-.11.09c-.16.12-.32.11-.51.14-.15.07-.26.14-.37.26-.13.11-.26.11-.43.14-.06.03-.12.06-.17.09-.17.08-.27.1-.45.08,0,.03,0,.07,0,.1q-.05.12-.21.21c-.06.02-.13.05-.2.07-.06.02-.13.05-.19.07q-.19.06-.38.09c-.05,0-.1.02-.15.03-.06.09-.12.19-.17.28q-.15.05-.28.06s-.04-.08-.06-.11q-.2.08-.4.17c-.09,0-.17,0-.26,0-.05,0-.1,0-.15,0q-.08,0-.16,0c-.05,0-.11,0-.16,0-.13,0-.27,0-.4,0q-.03.08-.06.17-.34.03-.68.06s-.04-.08-.06-.11q-.36-.08-.69.03s-.07.06-.11.09c-.12-.12-.14-.18-.17-.34h-.4s-.03-.07-.04-.11q-.06-.13-.2-.15s-.09,0-.14,0q-.07,0-.14,0s-.07,0-.11,0v-.11c-.06-.02-.11-.04-.17-.06v-.11h-.57q.01-.13.06-.28t.26-.12c.05-.02.1-.04.16-.06q.07-.03.15-.05c.07-.03.13-.06.2-.09.16-.07.32-.12.49-.16.19-.05.3-.1.46-.21.21-.14.37-.14.62-.16l.06-.06c.11,0,.23,0,.34,0,0-.04,0-.07.01-.11q.04-.12.16-.18s.09-.02.14-.04c.18-.05.28-.09.43-.19.08-.02.17-.04.25-.05.22-.04.36-.12.55-.23.19-.06.38-.12.57-.17v-.11c.23-.1.47-.2.7-.28.24-.09.47-.18.7-.28.22-.1.44-.19.67-.27.15-.07.25-.15.38-.24q.11-.05.22-.09c.14-.05.25-.1.37-.17.15-.09.3-.12.47-.16.14-.04.25-.1.38-.17.29-.15.59-.26.89-.37.21-.08.42-.16.62-.26.16-.07.26-.1.44-.12q.19-.01.32-.14c.17-.13.31-.18.52-.24.25-.07.44-.15.65-.28q.12-.04.23-.06.21-.04.39-.11s.04-.08.06-.11c.06,0,.12-.02.19-.02.22-.03.35-.2.55-.2Z"/>
        <path class="cls-62" d="M46.33,23.6s.1,0,.14,0c.15,0,.3,0,.45,0,.1,0,.21,0,.31,0,.25,0,.5,0,.75,0,.02.04.04.08.06.11.12,0,.25.01.37.01.6.02,1.17.23,1.68.56-.02.08-.04.15-.06.23-.17.04-.34.08-.51.11v.23s-.1.02-.15.04c-.06.02-.13.03-.19.05-.06.02-.13.03-.19.05q-.15.03-.21.1c-.09.02-.17.03-.26.05-.25.05-.44.12-.66.25-.14.07-.29.08-.45.11l-.06.11q-.11.03-.24.06c-.28.06-.49.12-.72.29-.2.13-.34.14-.58.17-.13.04-.26.08-.39.13-.12.04-.23.07-.35.1-.06.02-.11.04-.17.05l-.06.11q-.12.03-.26.06t-.31.11c-.09,0-.18.01-.27.01q-.25.02-.42.19s-.07.09-.1.14q-.2.01-.4,0c-.06.04-.11.08-.17.11-.07,0-.15.01-.22.02q-.19.02-.34.15c-.16.16-.29.14-.51.14q-.13.01-.2.14-.09.11-.25.15c-.06,0-.12,0-.18,0-.19,0-.33.01-.51.07-.02.06-.04.11-.06.17q-.19.06-.4.11-.07.02-.14.04s-.06.01-.09.02q-.02-.12,0-.28c.09-.1.19-.19.28-.28.07-.12.12-.23.18-.35q.05-.1.16-.21s.01-.08.02-.11c.01-.04.02-.08.04-.11.08-.04.15-.08.23-.11.12-.13.22-.27.31-.42.18-.29.36-.49.66-.66.1-.09.16-.15.21-.28.09-.16.2-.23.35-.34.05-.03.1-.07.15-.11q.13-.08.25-.08v-.23c.05-.01.1-.03.16-.04.39-.11.76-.29,1.13-.45.06-.03.13-.05.2-.08.05-.02.1-.04.15-.06.35-.14.62-.19.99-.17v-.11c.29-.06.56-.06.85-.06Z"/>
        <path class="cls-103" d="M31.58,36.87q-.11.11-.22.13c-.11,0-.23,0-.34-.01-.02.09-.04.19-.06.28-.06,0-.12,0-.18,0-.18,0-.33.02-.5.06v.11s-.07.03-.11.04c-.29.12-.58.24-.86.37-.11.05-.22.07-.34.1-.05.03-.1.05-.15.08-.2.1-.4.16-.62.22-.16.05-.28.13-.43.22-.1.04-.2.07-.3.11-.21.07-.39.15-.58.26-.43.25-.84.44-1.33.47-.19.03-.34.13-.51.23-.28.16-.55.24-.87.24v.11s-.09.03-.13.05q-.16.06-.32.18c.08-.22.19-.29.4-.4.05-.03.1-.06.15-.09.25-.1.49-.12.76-.14v-.17c.21-.09.4-.17.62-.23q.18-.04.3-.17c.22-.11.4-.18.64-.2q.21,0,.32-.14c.12-.05.24-.1.36-.15.06-.02.13-.05.2-.07.16-.05.31-.09.47-.12v-.11s.08,0,.13-.01q.37-.05.68-.24c.2-.18.35-.21.62-.26v-.11c.29-.11.54-.2.85-.17v-.11s.1-.03.15-.05q.2-.07.39-.15.58-.24.83-.14ZM23.61,40.12s.08.04.11.06c-.09.15-.17.26-.34.32-.09.02-.17.03-.26.05-.41.07-.81.18-1.11.48-.05,0-.09,0-.14-.01-.26.02-.42.13-.63.27-.23.15-.37.22-.65.2q.06-.17.23-.28c.11-.03.23-.06.34-.08q.13-.03.29-.12t.38-.11.26-.1c.15-.14.33-.22.51-.31.04-.02.07-.04.11-.06.25-.12.44-.14.73-.13q.11-.08.17-.17Z"/>
        <path class="cls-108" d="M19.74,43.65c-.06.02-.11.04-.17.06.02.04.04.08.06.11q.12.04.23.06v.11h.28v.23c.07,0,.14,0,.21,0,.27,0,.48.07.73.18q.15.06.36.08c.06,0,.12.02.19.03q.03.06.06.11s.09,0,.14,0q.6-.01.89.12v-.11c.13-.07.22-.07.37-.07.05,0,.1,0,.15,0,.11,0,.21,0,.32,0q.08,0,.15,0s.09,0,.14,0q.14-.01.29-.13c.13-.02.26-.02.4-.03.04-.01.08-.02.12-.03q.07-.11.11-.23c.34-.15.76-.25,1.14-.23-.28.19-.6.32-.94.37-.05.01-.1.02-.15.03-.06.09-.12.19-.17.28q-.15.05-.28.06t-.06-.11q-.2.08-.4.17c-.09,0-.17,0-.26,0-.05,0-.1,0-.15,0-.05,0-.11,0-.16,0-.05,0-.11,0-.16,0-.13,0-.27,0-.4,0q-.03.08-.06.17l-.68.06q-.03-.06-.06-.11-.36-.08-.69.03s-.07.06-.11.09c-.12-.12-.14-.18-.17-.34h-.4s-.03-.07-.04-.11q-.06-.13-.2-.15-.07,0-.14,0-.07,0-.14,0s-.07,0-.11,0v-.11c-.06-.02-.11-.04-.17-.06v-.11h-.57c.02-.09.04-.19.06-.28q.33-.12.46-.06Z"/>
        <path class="cls-35" d="M51.63,37.21h.23q.06.03.11.06s-.08.08-.11.11c-.16,0-.3-.03-.46-.06,0,.04.01.09.02.13,0,.05-.01.1-.02.15q-.13.1-.28.17l-.17.11c-.06,0-.12.02-.17.02-.06.01-.11.02-.17.03l-.11.17q-.11.02-.23.01c-.07,0-.15,0-.22-.01v.11c-.05.01-.1.02-.16.03-.07.01-.14.03-.21.04-.07.01-.13.03-.2.04q-.18.03-.29.16t-.25.03c-.2.01-.26.03-.43.14q-.15.02-.32.03-.2,0-.36.08c-.08,0-.16,0-.24,0-.05,0-.1,0-.15,0-.05,0-.1,0-.15,0-.05,0-.1,0-.16,0-.13,0-.25,0-.38,0q.04-.32.2-.48c.24-.11.39-.11.65-.09-.02.04-.04.08-.06.11-.05.02-.1.03-.16.05-.21.08-.32.18-.47.35.08,0,.16-.02.24-.02.04,0,.09,0,.14-.01q.23-.02.42-.13c.1,0,.2,0,.3,0,.27,0,.44-.03.67-.18q.12-.05.23-.06c.06.04.11.08.17.11v-.11h.11v-.11c.26-.15.44-.18.74-.17l.06-.06c.15,0,.3,0,.46,0,.02-.08.04-.15.06-.23q.25-.03.51-.06c.02-.06.04-.11.06-.17h.11q.01-.07.02-.14s.02-.1.04-.15c.14-.07.24-.06.4-.06Z"/>
        <path class="cls-107" d="M14.39,44.39l.11.06q-.21.17-.34.17c-.02.13-.04.26-.06.4h.34c.02.09.04.19.06.28-.02.02-.04.04-.06.06q.16.02.34,0s.09-.07.13-.11c.19-.14.3-.14.53-.16.23-.03.43-.11.65-.19.11-.04.23-.08.34-.11v-.11q.65-.18.96-.04s.08.07.12.1v.23c.06.02.11.03.17.05.06.02.12.04.17.07q.03.08.06.17t.34.17v.11s.08,0,.13-.01c.2.02.26.09.38.24-.09-.02-.19-.04-.28-.06v-.11s-.08,0-.11.01c-.24-.02-.42-.13-.63-.24v-.23h-.23s-.03-.09-.04-.14c-.08-.17-.12-.2-.3-.26-.3-.02-.55.03-.8.19-.29.18-.61.24-.95.29q-.27.05-.48.21-.11.11-.31.13c-.07,0-.14,0-.22,0-.07,0-.14,0-.22,0q-.08,0-.17,0c0-.05,0-.11,0-.16q.01-.18-.12-.29c0-.25.02-.36.2-.53q.15-.09.26-.15Z"/>
        <path class="cls-3" d="M48.39,21.54c.07,0,.15,0,.22,0q.94,0,1.25.06.03.06.06.11c-.13,0-.26,0-.39,0q-.11,0-.22,0t-.36-.06s-.01.07-.02.1c-.05.15-.09.21-.21.3h-.23v-.28h.11v-.11c-.13.03-.27.07-.4.11l-.06.11h-.23v-.23c-.18.01-.35.03-.53.05q-.08,0-.15.01s-.1,0-.15.01c-.04,0-.09,0-.13.01-.14.04-.19.09-.29.2q-.11,0-.23-.02c-.07-.01-.15-.02-.22-.04-.02.02-.04.04-.06.06-.08,0-.16.01-.24.02-.05,0-.1,0-.15,0-.05,0-.1,0-.15,0-.05,0-.1,0-.16,0-.13,0-.25.01-.38.02v.23c-.21.04-.41.06-.63.06q-.06.03-.11.06c.04-.08.08-.15.11-.23h.57v-.17q.1-.01.2-.02.19,0,.26-.09c.11-.01.22-.02.33-.03.22-.02.43-.04.64-.09v.11q.21-.06.34-.23c.52-.09,1.07-.07,1.6-.06Z"/>
        <path class="cls-86" d="M33.24,37.9c.09.28.01.43-.11.68h-.4c0,.05,0,.11.01.16q0,.09-.01.18l-.17.11c.01-.08.03-.17.05-.25q.01-.07.03-.14s.03-.08.04-.12l.17-.06c.02-.11.04-.23.06-.34-.05.04-.1.08-.15.11-.22.13-.34.13-.59.11l-.06.17c-.16.08-.31.12-.48.17q-.2.05-.36.14c-.17.08-.32.13-.5.17-.25.06-.39.15-.59.32-.13.02-.27.04-.4.06-.13.05-.25.11-.38.17-.21.09-.42.18-.65.23l-.11-.06c.2-.13.4-.21.63-.28.07-.04.15-.07.22-.11.2-.1.4-.18.62-.24.14-.05.28-.1.43-.16.17-.07.33-.13.5-.17q.17-.04.25-.14c.12-.11.21-.12.38-.15.2-.03.28-.05.46-.17.07,0,.13-.01.2-.02.24-.04.24-.08.37-.26.2-.07.36-.11.57-.11Z"/>
        <path class="cls-54" d="M50.55,30.15c-.02.06-.04.11-.06.17-.14.05-.27.08-.41.12-.07.02-.15.04-.22.06q-.06.01-.11.03c-.17.04-.34.09-.51.14-.12.03-.23.06-.35.09-.06.01-.11.03-.17.04q-.16.03-.39.03v.11c-.3.07-.59.12-.9.16-.35.05-.57.15-.86.33-.24.12-.49.16-.76.2-.21.03-.4.07-.59.15-.18.07-.29.09-.47.07.02-.04.04-.08.06-.11.11-.03.22-.06.33-.08.17-.04.31-.12.46-.2.18-.08.34-.13.53-.16.26-.05.51-.13.77-.21.35-.11.68-.18,1.04-.23.21-.04.37-.12.56-.21.21-.08.41-.06.63-.05.02-.06.04-.11.06-.17q.1-.04.22-.06s.09-.02.14-.03c.05,0,.09-.02.14-.03.09-.02.19-.04.28-.06.04,0,.08-.02.13-.02.08-.02.16-.04.24-.06q.11-.03.22-.03Z"/>
        <path class="cls-78" d="M41.49,25.77l.11.06s-.05.05-.07.08c-.13.15-.26.3-.36.47-.1.17-.22.29-.37.42h-.11q0,.06-.02.13c-.04.17-.1.25-.21.38-.02.05-.04.1-.05.15q-.06.14-.18.19s-.07.04-.11.06q-.05.2-.06.4s.06-.04.09-.05q.14-.06.31-.08t.27-.15c.2-.18.39-.14.65-.14q.17,0,.25-.14s.05-.08.08-.11q.12-.03.25-.03.21,0,.37-.14c.19-.18.43-.16.69-.17-.13.15-.15.17-.36.19-.26.04-.35.15-.55.32-.13.04-.27.08-.4.11q-.16.11-.28.23s-.08-.04-.11-.06q-.27-.03-.51.08c-.14.1-.25.13-.42.16-.05,0-.1.02-.15.03-.04,0-.08.01-.12.02v.11h-.28c.01-.09.03-.19.04-.28,0-.05.02-.1.02-.16q.05-.14.16-.2s.07-.03.11-.05c.04-.11.08-.23.11-.34q.09-.14.17-.23h.11v-.28s.09-.03.13-.04c.18-.08.22-.15.32-.31.14-.22.28-.42.46-.61Z"/>
        <path class="cls-51" d="M35.06,32.88h.06c0,.12,0,.24.01.36q0,.1,0,.2t-.1.29s-.04.03-.08.06c.04.11.08.23.11.34h-.23s0,.07,0,.11c0,.05,0,.09,0,.14,0,.05,0,.09,0,.14q-.01.13-.13.3h-.11c0,.06.01.12.02.18-.02.27-.11.32-.3.5q-.05.18-.06.34h-.11v.11c-.32.13-.63.25-.97.34-.11.04-.23.08-.34.11.04-.06.08-.11.11-.17h.17v-.11s.07-.02.1-.03c.25-.08.47-.17.7-.31h.17c0-.05,0-.1,0-.16,0-.18.02-.27.12-.41.04-.02.08-.03.11-.05q.12-.06.16-.17c.05-.27.08-.52.07-.8.09-.04.19-.08.28-.11-.04-.11-.08-.23-.11-.34.06-.02.11-.04.17-.06.09-.19.08-.39.1-.6q.02-.14.07-.2Z"/>
        <path class="cls-103" d="M60.34,28.21q.44.04.6.21c.16.29.15.5.08.82-.08.02-.15.04-.23.06,0,.06,0,.13,0,.2q0,.2-.06.26c-.11.01-.22.02-.34.03q-.13.02-.22.11c-.17.12-.3.12-.5.14-.25.03-.46.06-.68.18-.28.14-.56.13-.87.11v-.11s.07,0,.11,0c.05,0,.09,0,.14-.01.05,0,.09,0,.14-.01q.13-.01.24-.14t.29-.06c.06,0,.12-.02.18-.03q.09-.01.18-.03.09-.02.18-.03.45-.08.58-.08l.02-.19q.04-.21.15-.32c.05,0,.11,0,.16.01q.19,0,.32-.15c.11-.26.09-.44.03-.72q-.06.02-.13.04c-.18.02-.24,0-.38-.09v-.17Z"/>
        <path class="cls-20" d="M51.69,25.77q.36-.03.53.09c.12.17.19.34.27.54l.11.06v.34h.11c.14.18.23.33.29.56.02.06.04.12.05.18l.17.06q.05.12.09.28c.05.19.09.3.2.46q.02.14.04.3c0,.05,0,.1.01.16,0,.04,0,.08,0,.12-.11-.09-.16-.14-.2-.28q0-.06,0-.12c-.01-.19-.03-.23-.14-.4-.06-.02-.11-.04-.17-.06q-.01-.09-.02-.18c-.03-.19-.07-.33-.15-.5h-.11s-.03-.09-.05-.14q-.05-.15-.18-.2c0-.06-.01-.13-.02-.19-.04-.25-.07-.24-.26-.38-.09-.17-.16-.34-.23-.51-.36-.01-.63.07-.95.23-.07.03-.13.06-.2.09q-.15.06-.21.14c-.11,0-.21,0-.32,0-.06,0-.12,0-.17,0-.04,0-.09,0-.14,0v-.06s.07,0,.1,0c.27-.02.43-.04.64-.22h.23v-.11c.22-.15.43-.12.68-.11v-.11Z"/>
        <path class="cls-103" d="M58.86,22.63l.11.06c-.02.09-.03.18-.05.27,0,.05-.02.1-.03.15q-.04.14-.15.31h-.17q-.02.05-.03.11t-.29.16c-.06,0-.13,0-.19.01v.11c-.25.15-.52.17-.8.21-.24.04-.42.1-.62.24-.11.04-.23.08-.34.11-.1.05-.19.11-.28.17-.16.08-.29.06-.46.06-.06,0-.12,0-.19,0-.05,0-.1,0-.15,0,.02-.04.04-.08.06-.11q.17-.02.37-.04c.07,0,.14,0,.21-.01.05,0,.11,0,.16,0,.02-.06.04-.11.06-.17.19-.13.35-.17.57-.23.07-.03.13-.06.2-.09.35-.14.74-.16,1.11-.2v-.11c.06-.02.13-.04.2-.06q.11-.04.2-.11.06-.18.06-.34h.34s0-.08,0-.13c0-.16.04-.25.12-.38Z"/>
        <path class="cls-46" d="M49.28,24.73q.07,0,.14,0h.11v.12q-.07.02-.15.04c-.06.02-.13.03-.19.05-.06.02-.13.03-.19.05q-.15.03-.21.1c-.09.02-.17.03-.26.05-.25.05-.44.12-.66.25-.14.07-.29.08-.45.11-.02.04-.04.08-.06.11q-.11.03-.24.06c-.28.06-.49.12-.72.29-.2.13-.34.14-.58.17-.13.04-.26.08-.38.13-.19.06-.39.11-.59.16v-.17c.07-.02.13-.03.2-.05.08-.02.17-.04.25-.06.04,0,.09-.02.13-.03.11-.03.22-.06.33-.09.02-.04.04-.08.06-.11.11-.01.23-.03.34-.04.13-.02.23-.06.34-.13v-.11c.28-.11.5-.12.8-.11.02-.08.04-.15.06-.23.12.03.23.06.34.11v-.17q.05-.02.1-.03c.1-.03.2-.06.3-.09.11-.03.21-.06.32-.09.05-.01.1-.03.15-.04.05-.01.09-.03.14-.04q.47-.17.56-.16Z"/>
        <path class="cls-98" d="M29.31,42c.06.02.11.04.17.06-.04.03-.09.07-.14.1-.14.12-.19.19-.26.36-.18.06-.23.05-.4,0,0,.04,0,.09-.01.14q-.04.15-.14.22c-.11.04-.22.07-.34.1q-.19.04-.28.15t-.31.1c-.25.02-.33.12-.49.3-.14.13-.3.16-.48.2-.05.02-.09.04-.14.06-.2.07-.39.09-.6.11.02-.06.04-.11.06-.17q.11-.05.25-.09c.14-.04.26-.08.39-.14.15-.07.28-.06.45-.05.01-.04.03-.07.04-.11.09-.15.14-.18.3-.23.06,0,.13-.01.2-.02.23-.04.31-.12.49-.26.06,0,.12-.02.18-.02q.08-.02.16-.03.07-.14.11-.28.19-.17.34-.17v-.11c.06-.02.13-.04.2-.05q.19-.04.26-.12Z"/>
        <path class="cls-95" d="M18.77,45.81h.34v.11c.06,0,.13.01.19.02.08,0,.17.02.25.03.04,0,.08,0,.13.01.21.02.33.05.51.16.13,0,.27,0,.4,0t.06.06c.56.03,1.14,0,1.7-.02.07,0,.14,0,.22,0,.07,0,.13,0,.2,0,.06,0,.12,0,.19,0q.14,0,.2-.07c.09,0,.17,0,.26,0,.05,0,.09,0,.14,0,.04,0,.07,0,.11,0-.02.04-.04.08-.06.11-.15.04-.3.07-.45.09-.05,0-.1.02-.15.02-.82.11-1.65.07-2.48.06v-.11h-.51c-.02-.06-.04-.11-.06-.17q-.06,0-.12,0c-.36.01-.69,0-1.02-.18l-.06-.11Z"/>
        <path class="cls-99" d="M53.91,31.29q.03.14.06.28c-.08.04-.15.08-.23.11.02-.09.04-.19.06-.28-.08,0-.16.01-.24.02-.04,0-.09,0-.14.01q-.13.02-.24.08c-.16.07-.29.07-.46.08-.33.02-.6.09-.91.2-.19.06-.37.1-.56.14-.21.05-.38.09-.56.21-.28.15-.56.15-.88.16q.06-.08.11-.17t.29-.01c.05,0,.1,0,.16,0,.04,0,.08,0,.12,0v-.11c.28-.13.52-.2.82-.25.29-.05.53-.12.79-.26.29-.16.56-.17.87-.16.14,0,.27-.03.4-.06.19-.05.33-.06.53,0Z"/>
        <path class="cls-55" d="M54.99,34.93s-.09.09-.14.13q-.16.14-.2.32h-.17v.11c-.09.06-.19.12-.28.17q-.12.11-.16.26t-.21.21s-.09.03-.14.05l-.11.17c-.08.02-.15.04-.23.06l-.06.11c-.06.02-.13.03-.19.05-.22.07-.26.11-.38.29-.17.11-.24.11-.46.11-.02.08-.04.15-.06.23-.08-.02-.15-.04-.23-.06q.08-.03.17-.06v-.17q.05,0,.11-.02s.09-.02.14-.03c.05,0,.09-.02.14-.02q.13-.04.19-.15s.03-.08.05-.12l.11-.17s.09,0,.14-.01c.05-.02.1-.03.15-.05.06-.12.1-.23.13-.35q.04-.1.15-.16l.17.06v.11c.27-.14.45-.3.57-.58t.06-.1q.07-.01.14-.02s.09-.02.14-.03c.04-.09.08-.19.11-.28q.19-.13.34-.06Z"/>
        <path class="cls-89" d="M31.1,36.81h.14v.12s-.08.02-.12.03c-.05.01-.1.03-.16.04-.05.01-.1.03-.15.04q-.15.05-.31.16t-.28,0v.11c-.29.09-.56.14-.85.17v.11s-.07.03-.1.04q-.29.12-.55.31c-.24.16-.5.15-.78.16v.11c-.13.05-.25.11-.38.16-.04.02-.07.03-.11.05q-.58.25-.82.3v-.11c.22-.1.43-.2.65-.3q.09-.04.18-.09c.31-.14.61-.27.94-.37.17-.06.3-.17.45-.27.13-.04.27-.08.4-.11.19-.07.38-.15.57-.23.33-.13.65-.26.98-.36q.26-.09.3-.1Z"/>
        <path class="cls-70" d="M53.57,29.01h.06v.4c-.42.2-.86.32-1.32.37-.05,0-.11.02-.16.02l-.06.11c-.13.02-.27.04-.4.06q-.07.01-.14.03c-.16.03-.32.05-.48.07-.17.02-.34.05-.52.07.06-.02.11-.04.17-.06.02-.06.04-.11.06-.17.3-.13.63-.17.95-.22.18-.03.35-.06.53-.13.21-.07.4-.08.62-.09.04,0,.08,0,.12,0,.1,0,.19-.01.29-.01v-.11c.09-.02.19-.04.28-.06v-.28Z"/>
        <path class="cls-52" d="M48.55,27.08c-.17.17-.36.14-.59.15-.17.03-.2.07-.32.2q-.12.03-.26.05c-.23.04-.4.1-.61.21-.24.13-.4.16-.67.14-.04.08-.08.15-.11.23l-.34-.06c-.02.06-.04.11-.06.17h-.4c-.02.06-.04.11-.06.17q-.38.06-.57.06c.18-.21.31-.27.58-.32q.25-.04.45-.19c.07,0,.13-.02.2-.03.06,0,.13-.02.2-.03.02-.04.04-.08.06-.11q.13-.02.29-.04t.16-.01.12,0c.02-.06.04-.11.06-.17.21-.1.41-.12.63-.14q.22-.01.39-.15c.2-.19.61-.24.86-.11Z"/>
        <path class="cls-60" d="M49.92,21.72h.4v.11s.07,0,.11,0c.29,0,.53,0,.8.12.02.04.04.08.06.11.13.03.27.05.4.06.07,0,.15.02.22.03.06,0,.11.01.17.02q.03.08.06.17t.19.01c.07.01.14.03.21.04.02.04.04.08.05.11.02.04.04.08.06.11.12.01.23.03.35.03q.11.02.2.16.04.07.08.15c.22.13.44.21.68.28-.02.04-.04.08-.06.11q-.27-.04-.4-.17c-.11-.02-.23-.04-.34-.06v-.11h-.11v-.23c-.07,0-.15,0-.22-.01q-.13-.02-.23-.04c-.04-.07-.08-.15-.11-.23q-.19-.04-.4-.06c-.11-.04-.23-.07-.34-.11v-.11h-.51v-.11q-.08,0-.16.01c-.06,0-.12,0-.18-.01-.04-.06-.08-.11-.11-.17q-.11-.03-.24-.03c-.22-.02-.41-.06-.61-.14v-.06Z"/>
        <path class="cls-38" d="M43.54,32.31c-.15.15-.3.18-.51.24q-.13.04-.23.16c-.17.03-.35.05-.52.08q-.16.02-.24.12c-.11.1-.17.12-.31.14q-.06,0-.13.02s-.09.01-.13.02q-.34.05-.65.2c-.13.04-.27.08-.4.11-.15.05-.3.11-.46.17-.04.01-.07.03-.11.04-.16.07-.28.12-.4.24q-.18,0-.34,0c.13-.13.23-.16.4-.23.07-.04.14-.07.22-.11.19-.1.38-.18.58-.25.1-.04.2-.08.3-.13.21-.08.4-.13.62-.17.17-.03.33-.07.5-.12q.08-.02.16-.04t.24-.16c.17-.03.34-.05.52-.08.18-.04.26-.09.4-.21.18-.06.32-.06.51-.06Z"/>
        <path class="cls-27" d="M24.52,41.54c-.13.07-.26.12-.4.17v.11c-.06.02-.11.05-.17.07-.07.03-.15.06-.22.09-.04.02-.07.03-.11.05-.17.07-.32.14-.47.25q-.1.01-.19.02c-.21.03-.31.09-.49.2-.07.02-.14.04-.21.06-.06.02-.12.04-.19.06-.02.06-.04.11-.06.17-.25.09-.47.13-.74.11q.03-.08.06-.17t.3-.09c.23-.05.37-.11.55-.26.37-.16.75-.29,1.14-.4.15-.06.3-.12.45-.18q.12-.05.24-.05v-.11c.18-.11.31-.13.51-.11Z"/>
        <path class="cls-94" d="M56.53,31.97c0,.18-.02.34-.06.51q-.06.03-.11.06c0,.07-.01.15-.02.22q-.01.13-.04.23c-.07.04-.15.08-.23.11q-.05.2-.06.4h-.23c0,.06.01.13.02.19,0,.32-.16.59-.36.83q-.15.07-.28.11t-.11.23h-.06v-.34q.08-.03.17-.07c.06-.03.12-.07.17-.1q.04-.14.06-.28s.08-.03.11-.05q.12-.06.14-.18c.01-.12.02-.23.03-.35.08-.02.15-.04.23-.06q0-.08-.01-.16.01-.18.12-.29.12-.06.23-.06c0-.06,0-.11-.01-.17,0-.07,0-.14,0-.22,0-.07,0-.14-.01-.22q.03-.19.17-.3.07-.03.14-.06Z"/>
        <path class="cls-29" d="M34.83,30.49v.11s-.07,0-.11,0q-.07,0-.14.01s-.09,0-.14.01c-.15.03-.19.09-.3.2-.12.05-.23.09-.36.12-.03.02-.07.03-.1.05l-.06.17c-.21.02-.41.04-.63.06v.11q-.17.11-.4.11s-.04.07-.05.11l-.12.23c-.17-.02-.34-.04-.51-.06v-.11l.34-.06c.02-.06.04-.11.06-.17q.14-.06.31-.12c.19-.06.32-.11.49-.22q.12-.01.24,0t.22,0s.03-.07.04-.11c.09-.15.16-.18.32-.24q.19-.08.38-.17c.17-.08.33-.06.51-.05Z"/>
        <path class="cls-45" d="M44.06,28.56v.11c-.06.02-.12.03-.19.05q-.21.05-.38.18c-.08.02-.15.04-.23.05-.19.04-.26.09-.4.23-.13.04-.27.08-.4.11-.04.03-.07.06-.11.09-.14.09-.21.1-.38.11-.25.02-.31.08-.48.26q-.21.01-.4,0,.17-.11.28-.13t.18-.18.26-.17.18,0q.18,0,.34-.02.07-.11.11-.23.11-.05.23-.07.16-.02.28-.1c.07,0,.14-.01.21-.02.36-.04.49-.3.87-.27Z"/>
        <path class="cls-20" d="M14.27,40.17l.23.06c-.13.19-.26.39-.4.57.06-.02.11-.04.17-.06q.18.08.34.17v.34s.06-.05.1-.08c.15-.1.25-.12.43-.13.05,0,.1,0,.15-.01.04,0,.08,0,.12,0-.24.19-.48.36-.79.32q-.06-.02-.12-.04v-.34h-.17v.28c-.08-.02-.15-.04-.23-.06l.06-.23c-.08-.02-.15-.04-.23-.06.03-.22.07-.31.23-.46q.07-.15.11-.28Z"/>
        <path class="cls-47" d="M33.97,32.53c.11,0,.23,0,.34.01v.06h-.4s0,.07-.01.1c-.06.17-.12.2-.27.3-.12.04-.24.08-.36.11-.26.07-.48.16-.72.28l-.4.11c-.06.03-.12.06-.18.1q-.16.07-.3.06s-.06-.03-.09-.04h.11v-.11c.06-.02.12-.03.18-.05.17-.05.34-.11.5-.18v-.17q.08,0,.16,0c.07,0,.14,0,.21,0,.07,0,.13,0,.2,0,.06-.01.11-.02.17-.03q.07-.11.11-.23t.26-.09c.18-.05.31-.19.48-.2Z"/>
        <path class="cls-106" d="M42.8,22.86v.17c-.06,0-.12,0-.19,0-.27.06-.29.16-.44.39q-.19.07-.4.11c-.11.06-.23.11-.34.17l-.17.06s-.01.07-.02.11c-.01.04-.03.08-.04.12-.06.02-.11.03-.17.05-.06.02-.12.04-.17.07q-.08.19-.11.4l-.11.17q-.2,0-.4,0t-.17.06l.11-.23.46.06s0-.08,0-.12c0-.16.01-.3.06-.45.11-.09.21-.13.35-.18q.12-.04.2-.17c.12-.16.29-.17.48-.22l.06-.11c.06,0,.13-.01.19-.02.07-.01.14-.03.21-.04.03-.05.06-.09.09-.14.03-.05.06-.09.09-.14q.21-.04.4-.06l.06-.06Z"/>
        <path class="cls-32" d="M50.55,30.15c-.02.06-.04.11-.06.17-.14.05-.27.08-.41.12-.07.02-.15.04-.22.06-.04,0-.07.02-.11.03-.17.04-.34.09-.51.14-.12.03-.23.06-.35.09-.06.01-.11.03-.17.04q-.16.03-.39.03v.11c-.31.08-.59.13-.91.11v-.06s.09-.02.13-.03c.29-.07.55-.13.82-.27.26-.13.47-.12.76-.1.02-.06.04-.11.06-.17q.1-.04.22-.06s.09-.02.14-.03c.05,0,.09-.02.14-.03.09-.02.19-.04.28-.06.04,0,.08-.02.13-.02.08-.02.16-.04.24-.06q.11-.03.22-.03Z"/>
        <path class="cls-52" d="M32.5,39.03q0,.17-.13.31c-.08.08-.16.15-.25.23-.22.24-.26.45-.31.77-.14.14-.19.13-.38.15-.29.05-.41.16-.59.39-.02.03-.04.05-.05.08,0-.25.12-.34.28-.51.08-.02.15-.04.23-.06.1-.14.17-.27.22-.43.08-.18.18-.21.35-.31.09-.1.17-.2.26-.3.11-.13.23-.23.37-.33Z"/>
        <path class="cls-20" d="M51.17,35.67q0,.17-.13.31c-.05.05-.1.1-.15.15-.06.09-.12.19-.17.28q-.18.32-.4.41c-.06.01-.11.03-.17.04-.17.07-.29.16-.42.28-.15.14-.28.24-.49.28q-.13-.02-.23-.06c.15-.17.31-.25.51-.34h.11v-.11c.16-.16.3-.24.52-.28.21-.05.32-.11.45-.28.02-.04.05-.09.07-.13.13-.21.31-.38.49-.55Z"/>
        <path class="cls-34" d="M27.2,35.5l.11.06c-.15.18-.29.21-.52.26q-.25.05-.45.2c-.16.08-.32.12-.49.16q-.09.03-.19.06s-.03.07-.05.11c-.14.26-.49.36-.75.46-.21.05-.41.06-.63.06q.06-.08.17-.17c.12-.01.23-.03.35-.04.16-.03.23-.13.34-.25.13-.06.26-.12.4-.17l.11-.11q.1-.03.2-.06c.06-.02.13-.04.2-.06.02-.04.04-.08.06-.11.16-.05.32-.1.48-.14.09-.02.18-.05.26-.07.04-.01.08-.02.12-.03q.12-.04.28-.15Z"/>
        <path class="cls-74" d="M26.63,38.75c-.25.24-.53.34-.85.46q-.37.14-.72.32c-.28.16-.56.25-.88.25v.11c-.17.07-.27.11-.46.11.27-.33.64-.46,1.06-.5.08,0,.17-.01.25-.01v-.17c.21-.09.4-.17.62-.23q.18-.04.3-.17c.24-.12.42-.19.68-.17Z"/>
        <path class="cls-39" d="M48.9,23.77q.33,0,.46.06v.11s.1,0,.15-.01c.28.02.47.14.7.3.16.01.25.01.4-.06q.04.11.06.23c-.13.13-.18.14-.35.17-.05,0-.09.02-.14.03-.05,0-.1.02-.15.03-.05.01-.1.02-.15.03-.12.03-.24.05-.36.08v-.11s.07-.02.11-.03c.05-.01.09-.03.14-.04.05-.01.09-.03.14-.04.04-.02.08-.04.12-.05l.06-.17c-.25-.1-.5-.2-.76-.29-.04-.02-.08-.03-.13-.05-.1-.04-.21-.08-.31-.12v-.06Z"/>
        <path class="cls-64" d="M27.27,40.22q.07,0,.14,0h.14q.05,0,.11,0v.06s-.05,0-.1.02c-.3.06-.5.14-.75.32-.09.04-.19.08-.28.11-.07.04-.15.09-.22.13-.29.16-.59.26-.9.37-.16.06-.3.12-.45.2-.2.1-.22.1-.42.04.36-.18.71-.35,1.08-.51.07-.03.13-.06.2-.09.14-.06.27-.11.41-.16.32-.12.74-.47,1.05-.5Z"/>
        <path class="cls-9" d="M51.23,45.87l.23.06q-.55.56-.84.7c-.25.13-.43.31-.64.49l-.06-.17s.05-.02.1-.04q.14-.07.27-.22c.13-.13.21-.18.37-.26l.09-.09q.09-.09.2-.14c.15-.09.2-.2.28-.35ZM49.81,47.12l.11.06c-.14.11-.28.21-.42.32-.04.03-.08.06-.12.09q-.06.04-.12.09s-.07.05-.11.08c-.03.02-.06.03-.1.05-.06-.02-.11-.04-.17-.06.05-.03.1-.06.15-.1.13-.09.25-.18.37-.28q.23-.19.39-.25Z"/>
        <path class="cls-93" d="M58.81,28.21v.11s-.07.01-.1.02c-.15.03-.31.06-.46.09-.05,0-.1.02-.16.03-.16.03-.32.06-.48.09-.05.01-.11.02-.16.03-.05,0-.1.02-.16.03q-.07.01-.14.03t-.16.08c-.11,0-.21,0-.32,0-.06,0-.12,0-.17,0-.04,0-.09,0-.14,0q-.04-.11-.06-.23s.08-.08.11-.11h.23v.17h-.17v.11c.07-.02.13-.03.2-.05.42-.09.85-.19,1.27-.27.12-.03.24-.06.37-.09.18-.04.32-.06.49-.05Z"/>
        <path class="cls-85" d="M18.32,41.71s.01.07.02.11c.01.04.03.08.04.12.06.02.11.04.17.06v.23q.2-.03.4-.06c.02-.06.04-.11.06-.17q.16-.08.37-.15t.2-.08q.17-.06.28-.06v.11c-.15.08-.22.11-.4.11v.11s-.07.02-.11.03q-.07.02-.14.04-.07.02-.14.04-.06.03-.12.05l-.06.17q-.33.06-.46,0c-.08-.23-.13-.44-.11-.68Z"/>
        <path class="cls-39" d="M38.02,26.62h.11q.02.14,0,.34t-.2.22-.21.36c.02.11.04.22.07.33-.13.13-.22.14-.4.17-.02.15-.04.3-.06.46h-.06c-.01-.17-.02-.34,0-.51.07-.06.15-.12.23-.17.01-.11.03-.22.03-.34.04-.21.16-.31.31-.46.04-.02.08-.04.11-.06q.04-.17.06-.34Z"/>
        <path class="cls-77" d="M23.27,46.09q.07,0,.14,0s.09,0,.14,0c.04,0,.07,0,.11,0-.02.04-.04.08-.06.11-.15.04-.3.07-.45.09-.05,0-.1.02-.15.02-.82.11-1.65.07-2.48.06v-.06s.06,0,.09,0c.63-.02,1.26-.06,1.89-.11.06,0,.11,0,.17-.01.05,0,.11,0,.16-.01q.07,0,.14-.01c.13-.02.14-.07.28-.08Z"/>
        <path class="cls-12" d="M21.05,38.35l.11.06c-.29.18-.6.31-.92.44-.26.11-.5.23-.74.36-.04.02-.08.04-.12.06-.04.02-.07.04-.11.06-.13.05-.2.02-.33-.02.09-.06.19-.11.28-.17.06-.04.13-.08.19-.12.19-.11.39-.16.61-.22.07-.04.13-.08.2-.12.22-.13.41-.15.66-.17v-.11c.06-.02.11-.04.17-.06Z"/>
        <path class="cls-109" d="M41.09,29.75v.11c-.21.16-.39.2-.65.22-.32.04-.44.1-.65.35q-.2.04-.4.06t-.28.11c.05-.08.11-.15.16-.23q.05-.06.09-.13s.06-.07.09-.1h.11v.17c.16-.06.28-.11.41-.22.18-.14.34-.19.56-.25.07-.02.14-.04.21-.06q.18-.04.35-.04Z"/>
        <path class="cls-77" d="M49.81,32.31v.11s-.09,0-.13,0c-.36.02-.63.07-.95.22-.33.16-.69.2-1.04.25q-.16.02-.32.15t-.34,0v-.06q.08-.02.17-.05c.15-.04.3-.1.44-.16.28-.11.57-.09.87-.08.02-.06.04-.11.06-.17.39-.19.82-.24,1.25-.23Z"/>
        <path class="cls-49" d="M35.06,32.88h.06c0,.12,0,.24.01.36,0,.07,0,.13,0,.2q-.02.18-.1.29s-.06.04-.08.06c.04.11.08.23.11.34-.11.02-.23.04-.34.06v.51q-.08.03-.17.06v-.57c.09-.04.19-.08.28-.11-.04-.11-.08-.23-.11-.34.06-.02.11-.04.17-.06.09-.19.08-.39.1-.6q.02-.14.07-.2Z"/>
        <path class="cls-94" d="M57.9,30.32h.22c-.13.13-.17.14-.34.16-.05,0-.09.01-.14.02-.05,0-.09.01-.14.02-.09.01-.19.03-.28.04-.04,0-.08.01-.13.02q-.12.02-.28.08s.01.09.02.13c0,.06.01.11.02.17,0,.06.01.11.02.17,0,.05,0,.1,0,.15l-.11.11q-.04.14-.06.29c0,.05-.02.1-.03.16,0,.04-.01.08-.02.12h-.06v-.68l.17-.06-.06-.17c0-.15,0-.3,0-.46.17-.09.32-.14.52-.17q.63-.11.69-.11Z"/>
        <path class="cls-86" d="M43.03,27.13q-.17.11-.36.13c-.26.05-.36.16-.55.32-.13.04-.27.08-.4.11q-.07.06-.15.13s-.09.07-.14.1q-.19-.04-.34-.11s.04-.08.06-.11l.19-.02c.07-.01.14-.02.21-.04.03-.04.05-.08.08-.11q.09-.11.21-.13c.09,0,.18-.01.28-.02.17-.03.23-.13.35-.25.19-.05.38-.09.57,0Z"/>
        <path class="cls-48" d="M60.17,28.04v.06c-.09.02-.19.04-.28.06v.11s.08.04.11.06c-.02.08-.04.15-.06.23-.11,0-.23,0-.34,0l-.06-.06v-.34q-.34.03-.68.06s.04-.08.06-.11c.14-.02.28-.03.42-.03q.79-.03.83-.02Z"/>
        <path class="cls-3" d="M26.46,31.29l-.06.11h-.57c-.02.06-.04.11-.06.17-.09.02-.19.04-.28.06v-.11c-.31.03-.56.09-.85.2-.14.03-.21.02-.35-.03.51-.47,1.52-.42,2.16-.4Z"/>
        <path class="cls-27" d="M48.9,37.44l.11.06c-.19.21-.39.36-.63.51-.04.03-.08.06-.12.1-.11.08-.2.1-.33.13-.1.05-.19.11-.28.17v-.17h.11s.02-.05.03-.1c.12-.19.31-.27.51-.36q.31-.16.6-.33Z"/>
        <path class="cls-58" d="M38.76,30.61l.11.06q-.11.27-.23.4c-.19.07-.37.1-.57.11v.17h.4c0,.09-.01.19-.02.28,0,.05,0,.1-.01.16q-.02.14-.14.25t-.06.28h-.06q0-.16,0-.34l.11-.11c.02-.13.04-.27.06-.4h-.34c-.04-.11-.08-.23-.11-.34.05,0,.1-.02.15-.03.06-.01.12-.03.19-.04.06-.01.12-.03.19-.04q.17-.05.24-.21.02-.07.04-.14l.06-.06Z"/>
        <path class="cls-105" d="M30.16,41.2l.23.06c-.04.15-.08.3-.11.46h-.17v.11l-.34.03q-.13.02-.29.14c.08-.25.18-.37.4-.51h.23c.02-.09.04-.19.06-.28Z"/>
        <path class="cls-27" d="M31.36,33.68q.12.02.23.06c-.18.11-.36.21-.56.29-.33.14-.67.29-.99.46-.12.05-.21.07-.34.08q-.21.01-.33.08.03-.08.06-.17t.31-.08c.31-.07.56-.17.83-.32q.11-.06.23-.06v-.11q.05-.02.11-.04s.09-.03.14-.05c.05-.02.09-.03.14-.05q.12-.03.17-.1Z"/>
        <path class="cls-88" d="M30.33,43.31h.46c-.23.21-.48.32-.76.44q-.15.07-.29.19c-.21.16-.45.21-.71.28.19-.22.34-.31.62-.4.18-.08.33-.2.48-.32q.09-.07.21-.07v-.11Z"/>
        <path class="cls-20" d="M17.41,37.33h.11c-.06.11-.11.23-.17.34-.02.04-.04.08-.06.11-.02.04-.04.08-.06.11-.05.11-.08.22-.11.34.04.02.08.04.11.06v.17c-.09.02-.19.04-.28.06l-.06.17-.11.06q-.03.07-.05.14s-.04.09-.06.14l-.17.06q.09-.32.22-.42c.16-.13.18-.27.24-.46.1-.31.26-.61.45-.89Z"/>
        <path class="cls-32" d="M53.4,35.85q.12.02.23.06v.11h-.28c-.02.17-.04.34-.06.51q-.09.02-.19.04c-.22.08-.26.11-.38.3-.17.11-.24.11-.46.11l-.06.23-.23-.06.17-.06v-.17q.05,0,.11-.02s.09-.02.14-.03c.05,0,.09-.02.14-.02q.13-.04.19-.15t.05-.12l.11-.17s.09,0,.14-.01q.15-.03.2-.15c.03-.08.06-.17.08-.25q.03-.1.09-.16Z"/>
        <path class="cls-106" d="M24.01,31.86v.11s-.08.04-.12.06c-.05.03-.1.05-.16.08q-.08.04-.16.08t-.19.19-.26.04s-.09,0-.14.01q-.05,0-.11,0-.07.17-.06.34h-.17v-.11h-.28c.12-.24.45-.31.69-.4.2-.08.38-.17.57-.28q.26-.11.4-.11Z"/>
        <path class="cls-22" d="M50.04,26.39v.11c-.11.05-.21.09-.32.14q-.09.04-.18.08c-.3.12-.61.21-.92.3.02-.11.04-.23.06-.34.16-.04.3-.06.47-.05.25-.01.43-.09.66-.19q.12-.05.24-.05Z"/>
        <path class="cls-67" d="M56.01,26.68h.17c0,.06-.01.12-.02.18.02.27.11.32.3.5,0,.2-.08.34-.17.51.08.02.15.04.23.06v.23h-.11l-.06.23-.06-.28h.11v-.17c-.08-.02-.15-.04-.23-.06v-.28h.17v-.23h-.17c-.12-.11-.17-.19-.18-.34,0-.11,0-.23.01-.34Z"/>
        <path class="cls-31" d="M25.43,39.26l.11.06c-.24.37-.49.42-.91.51-.11.03-.23.06-.34.1-.16.05-.28.07-.46.07l.11-.11h.23v-.11s.08-.02.13-.03c.37-.1.68-.21,1-.41.04-.02.08-.05.13-.07Z"/>
        <path class="cls-106" d="M31.58,36.87q-.11.11-.22.13c-.11,0-.23,0-.34-.01-.02.09-.04.19-.06.28-.06,0-.12,0-.18,0-.18,0-.33.02-.5.06v.11h-.46l.06-.11h.34v-.11s.1-.03.15-.05q.2-.07.39-.15.58-.24.83-.14Z"/>
        <path class="cls-47" d="M49.28,24.73q.07,0,.14,0h.11v.12s-.1.02-.15.04c-.06.02-.13.03-.19.05-.06.02-.13.03-.19.05q-.15.03-.21.1c-.09.02-.18.03-.26.05-.26.05-.47.12-.7.23v-.17c.27-.11.54-.23.82-.29.25-.06.38-.18.64-.17Z"/>
        <path class="cls-103" d="M24.71,32.39q.05.02.1.04c-.05.02-.1.05-.15.07q-.19.09-.33.22t-.29.14s-.09.02-.13.03c-.02.04-.03.07-.05.11-.08.15-.14.17-.28.24-.04.02-.08.04-.12.05q-.06.03-.12.05c-.08.04-.15.08-.23.11.16-.23.24-.29.51-.34.02-.03.03-.07.05-.1.14-.28.46-.42.75-.53q.17-.11.3-.09Z"/>
        <path class="cls-86" d="M19.46,36.7l.11.06c-.07.42-.2.69-.46,1.03.04-.02.09-.03.13-.05.16-.06.33-.12.5-.17-.09.18-.27.26-.46.34h-.23l-.11-.23s.07-.04.11-.07c.14-.12.18-.22.23-.39h.11c0-.07,0-.15,0-.22,0-.08,0-.15,0-.23l.06-.06Z"/>
        <path class="cls-77" d="M26.63,31.46l.11.11c-.14.14-.28.17-.46.23-.2.07-.38.15-.57.23-.07.03-.13.06-.2.09q-.18.08-.34.19t-.13.07l-.11-.06c.53-.37,1.06-.67,1.71-.74v-.11Z"/>
        <path class="cls-96" d="M33.18,38.01v.17c-.09.04-.19.08-.28.11v-.17s-.1.08-.15.11c-.22.13-.34.13-.59.11-.02.06-.04.11-.06.17-.25.13-.53.17-.8.23.13-.19.16-.2.37-.26.17-.05.28-.09.43-.2q.1-.01.2-.02c.21-.03.28-.07.43-.2.17-.06.28-.06.46-.06Z"/>
        <path class="cls-47" d="M43.54,32.31c-.15.15-.3.18-.51.24q-.13.04-.23.16c-.17.03-.35.05-.52.08-.17.04-.22.08-.33.21q-.18.01-.34,0s.06-.03.1-.04q.14-.07.25-.19c.22-.15.43-.16.69-.19.18-.04.25-.09.39-.2.18-.06.32-.06.51-.06Z"/>
        <path class="cls-12" d="M38.99,34.02c-.12.04-.23.07-.35.11-.07.02-.13.04-.2.06-.14.04-.29.08-.43.12-.05.02-.1.03-.16.05-.02.04-.04.08-.06.11-.09,0-.19,0-.28,0q-.06-.06-.06-.26c0-.06,0-.13,0-.2h.17v.34s.06-.05.09-.08c.19-.12.38-.17.6-.22.04-.01.08-.02.12-.03q.37-.09.56-.01Z"/>
        <path class="cls-86" d="M16.1,41.48c.08.17.07.34.08.53.01.27.04.47.15.72.02.12.05.24.06.36,0,.06.02.12.03.18,0,.05.01.09.02.14h-.11c-.27-.47-.24-1.07-.23-1.59h-.11q.05-.28.11-.34Z"/>
        <path class="cls-68" d="M18.2,40.17q.11.11.13.23s0,.09,0,.13c0,.04,0,.09,0,.13q0,.13-.04.25t.03.22c0,.1,0,.19,0,.29,0,.05,0,.1,0,.16q0,.06,0,.12h-.11c-.1-.21-.12-.36-.1-.59q0-.08.02-.17c0-.06.01-.11.02-.17,0-.06.01-.12.02-.18.01-.14.03-.29.05-.43Z"/>
        <path class="cls-19" d="M65.35,28.56h.06c-.06.54-.29,1-.51,1.48q-.03-.11-.06-.23c.06-.1.11-.19.17-.28.02-.08.04-.15.06-.23.04-.2.12-.34.23-.51q.04-.12.06-.23ZM64.73,30.04q.06.03.11.06l-.06.34h-.06v-.4ZM64.61,30.44s.08.04.11.06c-.09.08-.19.15-.28.23q.11-.22.17-.28Z"/>
        <path class="cls-94" d="M58.58,22.12q.12.17.17.34s.08.04.11.06v.11q-.11-.01-.23-.06t-.11-.28l-.23.11c-.02-.06-.04-.11-.06-.17l-.11.06s-.04-.08-.06-.11q-.37.03-.74.06s.04-.08.06-.11c.37-.09.83-.1,1.2,0Z"/>
        <path class="cls-19" d="M47.01,49.09c.06,0,.12.02.18.02-.06.04-.11.08-.17.11-.16.11-.31.23-.47.34-.14.1-.29.19-.44.28-.08.06-.15.11-.23.17.02-.03.03-.06.05-.1.07-.14.12-.27.18-.42q.07.01.15.02t.28-.11s.05-.07.08-.11q.15-.2.4-.22Z"/>
        <path class="cls-20" d="M44.06,28.56v.11c-.06.02-.12.03-.19.05q-.21.05-.38.18c-.12.03-.23.06-.35.08q-.12.03-.22.15t-.23.03c-.14.01-.22.02-.34.08q.03-.11.11-.23c.12-.04.23-.07.35-.09q.1-.01.16-.08c.07,0,.14-.01.21-.02.36-.04.49-.3.87-.27Z"/>
        <path class="cls-38" d="M51.97,25.82c-.12.07-.22.11-.35.14-.2.04-.36.12-.54.21-.07.03-.13.06-.2.09q-.15.06-.21.14c-.11,0-.21,0-.32,0-.06,0-.12,0-.17,0-.04,0-.09,0-.14,0v-.06s.07,0,.1,0c.27-.02.43-.04.64-.22h.23v-.11c.28-.18.64-.18.97-.17Z"/>
        <path class="cls-44" d="M22.7,40.51s-.08.04-.12.06c-.05.03-.1.05-.16.08-.05.03-.1.05-.16.08q-.14.07-.25.19t-.27.05c-.23.04-.38.11-.58.23q-.12-.02-.23-.06c.23-.12.45-.23.7-.31.25-.08.47-.19.7-.32.15-.06.21-.05.36,0Z"/>
        <path class="cls-95" d="M35.74,30.04c-.02.13-.05.22-.12.33-.16.11-.31.08-.51.07-.1.02-.19.03-.28.06.22-.25.57-.46.91-.46Z"/>
        <path class="cls-36" d="M31.7,36.76c.06.02.11.04.17.06-.03.02-.07.04-.1.06q-.29.16-.57.32c-.32.18-.56.2-.93.19.2-.13.35-.19.59-.15l.1.03c.02-.09.04-.19.06-.28.07,0,.14-.01.21-.02.21-.02.31-.08.47-.21Z"/>
        <path class="cls-10" d="M31.81,31.75l.11.06s-.06.04-.09.05c-.04.02-.08.05-.12.07q-.06.04-.12.07t-.2.21-.22.14-.15,0c-.2,0-.34.03-.52.14q.16-.24.28-.34c.17-.03.34-.02.51,0,.01-.04.03-.07.04-.11.11-.19.27-.22.47-.29Z"/>
        <path class="cls-96" d="M27.03,43.42c-.02.06-.04.11-.06.17q-.12.05-.26.09t-.16.04s-.1.03-.15.04c-.08.02-.15.05-.23.07q-.17.04-.28-.01.06-.11.17-.16s.09-.03.14-.04c.14-.04.26-.08.39-.15.15-.07.28-.06.45-.05Z"/>
        <path class="cls-40" d="M27.94,40.23c-.17.12-.32.18-.52.23-.14.03-.22.05-.33.14-.19.14-.41.16-.63.2.12-.18.14-.19.33-.26.14-.05.25-.09.38-.17.24-.14.5-.23.77-.14Z"/>
        <path class="cls-79" d="M41.02,27.69s.08,0,.13.01c-.13.25-.5.33-.75.42q-.1.03-.28.03v.11h-.28c.02-.11.04-.23.06-.34h.11c.02.06.04.11.06.17.03-.02.06-.04.09-.05q.14-.06.31-.08t.29-.15.27-.12Z"/>
        <path class="cls-61" d="M60.34,28.21q.44.04.6.21c.16.29.15.5.08.82h-.17c.01-.06.02-.12.03-.17.02-.22,0-.4-.03-.62q-.06.02-.13.04c-.18.02-.24,0-.38-.09v-.17Z"/>
        <path class="cls-93" d="M48.67,21.61v.28c.06.02.11.04.17.06-.04.04-.08.08-.11.11h-.23v-.28h.11v-.11c-.13.03-.27.07-.4.11-.02.04-.04.08-.06.11h-.23c.02-.08.04-.15.06-.23.23-.08.45-.06.68-.06Z"/>
        <path class="cls-15" d="M53.22,33.17h.06c0,.28-.05.42-.25.62-.13.13-.2.18-.38.23.08-.23.19-.39.34-.57.04-.06.08-.11.11-.17h.11v-.11Z"/>
        <path class="cls-110" d="M22.99,33.45l.11.06c-.17.24-.29.33-.57.4l-.17.06q-.03.07-.06.14t-.06.14l-.17.06c.07-.2.15-.36.28-.51h.11v-.11h.4v-.11h.11v-.11Z"/>
        <path class="cls-24" d="M25.55,36.3v.17c-.45.25-.79.4-1.31.4q.06-.08.17-.17c.11-.01.22-.03.33-.04.3-.05.56-.2.81-.36Z"/>
        <path class="cls-109" d="M35.51,32.14c.02.13.04.26.06.4-.08.02-.15.04-.23.06.04-.02.08-.04.11-.06-.02-.13-.04-.26-.06-.4q-.07.05-.14.11c-.22.15-.45.16-.72.17.02-.06.04-.11.06-.17q.1-.04.22-.06.48-.1.69-.05Z"/>
        <path class="cls-87" d="M61.37,35.67h.11c-.16.32-.35.63-.57.91.03-.29.18-.5.34-.74.04-.06.08-.11.11-.17ZM60.8,36.59l.11.06h-.17l.06-.06ZM60.57,36.7l.17.06q-.17.14-.34.28.11-.28.17-.34Z"/>
        <path class="cls-108" d="M43.71,24.4s-.06.03-.09.04q-.26.12-.48.31c-.15.15-.31.17-.51.22l.11-.17h.11v-.23c.06-.02.12-.03.18-.05.14-.04.27-.08.41-.13q.15-.05.27.01Z"/>
        <path class="cls-61" d="M44.13,22.34c.07,0,.14,0,.21,0v.06q-.05.01-.11.02s-.09.02-.14.03c-.05,0-.09.02-.14.03q-.13.03-.24.15c-.11.02-.22.04-.34.06-.22.03-.33.05-.52.17q.04-.11.11-.23t.3-.09c.16-.04.32-.07.47-.14.14-.05.23-.06.38-.06Z"/>
        <path class="cls-33" d="M33.92,35.79c.06.02.11.04.17.06-.03.02-.06.04-.1.06-.04.03-.08.05-.13.08-.04.03-.08.05-.12.08q-.12.07-.22.19t-.25.06s-.09.02-.14.03q-.12.02-.3.02l.11-.11h.17v-.11s.07-.02.1-.03c.21-.07.39-.13.57-.24.04-.02.08-.05.12-.07Z"/>
        <path class="cls-39" d="M27.09,34.02q.08,0,.17,0v.06c-.05.01-.1.03-.16.04-.19.07-.27.15-.41.3-.2.07-.36.06-.57.06.09-.17.22-.19.4-.26q.5-.2.57-.2Z"/>
        <path class="cls-32" d="M22.7,44.61h1.2v.06h-1.14c-.02.06-.04.11-.06.17q-.34.03-.68.06v-.11c.21-.04.41-.06.63-.06l.06-.11Z"/>
        <path class="cls-23" d="M34.55,40l-.23.06c-.01.06-.02.12-.04.17-.07.25-.22.45-.42.62h-.17l-.11.23-.06-.23q.08-.03.15-.06c.22-.12.33-.24.47-.45q.04-.18.06-.34c.14-.07.19-.04.34,0Z"/>
        <path class="cls-37" d="M23.73,40.06q-.12.14-.28.28t-.4,0q-.19.05-.34.11c.29-.31.61-.43,1.03-.4Z"/>
        <path class="cls-39" d="M20.14,34.31q-.06.17-.15.22s-.08.03-.12.05c-.24.11-.36.26-.51.48-.09.12-.19.19-.31.28l-.11-.06c.05-.04.1-.08.16-.12.13-.11.2-.18.29-.33.16-.22.46-.52.75-.52Z"/>
        <path class="cls-99" d="M33.97,32.53c.11,0,.23,0,.34.01v.06h-.4s0,.07-.01.11q-.05.12-.16.19c-.21.06-.41.08-.62.1.19-.22.35-.27.63-.34q.11-.11.22-.13Z"/>
        <path class="cls-73" d="M22.36,32.71q-.06.11-.17.23t-.16.02c-.23.04-.3.15-.46.32q-.15.11-.28.17l-.11-.06s.07-.04.1-.06c.21-.13.39-.26.57-.43.16-.16.31-.29.53-.19Z"/>
        <path class="cls-103" d="M37.57,36.18q.08,0,.17,0c-.17.15-.32.21-.54.26q-.39.09-.65.37,0-.13.06-.28c.24-.2.43-.25.74-.28q.06-.06.23-.06Z"/>
        <path class="cls-31" d="M52.14,29.81l-.06.11c-.13.02-.27.04-.4.06q-.07.02-.14.03c-.2.03-.4.03-.6.02.17-.17.37-.17.6-.21q.07-.01.14-.02.33-.06.46,0Z"/>
        <path class="cls-35" d="M43.83,26.66c.11,0,.23,0,.34.02v.11q-.11.02-.21.04c-.18.04-.23.06-.36.2q-.11.1-.23.11c-.11-.01-.23-.04-.34-.06.02-.04.04-.08.06-.11.06,0,.12.01.19.02.07,0,.14-.01.21-.02.04-.05.07-.09.11-.14q.12-.14.23-.16Z"/>
        <path class="cls-103" d="M16.49,39.09q-.06.17-.25.27t-.38.07v.11q-.28.08-.57.17.06-.17.16-.23s.08-.03.13-.05c.05-.02.09-.04.14-.06.05-.02.1-.04.15-.06.09-.04.19-.09.28-.13q.22-.1.35-.1Z"/>
        <path class="cls-98" d="M40.7,24.06c.06.02.11.04.17.06-.06.22-.1.38-.23.57q-.2,0-.4,0l-.17.06c.04-.08.08-.15.11-.23.15.02.3.04.46.06.02-.17.04-.34.06-.51Z"/>
        <path class="cls-32" d="M16.21,40.69l.11.23s-.08.08-.11.11q.02.2.06.4-.06.03-.11.06v-.17h-.11c.03-.18.06-.34.11-.51-.13.04-.26.08-.4.11q.2-.23.46-.23Z"/>
        <path class="cls-94" d="M22.7,36.19c-.14.08-.27.15-.41.22-.04.02-.08.04-.12.06-.2.11-.38.2-.61.22.12-.19.19-.22.39-.32.05-.02.1-.05.15-.07.05-.02.09-.04.14-.07q.06-.03.12-.07c.14-.06.2-.04.34.01Z"/>
        <path class="cls-81" d="M49.81,32.31v.11s-.09,0-.14,0q-.4.02-.78.14-.17.08-.31.06s-.06-.03-.09-.04c.36-.28.87-.3,1.31-.28Z"/>
        <path class="cls-23" d="M31.93,39.72v.17s-.04.04-.06.06c0,.06-.02.13-.02.2q-.03.2-.15.32c-.06-.02-.11-.04-.17-.06q.13-.48.3-.63s.07-.04.1-.05Z"/>
        <path class="cls-45" d="M28.23,35.1l.11.06c-.15.2-.34.22-.57.28l-.06.06c-.13,0-.27,0-.4,0,.15-.18.29-.21.52-.26q.21-.03.39-.14Z"/>
        <path class="cls-99" d="M46.56,27.47l.11.06q-.06.09-.17.17c-.15.02-.3,0-.46,0-.02.06-.04.11-.06.17q-.1.01-.19.02t-.32.09c.02-.06.04-.11.06-.17.13-.04.27-.08.4-.11.02-.04.04-.08.06-.11h.57v-.11Z"/>
        <path class="cls-75" d="M55.16,25.08c.09.06.19.11.28.17-.03.2-.09.38-.17.57-.11-.04-.23-.08-.34-.11.02-.06.04-.11.06-.17q.07,0,.14-.02t.26-.21c-.08-.02-.15-.04-.23-.06v-.17Z"/>
        <path class="cls-32" d="M17.97,36.47q.04.1.06.23t-.16.2c-.13.14-.22.26-.3.43-.07-.16-.06-.23,0-.4.11-.18.23-.31.39-.46Z"/>
        <path class="cls-60" d="M39.96,24.74l.11.06q-.24.32-.48.42c-.26.12-.33.25-.48.49,0-.21.05-.29.17-.46q.14-.11.29-.21t.4-.3Z"/>
        <path class="cls-17" d="M57.04,40.74c.06.02.11.04.17.06-.28.28-.56.56-.85.85l-.06-.17s.06-.05.09-.08c.24-.21.45-.41.65-.67Z"/>
        <path class="cls-47" d="M29.36,34.65v.11c-.11.06-.21.11-.32.17-.06.03-.12.06-.18.1-.19.08-.32.09-.52.07.03-.01.07-.03.1-.04q.13-.07.23-.19c.2-.17.43-.23.7-.23Z"/>
        <path class="cls-58" d="M30.28,41.2l.11.06c-.04.15-.08.3-.11.46h-.17v.11l-.34.03q-.13.02-.29.14.04-.11.11-.23t.34-.11s.08-.04.11-.06c.06.02.11.04.17.06,0-.06,0-.13,0-.2q0-.2.06-.26Z"/>
        <path class="cls-45" d="M53.34,36.02c.17.02.34.04.51.06-.18.2-.29.32-.57.34.02-.13.04-.26.06-.4Z"/>
        <path class="cls-94" d="M60.4,29.35h.11v.34c.06-.02.11-.04.17-.06.02-.09.04-.19.06-.28h.06c0,.11,0,.23,0,.34q-.06.06-.16.06c-.12,0-.23,0-.35,0q0-.14,0-.28l.11-.11Z"/>
        <path class="cls-81" d="M17.8,45.07l.11.17c.11.06.23.12.34.17v.11s.08,0,.13-.01c.2.02.26.09.38.24-.09-.02-.19-.04-.28-.06v-.11s-.08.01-.12.02c-.23-.02-.41-.13-.57-.3v-.23Z"/>
        <path class="cls-59" d="M25.89,43.99c-.09.05-.18.09-.27.14-.05.03-.1.05-.15.08-.23.11-.46.14-.72.18.02-.06.04-.11.06-.17q.15-.05.33-.09t.48-.15q.1-.05.27,0Z"/>
        <path class="cls-101" d="M54.88,42.91q0,.17-.07.25s-.06.06-.09.08q-.05.05-.1.09s-.07.06-.11.09c-.04.03-.07.06-.11.1-.09.08-.18.16-.26.23l-.11-.06c.23-.28.43-.5.74-.68l.11-.11Z"/>
        <path class="cls-69" d="M22.64,37.72c-.36.22-.66.38-1.08.4.22-.19.48-.29.74-.4.14-.07.19-.04.34,0Z"/>
        <path class="cls-54" d="M24.18,36.93v.17c-.15.08-.29.06-.46.06-.02.06-.04.11-.06.17q-.11.04-.23.07s-.08.02-.13.03c-.03,0-.06.01-.1.02.14-.24.33-.3.58-.38.04-.01.07-.03.11-.04.09-.03.18-.06.28-.09Z"/>
        <path class="cls-97" d="M50.09,24.29l.23.06c-.02.08-.04.15-.06.23-.24.06-.49.11-.74.17v-.11s.07-.02.11-.03c.05-.01.09-.03.14-.04q.07-.02.14-.04s.08-.04.12-.05c.02-.06.04-.11.06-.17Z"/>
        <path class="cls-65" d="M45.25,33.62c-.21.12-.39.14-.63.15q-.05,0-.11.02s-.04.08-.06.11h-.28q.29-.25.51-.28c.06-.01.11-.02.17-.04.16-.02.25-.02.4.04Z"/>
        <path class="cls-29" d="M38.13,32.31l.06.23c-.06.02-.11.04-.17.06,0,.04,0,.08,0,.12,0,.05,0,.1,0,.16,0,.05,0,.1,0,.16q-.01.14-.13.25c-.05-.23-.09-.43,0-.65.07-.11.14-.22.23-.32Z"/>
        <path class="cls-81" d="M55.66,22.69q.07,0,.14,0t.11,0v.11c-.15.08-.29.08-.46.09-.06,0-.12,0-.19.01-.05,0-.1,0-.15.01.16-.24.29-.24.55-.23Z"/>
        <path class="cls-94" d="M57.11,22.23q.11,0,.22,0c-.14.14-.27.17-.46.23l-.11.11q-.14.01-.29,0t-.16,0s-.08,0-.12,0v-.06h.51v-.17c.18-.12.21-.13.41-.12Z"/>
        <path class="cls-3" d="M25.93,45.28q.07,0,.13.01v.11h.28s-.08.08-.11.11c-.16,0-.3-.03-.46-.06q-.06.08-.11.17t-.28.06q.06-.11.23-.17l.08-.12q.09-.11.25-.12Z"/>
        <path class="cls-20" d="M46.68,31.23l.11.06c-.34.23-.62.27-1.03.28.14-.17.25-.2.46-.23.16-.03.3-.06.46-.11Z"/>
        <path class="cls-48" d="M39.67,29.98c-.02.09-.04.19-.06.28.09-.08.19-.15.28-.23.04.02.08.04.11.06q-.1.11-.23.23h-.23v-.17q-.17.14-.34.28c.04-.27.17-.46.46-.46Z"/>
        <path class="cls-28" d="M51.69,29.81c-.1.1-.26.1-.4.12-.06.01-.13.02-.19.03-.05,0-.1.02-.15.02v.11c-.13.02-.26.04-.4.06l.17-.06c.02-.06.04-.11.06-.17.29-.12.61-.22.91-.11Z"/>
        <path class="cls-19" d="M30.62,56.97c.06.02.11.04.17.06-.11.14-.16.17-.33.2-.06,0-.12,0-.18,0q-.26,0-.45.14l-.17-.06c.1-.13.15-.17.32-.2.05,0,.11,0,.17,0,.22,0,.3-.01.48-.14Z"/>
        <path class="cls-19" d="M36.25,55.21c-.23.18-.44.2-.72.21q-.15,0-.3.13c.02-.08.04-.15.06-.23.14-.03.28-.06.42-.09.04,0,.08-.02.12-.03q.3-.06.43,0Z"/>
        <path class="cls-101" d="M48.55,47.97c.06.02.11.04.17.06-.08.06-.15.11-.23.17l.06-.23ZM48.5,48.26c-.19.13-.38.26-.57.4l-.11-.06q.08-.09.17-.17h.11v-.11q.21-.12.4-.06Z"/>
        <path class="cls-103" d="M20.99,44.5q.09.01.19.03t.38.03c.02.06.04.11.06.17h-.23q-.13.08-.23.17c-.13-.13-.14-.22-.17-.4Z"/>
        <path class="cls-96" d="M28.85,42.17l.23.06h-.11c.02.06.04.11.06.17-.06.02-.13.03-.2.05q-.1.03-.2.07c-.02.06-.04.11-.06.17h-.11c.02-.16.05-.22.17-.33q.12-.07.23-.07v-.11Z"/>
        <path class="cls-22" d="M36.48,36.81c.02.06.04.11.06.17t-.09.06-.08.27-.12.31s-.08.06-.11.09c0-.4.05-.63.34-.91Z"/>
        <path class="cls-7" d="M56.93,30.55l-.23.06c0,.07.02.14.03.21.02.16.03.31.03.47q-.12-.09-.23-.23c-.02-.16,0-.3.06-.46.14-.11.18-.14.34-.06Z"/>
        <path class="cls-111" d="M54.7,24.63h.51v.11h-.17c.02.11.04.23.06.34-.04-.02-.08-.04-.11-.06v-.17h-.23l-.06-.23Z"/>
        <path class="cls-39" d="M32.78,36.41v.17c-.27.1-.51.14-.8.17v-.11c.05-.01.11-.02.16-.04.07-.02.14-.03.21-.05.07-.02.14-.03.21-.05q.16-.03.22-.1Z"/>
        <path class="cls-34" d="M35.57,31.86c.04.06.08.11.11.17-.02.04-.04.08-.06.11.02.1.03.19.06.28q-.06.03-.11.06c-.01-.05-.03-.11-.04-.16q-.05-.18-.19-.26s-.07-.02-.11-.04l.34-.17Z"/>
        <path class="cls-86" d="M15.7,43.7q-.06.17-.17.23s-.09.03-.14.04c-.04.01-.09.03-.13.05-.14.03-.22.01-.36-.03.24-.16.5-.28.8-.28Z"/>
        <path class="cls-102" d="M23.61,40.12l.11.06c-.1.16-.17.27-.36.33-.13.03-.25.05-.38.07.04-.08.08-.15.11-.23q.17.03.34.06s.04-.07.05-.11q.06-.12.12-.17Z"/>
        <path class="cls-3" d="M27.77,43.08v.06q-.09.02-.17.04c-.26.07-.43.23-.62.42.05-.2.08-.31.24-.45.19-.08.35-.08.56-.06Z"/>
        <path class="cls-99" d="M28.62,39.83c-.28.13-.56.26-.85.4-.02-.04-.04-.08-.06-.11q.26-.17.46-.17v-.11q.33-.06.46,0Z"/>
        <path class="cls-19" d="M58.75,38.92l.11.06c-.15.17-.3.34-.46.51,0-.23.09-.33.23-.51l.11-.06ZM58.24,39.49s.08.04.11.06c-.08.06-.15.11-.23.17v-.17l.11-.06Z"/>
        <path class="cls-91" d="M10.29,53.04c.06.02.11.04.17.06v.17s.07-.04.1-.06q.12-.05.3,0c-.18.12-.21.13-.41.12q-.11,0-.22,0c.02-.09.04-.19.06-.28Z"/>
        <path class="cls-56" d="M54.25,31.97h.17c.02.09.04.19.06.28-.09.04-.19.08-.28.11q-.04-.1-.06-.23c.04-.06.08-.11.11-.17Z"/>
        <path class="cls-48" d="M14.44,45.3v.06l.34.06v.06q-.37.03-.74.06v-.17c.14-.07.24-.06.4-.06Z"/>
        <path class="cls-76" d="M26.63,38.75c-.27.22-.39.29-.74.28.13-.26.47-.31.74-.28Z"/>
        <path class="cls-50" d="M55.67,33.51h.06c0,.08,0,.16.01.25,0,.05,0,.09,0,.14q-.02.13-.1.23t-.21.07c-.02.09-.04.19-.06.28-.04-.02-.08-.04-.11-.06q.04-.16.11-.34s.08-.03.12-.05q.05-.03.11-.06c.04-.15.05-.3.06-.46Z"/>
        <path class="cls-100" d="M32.61,31.46l-.17.34c-.17-.02-.34-.04-.51-.06v-.06c.06-.02.12-.03.19-.05.18-.05.32-.18.49-.18Z"/>
        <path class="cls-49" d="M32.84,31.35s-.07.04-.11.06c-.05.03-.09.05-.14.08-.05.03-.09.05-.14.08q-.11.06-.17.12c-.11,0-.23,0-.34,0q.17-.11.34-.11c.02-.06.04-.11.06-.17q.36-.13.51-.06Z"/>
        <path class="cls-78" d="M35.63,30.04v.17q-.11.11-.22.13c-.11,0-.23,0-.34-.01.15-.2.34-.23.57-.28Z"/>
        <path class="cls-16" d="M58.81,23.15q0,.17-.06.28h-.17c-.04.08-.08.15-.11.23-.04-.02-.08-.04-.11-.06q.04-.16.11-.34t.34-.11Z"/>
        <path class="cls-54" d="M13.93,45.36h.11v.17h.57v.06q-.37.03-.74.06c.02-.09.04-.19.06-.28Z"/>
        <path class="cls-11" d="M38.53,31.12l-.23.11c.08.02.15.04.23.06v.34h-.06v-.28h-.4v-.17c.15-.08.29-.06.46-.06Z"/>
        <path class="cls-90" d="M49.1,26.73q.07,0,.14,0t.11,0v.06c-.25.08-.49.16-.74.23v-.11h.11v-.11c.14-.07.22-.06.38-.06Z"/>
        <path class="cls-81" d="M25.15,41.14c.06.02.11.04.17.06h-.11c-.02.06-.04.11-.06.17q-.34.18-.53.15s-.07-.02-.1-.03c.04-.02.08-.04.12-.06.05-.03.1-.05.16-.08q.08-.04.16-.08t.19-.12Z"/>
        <path class="cls-106" d="M51.69,25.77h.4c.04.07.07.14.11.21.02.04.04.08.06.12.05.12.09.23.11.35h-.11q-.02-.05-.04-.11-.11-.31-.38-.49c-.05,0-.1-.02-.16-.02v-.06Z"/>
        <path class="cls-21" d="M52.14,45.3v.17q-.16.12-.34.23c-.06.04-.11.08-.17.11.06-.17.1-.27.23-.4.09-.04.19-.08.28-.11Z"/>
        <path class="cls-54" d="M21.28,42.91q-.06.17-.21.26c-.2.08-.38.11-.59.14q.06-.11.21-.17c.06-.02.12-.04.19-.06q.29-.17.4-.17Z"/>
        <path class="cls-26" d="M20.37,41.48q.12.02.23.06c-.08.15-.12.17-.28.23-.15,0-.3,0-.46,0v-.06c.06-.02.13-.03.19-.05q.21-.05.32-.18Z"/>
        <path class="cls-41" d="M34.6,34.14h.11v.57c-.06.02-.11.04-.17.06,0-.09,0-.19,0-.28,0-.05,0-.1,0-.16q0-.13.06-.19Z"/>
        <path class="cls-30" d="M53.11,33.28q.04.1.06.23t-.22.27q-.06.07-.13.14s-.07.07-.1.1l-.06-.11s.05-.06.07-.09c.03-.04.06-.08.09-.12.03-.04.06-.08.09-.12.07-.09.14-.19.2-.29Z"/>
        <path class="cls-105" d="M23.52,33.24l.09.05q-.22.21-.34.28t-.23-.06q.31-.29.48-.27Z"/>
        <path class="cls-66" d="M24.01,31.86v.11l-.57.28c-.02-.06-.04-.11-.06-.17.08-.04.17-.08.25-.11.05-.02.09-.04.14-.06q.12-.05.24-.05Z"/>
        <path class="cls-74" d="M55.56,25.82l.11.06v.11c.08.02.15.04.23.06v.46h-.06c-.02-.09-.04-.19-.06-.28-.06-.02-.11-.04-.17-.06-.02-.11-.04-.23-.06-.34Z"/>
        <path class="cls-57" d="M42.18,23.37v.06q-.09.02-.18.05c-.2.06-.38.14-.56.24l-.11.06v-.23c.31-.13.52-.19.85-.17Z"/>
        <path class="cls-1" d="M13.99,45.07h.4v.17c-.11.04-.23.08-.34.11-.02-.09-.04-.19-.06-.28Z"/>
        <path class="cls-96" d="M20.37,43.31v.11q-.4.19-.63.11c.08-.04.17-.08.25-.11.05-.02.09-.04.14-.06q.12-.05.24-.05Z"/>
        <path class="cls-82" d="M20.99,34.93c.11.02.23.04.34.06-.13.07-.26.12-.4.17v.28c-.08.02-.15.04-.23.06l.06-.11h.11c0-.06.02-.13.02-.2q.03-.2.09-.26Z"/>
        <path class="cls-6" d="M63.87,31.8l.11.06c-.06.19-.11.34-.23.51-.08-.02-.15-.04-.23-.06q.06-.11.23-.17t.11-.34Z"/>
        <path class="cls-36" d="M47.25,25.59v.11c-.09.02-.18.04-.27.06-.05.01-.1.02-.15.03q-.14.02-.31.02c.21-.21.46-.24.74-.23Z"/>
        <path class="cls-106" d="M42.06,25.31q0,.17-.13.32t-.32.13c.09-.24.24-.33.46-.46Z"/>
        <path class="cls-21" d="M42.97,51.9c-.22.15-.42.23-.68.23.17-.25.4-.34.68-.23Z"/>
        <path class="cls-87" d="M53.79,43.76l.23.06q-.23.2-.46.4l-.11-.11.34-.34Z"/>
        <path class="cls-54" d="M22.02,42.68v.11c-.26.08-.47.13-.74.11.02-.04.04-.08.06-.11q.13-.04.28-.06c.05,0,.1-.02.15-.03q.13-.02.25-.02Z"/>
        <path class="cls-40" d="M14.33,40.97h.17v.28c-.13.04-.26.08-.4.11v-.11h.23v-.28Z"/>
        <path class="cls-65" d="M31.53,40.51c-.15.15-.32.2-.51.28l-.11.06c.07-.14.12-.23.23-.34q.26-.07.4,0Z"/>
        <path class="cls-20" d="M19.97,36.24l.11.06c-.06.19-.11.23-.29.33q-.08.04-.16.07c.04-.09.08-.19.11-.28h.11v-.11l.11-.06Z"/>
        <path class="cls-9" d="M62.96,33.45c.02.06.04.11.06.17q-.08.12-.2.24s-.08.08-.11.12c-.03.03-.06.06-.09.09q-.04-.1-.06-.23.13-.15.28-.28l.11-.11Z"/>
        <path class="cls-84" d="M42.46,25.08c-.08.19-.19.31-.34.46-.04-.02-.08-.04-.11-.06q.22-.4.46-.4Z"/>
        <path class="cls-71" d="M38.87,53.73c.06.04.11.08.17.11q-.25.17-.51.34,0-.17.07-.25c.09-.07.18-.14.27-.21Z"/>
        <path class="cls-80" d="M20.71,45.7c.06.04.11.08.17.11v.17h-.28c-.02-.08-.04-.15-.06-.23.06-.02.11-.04.17-.06Z"/>
        <path class="cls-42" d="M30.39,43.31h.4q-.29.25-.51.28v-.11h.11v-.17Z"/>
        <path class="cls-67" d="M33.29,41.14l.23.06c-.12.13-.17.17-.34.23l-.06.11s-.08-.04-.11-.06c.09-.11.19-.23.28-.34Z"/>
        <path class="cls-2" d="M20.77,33.85h.23c-.02.08-.04.15-.06.23-.08.02-.15.04-.23.06.02-.09.04-.19.06-.28Z"/>
        <path class="cls-83" d="M56.41,28.39h.23v.17h-.17v.11h-.17q.05-.22.11-.28Z"/>
        <path class="cls-18" d="M23.61,58.05q.42-.02.63.11c-.2.07-.31.04-.51,0h-.17l.06-.11Z"/>
        <path class="cls-19" d="M22.2,58.05c.06,0,.12,0,.19,0,.05,0,.1,0,.15,0v.06c-.11.02-.22.04-.33.06-.06.01-.12.02-.19.04q-.08,0-.16.01s-.08-.08-.11-.11c.16-.08.29-.06.46-.06Z"/>
        <path class="cls-50" d="M18.09,40.86h.06q.01.38-.11.57s-.08-.04-.11-.06c.06-.17.11-.34.17-.51Z"/>
        <path class="cls-18" d="M59.2,38.24q.06.17,0,.29s-.05.08-.08.12c-.03.04-.05.08-.08.12-.02.03-.04.06-.06.09q-.06-.17,0-.29s.05-.08.08-.12c.03-.04.05-.08.08-.12.02-.03.04-.06.06-.09Z"/>
        <path class="cls-48" d="M53.4,35.85q.12.02.23.06v.11h-.28v.28h-.11q.11-.39.17-.46Z"/>
        <path class="cls-34" d="M22.36,33.8l.11.06q-.21.39-.4.46c.07-.2.15-.35.28-.51Z"/>
        <path class="cls-40" d="M38.87,30.61q.12.02.23.06c-.09.1-.19.19-.28.28h-.11q.11-.28.17-.34Z"/>
        <path class="cls-108" d="M23.73,40.12q-.12.12-.28.23t-.34-.06q.38-.25.63-.17Z"/>
        <path class="cls-35" d="M47.43,38.22q.08,0,.16.01t-.22.18-.35.05c.14-.17.19-.22.41-.24Z"/>
        <path class="cls-99" d="M23.38,35.72c.11,0,.23,0,.34.02-.2.11-.41.17-.63.23.07-.14.12-.22.28-.24Z"/>
        <path class="cls-7" d="M45.99,27.59l.11.06q-.03.11-.11.23t-.4.06l-.11.06c.02-.06.04-.11.06-.17.13-.04.27-.08.4-.11l.06-.11Z"/>
        <path class="cls-4" d="M16.55,41.48q.12.05.23.11s-.04.08-.06.11h-.28v-.17l.11-.06Z"/>
        <path class="cls-63" d="M35.69,37.95c.06.02.11.04.17.06h-.11v.46q-.06.03-.11.06c.02-.11.04-.23.06-.34h-.11l.11-.23Z"/>
        <path class="cls-65" d="M40.81,33.28q-.06.09-.17.17t-.34,0c.15-.2.28-.19.51-.17Z"/>
        <path class="cls-39" d="M40.47,27.02l.06.23c-.06.02-.11.04-.17.06-.02.08-.04.15-.06.23q-.06.03-.11.06c.07-.22.13-.39.28-.57Z"/>
        <path class="cls-43" d="M50.49,45.7l.23.06v.17q-.06.03-.11.06s-.08-.04-.11-.06v-.23Z"/>
        <path class="cls-13" d="M58.01,39.72l.11.06c-.11.13-.23.26-.34.4-.02-.04-.04-.08-.06-.11q.14-.27.28-.34Z"/>
        <path class="cls-53" d="M21.33,33.34l.11.06-.4.34v-.17q.14-.12.28-.23Z"/>
        <path class="cls-72" d="M64.33,31c.02.06.04.11.06.17-.07.08-.15.15-.23.23h-.11c.07-.16.15-.28.28-.4Z"/>
        <path class="cls-25" d="M56.93,51.11h.11v.11h-.11v-.11Z"/>
        <path class="cls-8" d="M44.4,15.17l.11.06-.11-.06Z"/>
      </g>
    </g>
  </g>
</svg>