<?xml version="1.0" encoding="UTF-8"?>
<svg id="CMD_Z" xmlns="http://www.w3.org/2000/svg" viewBox="0 0 684.49 615.49">
  <defs>
    <style>
      .cls-1 {
        fill: #333;
      }

      .cls-2 {
        fill: #fff;
      }

      .cls-3 {
        fill: #191919;
      }

      .cls-4 {
        fill: #0d0d0d;
      }
    </style>
  </defs>
  <polygon class="cls-3" points="508.49 104 2.49 103 180.25 0 680.49 3 508.49 104"/>
  <polygon class="cls-1" points="684.49 507 513.49 614 512.49 108.32 682.49 8 684.49 507"/>
  <g>
    <g>
      <path class="cls-4" d="M381.26,282.5c-11.66,0-14.1-1.87-14.1-3.43,0-3.61-.06-9-.18-16.02-.12-7.05-.18-12.4-.18-15.91s.06-9.01.18-16.18c.12-7.14.18-12.59.18-16.2,0-1.21,1.76-3.25,13.55-3.25,10.03,0,18.19,3.35,24.27,9.97,6.03,6.39,9.08,14.75,9.08,24.84,0,10.65-2.82,19.35-8.37,25.86-5.89,6.85-14.12,10.32-24.44,10.32Z"/>
      <path class="cls-2" d="M380.71,212.01c9.88,0,17.93,3.3,23.92,9.82,5.94,6.29,8.95,14.53,8.95,24.5,0,10.53-2.78,19.13-8.25,25.54-5.8,6.73-13.89,10.15-24.07,10.15-12.63,0-13.61-2.25-13.61-2.94,0-3.61-.06-9.01-.18-16.03-.12-7.04-.18-12.39-.18-15.9s.06-9.01.18-16.17c.12-7.14.18-12.59.18-16.21,0-.65.94-2.76,13.06-2.76M380.71,211.02c-9.36,0-14.05,1.25-14.05,3.74,0,3.59-.06,8.99-.18,16.19-.12,7.21-.18,12.6-.18,16.19s.06,8.83.18,15.92c.12,7.09.18,12.42.18,16.01,0,2.62,4.86,3.92,14.6,3.92,10.52,0,18.79-3.5,24.81-10.49,5.65-6.63,8.48-15.36,8.48-26.18s-3.07-18.67-9.21-25.18c-6.2-6.75-14.41-10.13-24.63-10.13h0Z"/>
    </g>
    <g>
      <path class="cls-4" d="M.98,614.51V109.49h505.02v505.02H.98ZM242.74,462.8l62.91,54.08,26.72-22.97-17.25-14.83h27.58c43.7,0,79.25-30.59,79.25-68.19s-35.55-68.19-79.25-68.19h-.49v32.55h.49c22.91,0,41.54,15.99,41.54,35.64s-18.64,35.64-41.54,35.64h-27.58l17.25-14.83-26.72-22.97-62.91,54.07ZM172.16,398.76c2.29,0,2.29.89,2.29,1.22,0,1.35-4.54,10.04-26.15,43.79-26.3,41.06-26.3,41.46-26.3,41.75,0,.3.13,1.25,1.3,6,1.27,8.87,1.98,15.7,2.13,20.24.42,1.98,2.06,2.94,4.88,2.94,6.04,0,15.08.07,26.86.21,11.92.14,20.96.21,26.88.21,4.18,0,10.55.22,18.92.64,8.38.43,14.77.64,18.97.64,1.74,0,2.83-.95,3.16-2.76,2.07-11.54,3.11-23.28,3.11-34.88,0-2.38-1.25-2.74-1.99-2.74-2.16,0-5.53.36-10.03,1.08-5.24.78-8.68,1.21-10.22,1.28-7.74.57-18.97.86-33.38.86-.81,0-1.33-.14-1.33-.36.11-.93,4.46-8.57,24.54-39.55,14.33-22.06,23.87-36.54,28.36-43.02,1.36-2.04,2.01-3.7,2.01-5.1,0-10.62-.65-18.9-1.94-24.62-.61-2.35-2.17-2.85-3.37-2.85-9.77,0-24.69-.22-44.36-.64-19.63-.43-34.56-.64-44.38-.64-2.8,0-3.38,1.2-3.38,2.21,0,3.38-.81,8.92-2.4,16.49-1.61,7.63-2.42,12.85-2.42,15.52,0,1.9,1.01,2.95,2.85,2.95,5.08,0,12.74-.14,22.76-.43,10.24-.29,17.65-.43,22.63-.43ZM119.36,179.51c-18.19,0-33.38,6.87-45.16,20.42-11.28,12.92-17,28.87-17,47.39s5.84,35.21,17.37,47.77c11.84,13,27.49,19.59,46.52,19.59s33.75-6.78,44.98-20.15c1.37-1.69,2.03-3.05,2.03-4.15,0-.37,0-1.15-6.74-11.4-4.38-6.59-6.98-10.34-7.98-11.46-.71-.78-1.44-1.17-2.19-1.17-.28,0-.64,0-4.79,3.59-3.18,2.7-6.34,4.82-9.38,6.32-4.65,2.27-9.64,3.42-14.83,3.42-8.74,0-15.82-3.37-21.05-10.03-4.83-6.15-7.28-13.87-7.28-22.96s2.45-16.6,7.28-22.68c5.23-6.53,12.31-9.85,21.05-9.85,5.06,0,10.02,1.21,14.74,3.6,3.11,1.62,6.33,3.89,9.56,6.77,4.24,3.77,4.6,3.77,4.89,3.77.86,0,1.59-.29,2.17-.87,1.12-.93,3.76-5.06,8.06-12.6,5.74-10.08,6.4-12.31,6.4-13.11,0-1.17-.64-2.44-1.95-3.89-11.24-12.15-26.95-18.31-46.71-18.31ZM212.98,252.33c.14.17.21.29.25.38,2.85,6.02,7.18,15.86,12.87,29.29,5.32,12.71,9.69,22.54,12.96,29.22.71,1.41,2.7,2.1,6.1,2.1,2.9,0,3.53-.06,3.75-.1,1.09-.29,1.97-1.21,2.64-2.75,4.38-10.78,8.76-21.57,13.14-32.4,8.4-20.7,11.04-26.35,11.83-27.66.12.27.27.86.27,2.12,0,6.1-.23,15.39-.68,27.62-.45,12.22-.68,21.53-.68,27.66,0,3.04,1.71,3.68,3.14,3.68h32.29c2.02,0,3.14-1.18,3.14-3.32,0-6.55-.28-16.56-.82-29.76-.54-13.18-.82-23.21-.82-29.81,0-7.15.26-17.96.77-32.14.52-14.23.78-25.06.78-32.17,0-1-.42-2.68-3.23-2.68-1.53,0-3.89.15-7.03.46-3.1.3-5.43.45-6.93.45-1.81,0-4.52-.09-8.05-.27-3.55-.18-6.25-.27-8.01-.27-1.44,0-2.7,1.26-3.83,3.85-11.97,25.56-21.14,44.99-27.27,57.73-2.8,5.82-3.68,6.5-3.88,6.57-.56,0-1.92-.74-4.26-5.65l-26.63-58.47c-1.73-3.63-2.63-4.12-3.28-4.12-3.32,0-8.39.11-15.07.32-6.62.21-11.68.32-15.04.32-1.94,0-3.2.33-3.84,1-.35.36-.51.81-.48,1.34l.09,1.55c.48,9.91.76,17.49.82,22.51.61,19.33.91,32.68.91,39.68,0,6.59-.32,16.63-.96,29.85-.64,13.23-.96,23.28-.96,29.9,0,1.09.16,1.85.5,2.33.38.55,1.22.8,2.64.8h30.47c1.39,0,3.05-.64,3.05-3.68,0-5.91-.15-14.93-.46-26.83-.3-11.83-.46-20.85-.46-26.81,0-.77.09-1.38.26-1.84ZM354.71,182.34c-9.82,0-16.99.25-21.31.73-2.55.35-3.08,1.7-3.08,2.77,0,6.92.26,17.47.78,31.35.51,13.92.77,24.49.77,31.41s-.26,16.75-.77,30.13c-.52,13.34-.78,23.49-.78,30.17,0,.97.41,2.59,3.14,2.59,2.94,0,7.46.09,13.44.27,5.92.18,10.45.27,13.47.27,15.78,0,25.57-.06,29.12-.18,18.42-.61,32.94-6.9,43.14-18.69,11.52-13.16,17.36-28.93,17.36-46.85,0-9.88-2.16-19.61-6.43-28.94-4.45-9.88-10.62-17.69-18.31-23.18-8.18-5.86-19.65-9.57-34.08-11.04-5.53-.55-17.79-.82-36.45-.82Z"/>
      <path class="cls-2" d="M505.51,109.98v504.03H1.48V109.98h504.03M121.09,315.18c18.77,0,34.03-6.84,45.37-20.34,1.44-1.78,2.13-3.23,2.13-4.45,0-.52,0-1.3-6.82-11.67-4.39-6.61-7.01-10.37-8.03-11.52-.8-.88-1.66-1.32-2.55-1.32-.46,0-.82,0-5.11,3.7-3.15,2.67-6.27,4.78-9.28,6.25-4.58,2.23-9.5,3.37-14.62,3.37-8.58,0-15.53-3.31-20.66-9.84-4.76-6.06-7.18-13.68-7.18-22.65s2.41-16.38,7.17-22.37c5.13-6.41,12.08-9.66,20.67-9.66,4.99,0,9.87,1.19,14.51,3.54,3.08,1.6,6.26,3.85,9.47,6.7,4.38,3.9,4.75,3.9,5.22,3.9.98,0,1.82-.33,2.49-.99.78-.67,2.5-2.77,8.17-12.74,6.47-11.36,6.47-12.75,6.47-13.35,0-1.3-.68-2.68-2.09-4.23-11.33-12.26-27.17-18.47-47.06-18.47-18.34,0-33.66,6.93-45.53,20.59-11.36,13.02-17.12,29.07-17.12,47.72s5.89,35.45,17.5,48.1c11.94,13.11,27.71,19.75,46.89,19.75M296.69,182.03c-1.8,0-4.5-.09-8.02-.27-3.56-.18-6.26-.27-8.03-.27-1.66,0-3.06,1.36-4.27,4.12-11.96,25.55-21.13,44.97-27.27,57.73-2.27,4.73-3.23,5.94-3.55,6.25-.41-.15-1.62-.96-3.7-5.32l-26.64-58.49c-1.51-3.16-2.55-4.39-3.72-4.39-3.32,0-8.4.11-15.08.32-6.61.21-11.66.32-15.02.32-2.11,0-3.45.37-4.2,1.16-.44.46-.65,1.05-.62,1.71l.09,1.54c.48,9.92.76,17.48.82,22.51.6,19.33.91,32.67.91,39.65,0,6.58-.32,16.61-.96,29.83-.64,13.23-.96,23.3-.96,29.92,0,1.21.19,2.04.58,2.61.63.91,2.04,1.02,3.05,1.02h30.47c1.06,0,3.54-.41,3.54-4.18,0-5.91-.15-14.95-.46-26.84-.3-11.82-.46-20.84-.46-26.79,0-.12,0-.23,0-.33,2.84,6.04,7.01,15.57,12.42,28.35,5.33,12.72,9.7,22.56,12.98,29.25.8,1.59,2.93,2.37,6.54,2.37,3.28,0,3.66-.07,3.84-.11h.03s.03-.01.03-.01c1.21-.32,2.2-1.34,2.94-3.04,4.36-10.72,8.78-21.61,13.14-32.38,6.86-16.9,9.85-23.71,11.14-26.34,0,.18.01.38.01.61,0,6.09-.23,15.38-.68,27.6-.45,12.23-.69,21.54-.69,27.68,0,3.77,2.54,4.18,3.63,4.18h32.29c2.31,0,3.63-1.39,3.63-3.81,0-6.55-.28-16.57-.82-29.78-.54-13.18-.82-23.2-.82-29.79,0-7.14.26-17.94.77-32.12.52-14.23.78-25.06.78-32.19,0-.95-.36-3.17-3.72-3.17-1.56,0-3.87.15-7.07.46-3.08.3-5.39.45-6.88.45M360.37,312.53c15.79,0,25.59-.06,29.13-.18,18.56-.61,33.2-6.96,43.49-18.85,11.6-13.26,17.49-29.13,17.49-47.17,0-9.95-2.18-19.75-6.47-29.14-4.49-9.97-10.71-17.83-18.48-23.38-8.25-5.91-19.8-9.66-34.32-11.13-5.54-.55-17.82-.83-36.49-.83-9.84,0-17.03.25-21.39.74-3.04.42-3.5,2.22-3.5,3.26,0,6.93.26,17.48.78,31.37.51,13.91.77,24.47.77,31.39s-.26,16.75-.77,30.11c-.52,13.35-.78,23.5-.78,30.19,0,.93.35,3.08,3.63,3.08,2.93,0,7.45.09,13.43.27,5.95.18,10.49.27,13.49.27M341.72,375.74h.98c22.63,0,41.05,15.77,41.05,35.15s-18.41,35.14-41.05,35.14h-26.26l15.81-13.59.87-.75-.87-.75-25.97-22.32-.64-.55-.64.55-62.16,53.42-.87.75.87.75,62.16,53.43.64.55.64-.55,25.97-22.32.87-.75-.87-.75-15.81-13.59h26.26c43.97,0,79.74-30.81,79.74-68.68s-35.77-68.68-79.74-68.68h-.98v33.53M126.77,400.11c5.08,0,12.74-.14,22.78-.43,10.24-.29,17.64-.43,22.61-.43,1.8,0,1.8.55,1.8.72-.07,1.17-3.56,8.38-26.07,43.53-26.38,41.19-26.38,41.55-26.38,42.01,0,.25,0,.76,1.3,6.07,1.27,8.88,1.98,15.67,2.12,20.18v.09s.02.09.02.09c.32,1.48,1.51,3.24,5.35,3.24,6.1,0,15.13.07,26.86.21,12.1.14,20.9.21,26.88.21,4.17,0,10.53.22,18.9.64,8.4.43,14.79.64,19,.64,1.98,0,3.27-1.12,3.65-3.17,2.07-11.57,3.12-23.33,3.12-34.96,0-2.92-1.74-3.23-2.48-3.23-2.21,0-5.52.35-10.1,1.08-5.22.78-8.65,1.21-10.2,1.28-7.72.57-18.93.85-33.33.85-.36,0-.6-.03-.74-.06.7-1.68,5.06-9.3,24.37-39.1,14.33-22.06,23.87-36.53,28.36-43.02,1.41-2.11,2.09-3.87,2.09-5.36,0-10.66-.66-18.98-1.96-24.76-.54-2.06-1.9-3.2-3.84-3.2-9.8,0-24.72-.22-44.35-.64-19.65-.43-34.59-.64-44.39-.64-3.37,0-3.87,1.69-3.87,2.7,0,3.34-.8,8.86-2.39,16.39-1.64,7.77-2.43,12.88-2.43,15.62,0,2.19,1.22,3.45,3.34,3.45M506.49,109H.49v506h506V109h0ZM121.09,314.19c-18.97,0-34.36-6.48-46.16-19.43-11.49-12.53-17.24-28.34-17.24-47.44s5.62-34.18,16.88-47.07c11.74-13.5,26.67-20.25,44.79-20.25,19.7,0,35.15,6.05,46.34,18.15,1.22,1.34,1.82,2.52,1.82,3.56,0,1.16-2.11,5.44-6.34,12.86-4.23,7.42-6.89,11.59-7.98,12.5-.49.49-1.09.73-1.82.73-.3,0-1.82-1.22-4.56-3.65-3.28-2.92-6.51-5.2-9.67-6.84-4.81-2.43-9.79-3.65-14.96-3.65-8.94,0-16.09,3.35-21.44,10.03-4.93,6.2-7.39,13.87-7.39,22.99s2.46,17,7.39,23.26c5.35,6.81,12.5,10.22,21.44,10.22,5.29,0,10.31-1.15,15.05-3.47,3.1-1.52,6.26-3.65,9.49-6.39,2.68-2.31,4.16-3.47,4.47-3.47.61,0,1.22.34,1.82,1,.97,1.09,3.62,4.9,7.94,11.4,4.44,6.75,6.66,10.46,6.66,11.13,0,.97-.64,2.25-1.92,3.83-11.19,13.32-26.06,19.98-44.61,19.98h0ZM296.69,183.02c1.52,0,3.85-.15,6.98-.46,3.13-.3,5.46-.46,6.98-.46,1.82,0,2.74.73,2.74,2.19,0,7.18-.26,17.9-.78,32.16-.52,14.26-.78,24.98-.78,32.16,0,6.63.27,16.57.82,29.83.55,13.26.82,23.17.82,29.74,0,1.88-.88,2.83-2.65,2.83h-32.29c-1.76,0-2.65-1.06-2.65-3.19,0-6.14.23-15.36.68-27.64.46-12.28.68-21.5.68-27.64,0-1.76-.27-2.71-.82-2.83-.67.36-4.74,9.76-12.22,28.19-4.38,10.83-8.76,21.62-13.14,32.38-.61,1.4-1.37,2.22-2.28,2.46-.3.06-1.52.09-3.65.09-3.16,0-5.05-.61-5.66-1.82-3.28-6.69-7.6-16.42-12.95-29.19-5.72-13.5-10-23.26-12.86-29.28-.12-.3-.4-.64-.82-1-.43.55-.64,1.43-.64,2.65,0,5.96.15,14.9.46,26.82.3,11.92.46,20.86.46,26.82,0,2.13-.85,3.19-2.55,3.19h-30.47c-1.22,0-1.96-.2-2.23-.59-.27-.39-.41-1.08-.41-2.05,0-6.63.32-16.59.96-29.87.64-13.29.96-23.25.96-29.87,0-7.05-.3-20.28-.91-39.68-.06-5.05-.34-12.56-.82-22.53l-.09-1.55c-.06-1.22,1.22-1.82,3.83-1.82,3.34,0,8.36-.11,15.05-.32,6.69-.21,11.71-.32,15.05-.32.67,0,1.61,1.28,2.83,3.83l26.64,58.47c1.88,3.95,3.47,5.93,4.74,5.93.67,0,2.1-2.28,4.29-6.84,6.14-12.77,15.23-32.02,27.28-57.74,1.03-2.37,2.16-3.56,3.38-3.56,1.76,0,4.42.09,7.98.27,3.56.18,6.25.27,8.07.27h0ZM360.37,311.55c-2.98,0-7.47-.09-13.45-.27-5.99-.18-10.48-.27-13.46-.27-1.76,0-2.65-.7-2.65-2.1,0-6.69.26-16.74.78-30.15.52-13.41.78-23.46.78-30.15s-.26-17.47-.78-31.43c-.52-13.96-.78-24.4-.78-31.33,0-1.28.88-2.04,2.65-2.28,4.32-.49,11.4-.73,21.25-.73,18.73,0,30.86.27,36.4.82,14.41,1.46,25.69,5.11,33.84,10.95,7.66,5.47,13.71,13.14,18.15,22.99,4.26,9.3,6.39,18.88,6.39,28.73,0,17.88-5.75,33.39-17.24,46.52-10.16,11.74-24.42,17.91-42.78,18.52-3.53.12-13.23.18-29.1.18h0ZM313.79,447.01h28.91c23.18,0,42.03-16.21,42.03-36.13s-18.86-36.13-42.03-36.13v-31.57c43.43,0,78.76,30.37,78.76,67.7s-35.33,67.69-78.76,67.69h-28.91l17.83,15.32-25.97,22.32-62.16-53.43,62.16-53.42,25.97,22.32-17.83,15.32h0ZM126.77,399.13c-1.57,0-2.36-.82-2.36-2.46,0-2.64.8-7.78,2.41-15.42,1.61-7.64,2.41-13.17,2.41-16.59,0-1.14.96-1.71,2.89-1.71,9.85,0,24.64.21,44.37.64,19.73.43,34.52.64,44.37.64,1.5,0,2.46.82,2.89,2.46,1.28,5.71,1.93,13.88,1.93,24.51,0,1.28-.64,2.89-1.93,4.82-4.5,6.5-13.95,20.84-28.37,43.03-16.42,25.34-24.62,38.61-24.62,39.82,0,.57.61.86,1.82.86,14.49,0,25.62-.29,33.4-.86,1.57-.07,4.99-.5,10.28-1.28,4.5-.71,7.81-1.07,9.96-1.07,1,0,1.5.75,1.5,2.25,0,11.63-1.04,23.23-3.1,34.79-.29,1.57-1.18,2.36-2.68,2.36-4.21,0-10.53-.21-18.95-.64-8.42-.43-14.74-.64-18.95-.64-5.99,0-14.95-.07-26.87-.21-11.92-.14-20.87-.21-26.87-.21-2.57,0-4.03-.82-4.39-2.46-.14-4.57-.86-11.35-2.14-20.34-.86-3.5-1.28-5.46-1.28-5.89,0-.36,8.74-14.18,26.23-41.48,17.48-27.3,26.23-41.98,26.23-44.05,0-1.14-.93-1.71-2.78-1.71-5,0-12.54.14-22.64.43-10.1.29-17.68.43-22.75.43h0Z"/>
    </g>
  </g>
</svg>